SplineFontDB: 3.0
FontName: HM_FTXlotoos_Shadow
FullName: HM_FTXlotoos_Shadow
FamilyName: HM_FTXlotoos_Shadow
Weight: Shadow
Copyright: Copyright (c) Hossein, 2013. All rights reserved.
Version: 0.1
ItalicAngle: 0
UnderlinePosition: -540
UnderlineWidth: 60
Ascent: 1638
Descent: 410
sfntRevision: 0x00010000
LayerCount: 2
Layer: 0 1 "Back"  1
Layer: 1 1 "Fore"  0
XUID: [1021 102 1371595031 6992056]
FSType: 0
OS2Version: 2
OS2_WeightWidthSlopeOnly: 0
OS2_UseTypoMetrics: 1
CreationTime: 1194658560
ModificationTime: 1360912707
PfmFamily: 17
TTFWeight: 400
TTFWidth: 5
LineGap: 0
VLineGap: 0
Panose: 2 0 5 3 8 0 0 2 0 3
OS2TypoAscent: 2100
OS2TypoAOffset: 0
OS2TypoDescent: -1000
OS2TypoDOffset: 0
OS2TypoLinegap: 0
OS2WinAscent: 2100
OS2WinAOffset: 0
OS2WinDescent: 1000
OS2WinDOffset: 0
HheadAscent: 2100
HheadAOffset: 0
HheadDescent: -1000
HheadDOffset: 0
OS2SubXSize: 1434
OS2SubYSize: 1331
OS2SubXOff: 0
OS2SubYOff: 293
OS2SupXSize: 1434
OS2SupYSize: 1331
OS2SupXOff: 0
OS2SupYOff: 928
OS2StrikeYSize: 102
OS2StrikeYPos: 512
OS2Vendor: 'pars'
OS2CodePages: 20000051.41000000
OS2UnicodeRanges: 00002003.80000000.00000008.00000000
Lookup: 4 0 1 "gsub_ligature_dfl_liga_arab_FAR_Lookup_01"  {"gsub_ligature_dfl_liga_arab_FAR_Lookup_01_Subtable_01"  } ['liga' ('arab' <'FAR ' > ) ]
Lookup: 4 0 1 "gsub_ligature_dfl_liga_arab_FAR_Lookup_02"  {"gsub_ligature_dfl_liga_arab_FAR_Lookup_02_Subtable_01"  } ['liga' ('arab' <'FAR ' > ) ]
Lookup: 3 0 0 "gsub_alternate_dfl_aalt_arab_FAR_Lookup_01"  {"gsub_alternate_dfl_aalt_arab_FAR_Lookup_01_Subtable_01"  } ['aalt' ('arab' <'FAR ' > ) ]
Lookup: 1 1 0 "gsub_single_rtl_fina_arab_FAR_Lookup_01"  {"gsub_single_rtl_fina_arab_FAR_Lookup_01_Subtable_01"  } ['fina' ('arab' <'FAR ' > ) ]
Lookup: 1 1 0 "gsub_single_rtl_init_arab_FAR_Lookup_01"  {"gsub_single_rtl_init_arab_FAR_Lookup_01_Subtable_01"  } ['init' ('arab' <'FAR ' > ) ]

StartChar: .notdef
Encoding: 65536 -1 0
Width: 1122
GlyphClass: 2
Flags: W
LayerCount: 2
Fore
SplineSet
624 299 m 0,0,1
 624 269 624 269 602 246.5 c 128,-1,2
 580 224 580 224 548 224 c 0,3,4
 518 224 518 224 496.5 246.5 c 128,-1,5
 475 269 475 269 475 299 c 0,6,7
 475 331 475 331 496.5 352.5 c 128,-1,8
 518 374 518 374 551 374 c 0,9,10
 581 374 581 374 602.5 352.5 c 128,-1,11
 624 331 624 331 624 299 c 0,0,1
732 780 m 0,12,13
 732 737 732 737 708.5 710 c 128,-1,14
 685 683 685 683 648 683 c 0,15,16
 616 683 616 683 597 701.5 c 128,-1,17
 578 720 578 720 578 749 c 0,18,19
 578 770 578 770 588 785 c 128,-1,20
 598 800 598 800 610.5 810.5 c 128,-1,21
 623 821 623 821 633 829 c 128,-1,22
 643 837 643 837 643 843 c 0,23,24
 643 863 643 863 623.5 875 c 128,-1,25
 604 887 604 887 574 887 c 0,26,27
 536 887 536 887 512 866 c 128,-1,28
 488 845 488 845 488 813 c 0,29,30
 488 795 488 795 498.5 769 c 128,-1,31
 509 743 509 743 521.5 718 c 128,-1,32
 534 693 534 693 545.5 673 c 128,-1,33
 557 653 557 653 559 648 c 0,34,35
 570 619 570 619 576.5 583.5 c 128,-1,36
 583 548 583 548 583 513 c 0,37,38
 583 492 583 492 581.5 470.5 c 128,-1,39
 580 449 580 449 578 424 c 1,40,-1
 539 424 l 1,41,-1
 539 442 l 1,42,-1
 543 472 l 1,43,44
 543 505 543 505 498 544 c 0,45,46
 425 609 425 609 416 620 c 0,47,48
 371 673 371 673 371 740 c 0,49,50
 371 781 371 781 386 815.5 c 128,-1,51
 401 850 401 850 426.5 875.5 c 128,-1,52
 452 901 452 901 486.5 915 c 128,-1,53
 521 929 521 929 560 929 c 0,54,55
 595 929 595 929 626.5 918.5 c 128,-1,56
 658 908 658 908 681.5 888.5 c 128,-1,57
 705 869 705 869 718.5 841.5 c 128,-1,58
 732 814 732 814 732 780 c 0,12,13
132 31 m 1,59,-1
 992 31 l 1,60,-1
 992 1122 l 1,61,-1
 132 1122 l 1,62,-1
 132 31 l 1,59,-1
100 0 m 1,63,-1
 100 1154 l 1,64,-1
 1022 1154 l 1,65,-1
 1022 0 l 1,66,-1
 100 0 l 1,63,-1
EndSplineSet
EndChar

StartChar: exclam
Encoding: 33 33 4
Width: 587
VWidth: 1639
GlyphClass: 2
Flags: W
LayerCount: 2
Fore
SplineSet
186.919921875 201.719726562 m 1,0,1
 174.455078125 463.733398438 174.455078125 463.733398438 154.120117188 621.559570312 c 0,2,3
 148.68359375 661.28515625 148.68359375 661.28515625 136.306640625 741.028320312 c 0,4,5
 100.168945312 975.491210938 100.168945312 975.491210938 100 1092.24023438 c 0,4,5
 100.510742188 1200.88476562 100.510742188 1200.88476562 121.319335938 1264.44042969 c 0,6,7
 138.333984375 1314.16601562 138.333984375 1314.16601562 168.879882812 1331.6796875 c 0,8,9
 181.666992188 1338.45703125 181.666992188 1338.45703125 219.719726562 1341.51953125 c 1,10,11
 257.932617188 1341.03417969 257.932617188 1341.03417969 267.279296875 1338.24023438 c 0,12,13
 312.74609375 1327.63085938 312.74609375 1327.63085938 334.127929688 1249.84570312 c 0,14,15
 335.263671875 1245.71582031 335.263671875 1245.71582031 337.418945312 1237.58300781 c 0,16,17
 338.913085938 1231.96582031 338.913085938 1231.96582031 339.439453125 1230 c 0,14,15
 342.563476562 1220.62695312 342.563476562 1220.62695312 352.620117188 1202.46582031 c 0,16,17
 363.846679688 1181.45800781 363.846679688 1181.45800781 367.319335938 1170.95996094 c 0,16,17
 371.948242188 1156.41113281 371.948242188 1156.41113281 383.291992188 1064.453125 c 0,18,19
 383.610351562 1061.93847656 383.610351562 1061.93847656 383.719726562 1061.08007812 c 0,18,19
 391.092773438 1008.47851562 391.092773438 1008.47851562 382.080078125 926.599609375 c 0,20,21
 377.397460938 871.65234375 377.397460938 871.65234375 350.919921875 690.440429688 c 0,22,23
 306.787109375 393.666015625 306.787109375 393.666015625 306.639648438 159.080078125 c 1,24,-1
 267.279296875 159.080078125 l 1,25,-1
 262.359375 198.440429688 l 1,26,-1
 242.6796875 201.719726562 l 1,27,-1
 186.919921875 201.719726562 l 1,0,1
229.559570312 318.16015625 m 1,28,29
 229.786132812 488.870117188 229.786132812 488.870117188 265.639648438 746.200195312 c 0,30,31
 269.658203125 773.440429688 269.658203125 773.440429688 279.190429688 828.849609375 c 0,32,33
 305 978.88671875 305 978.88671875 305 1052.87988281 c 0,32,33
 304.452148438 1163.75097656 304.452148438 1163.75097656 282.040039062 1228.36035156 c 1,34,35
 262.775390625 1277.47558594 262.775390625 1277.47558594 232.83984375 1289.04003906 c 1,36,37
 208.84375 1296.32226562 208.84375 1296.32226562 180.359375 1249.6796875 c 1,38,39
 147.752929688 1190.55957031 147.752929688 1190.55957031 147.559570312 1075.83984375 c 0,40,41
 147.821289062 1010.3359375 147.821289062 1010.3359375 167.239257812 890.51953125 c 0,42,43
 172.276367188 854.141601562 172.276367188 854.141601562 183.10546875 781.828125 c 0,44,45
 203.97265625 642.021484375 203.97265625 642.021484375 211.51953125 572.360351562 c 0,44,45
 213.979492188 542.01953125 213.979492188 542.01953125 218.080078125 482.16015625 c 0,46,47
 222.239257812 421.733398438 222.239257812 421.733398438 224.639648438 391.959960938 c 0,46,47
 225.180664062 384.9296875 225.180664062 384.9296875 224.828125 368.004882812 c 0,48,49
 224.61328125 331.283203125 224.61328125 331.283203125 229.559570312 318.16015625 c 1,28,29
203.319335938 144.3203125 m 0,48,49
 309.763671875 151.962890625 309.763671875 151.962890625 342.719726562 85.2802734375 c 0,50,51
 346.809570312 77.099609375 346.809570312 77.099609375 347.63671875 58.4921875 c 0,52,53
 349.140625 39.9169921875 349.140625 39.9169921875 352.559570312 32.7998046875 c 0,52,53
 356.155273438 25.609375 356.155273438 25.609375 365.884765625 13.09765625 c 0,54,55
 378.333007812 -3.8583984375 378.333007812 -3.8583984375 382.080078125 -13.1201171875 c 0,54,55
 399.359375 -70.1435546875 399.359375 -70.1435546875 355.724609375 -113.76171875 c 0,56,57
 332.25390625 -135.525390625 332.25390625 -135.525390625 303.359375 -139.400390625 c 0,56,57
 260.166015625 -143.557617188 260.166015625 -143.557617188 227.919921875 -121.360351562 c 0,58,59
 224.66015625 -118.751953125 224.66015625 -118.751953125 218.608398438 -111.924804688 c 0,60,61
 208.395507812 -101.4765625 208.395507812 -101.4765625 203.319335938 -98.400390625 c 0,60,61
 201.259765625 -97.89453125 201.259765625 -97.89453125 175.439453125 -93.48046875 c 1,62,63
 137.348632812 -79.1591796875 137.348632812 -79.1591796875 118.040039062 -42.6396484375 c 1,64,65
 109.852539062 -22.849609375 109.852539062 -22.849609375 109.83984375 11.48046875 c 1,66,67
 107.059570312 51.265625 107.059570312 51.265625 111.479492188 68.8798828125 c 0,68,69
 125.424804688 131.633789062 125.424804688 131.633789062 196.262695312 143.346679688 c 0,70,71
 200.598632812 143.983398438 200.598632812 143.983398438 203.319335938 144.3203125 c 0,48,49
227.919921875 95.1201171875 m 1,70,71
 193.16015625 91.2578125 193.16015625 91.2578125 167.724609375 51.4501953125 c 0,72,73
 157.983398438 34.669921875 157.983398438 34.669921875 157.399414062 21.3203125 c 0,72,73
 159.25 -11.984375 159.25 -11.984375 198.58203125 -38.2060546875 c 0,74,75
 216.833984375 -49.2783203125 216.833984375 -49.2783203125 231.19921875 -49.2001953125 c 0,74,75
 265.697265625 -45.3671875 265.697265625 -45.3671875 290.958007812 -7.455078125 c 0,76,77
 301.719726562 8.6962890625 301.719726562 8.6962890625 301.719726562 22.9599609375 c 0,76,77
 301.719726562 54.4111328125 301.719726562 54.4111328125 263.078125 82.181640625 c 0,78,79
 243.362304688 95.185546875 243.362304688 95.185546875 227.919921875 95.1201171875 c 1,70,71
EndSplineSet
EndChar

StartChar: percent
Encoding: 37 37 8
Width: 1199
VWidth: 1639
GlyphClass: 2
Flags: W
LayerCount: 2
Fore
SplineSet
800.68359375 1431.71972656 m 1,0,-1
 822.00390625 1423.51953125 l 1,1,-1
 823.643554688 1431.71972656 l 1,2,-1
 844.963867188 1423.51953125 l 1,3,-1
 846.603515625 1431.71972656 l 1,4,-1
 908.923828125 1407.12011719 l 1,5,-1
 902.36328125 1385.79980469 l 1,6,-1
 908.923828125 1384.16015625 l 1,7,-1
 902.36328125 1362.83984375 l 1,8,-1
 908.923828125 1361.20019531 l 1,9,-1
 900.723632812 1334.95996094 l 1,10,-1
 943.36328125 1318.55957031 l 1,11,-1
 899.083984375 1192.28027344 l 1,12,-1
 807.243164062 928.240234375 l 1,13,-1
 530.083984375 142.6796875 l 1,14,-1
 456.283203125 -67.240234375 l 1,15,-1
 415.283203125 -186.959960938 l 1,16,-1
 351.323242188 -164 l 1,17,-1
 357.883789062 -144.3203125 l 1,18,-1
 336.563476562 -136.120117188 l 1,19,-1
 334.923828125 -144.3203125 l 1,20,-1
 270.963867188 -121.360351562 l 1,21,-1
 277.5234375 -100.040039062 l 1,22,-1
 270.963867188 -98.400390625 l 1,23,-1
 277.5234375 -77.080078125 l 1,24,-1
 270.963867188 -75.4404296875 l 1,25,-1
 287.36328125 -24.599609375 l 1,26,-1
 320.1640625 65.599609375 l 1,27,-1
 430.043945312 380.48046875 l 1,28,-1
 671.124023438 1062.71972656 l 1,29,-1
 800.68359375 1431.71972656 l 1,0,-1
339.84375 -83.6396484375 m 1,30,31
 341.0078125 -78.984375 341.0078125 -78.984375 384.146484375 44.5830078125 c 0,32,33
 386.120117188 50.302734375 386.120117188 50.302734375 387.403320312 54.1201171875 c 0,32,33
 401.34375 92.66015625 401.34375 92.66015625 428.403320312 170.559570312 c 0,34,35
 455.670898438 248.991210938 455.670898438 248.991210938 469.403320312 287 c 0,34,35
 509.116210938 397.311523438 509.116210938 397.311523438 585.9140625 618.62890625 c 0,36,37
 680.630859375 891.493164062 680.630859375 891.493164062 730.1640625 1026.63964844 c 0,36,37
 742.627929688 1061.40820312 742.627929688 1061.40820312 766.505859375 1130.94433594 c 0,38,39
 802.323242188 1235.24804688 802.323242188 1235.24804688 822.00390625 1287.40039062 c 1,38,39
 838.185546875 1335.56152344 838.185546875 1335.56152344 843.323242188 1348.08007812 c 1,40,41
 848.073242188 1365.86523438 848.073242188 1365.86523438 841.68359375 1369.40039062 c 1,42,43
 831.073242188 1349.69433594 831.073242188 1349.69433594 795.849609375 1242.97363281 c 0,44,45
 792.981445312 1234.40722656 792.981445312 1234.40722656 790.84375 1228.36035156 c 0,44,45
 773.624023438 1179.98046875 773.624023438 1179.98046875 740.00390625 1084.04003906 c 0,46,47
 706.178710938 987.541015625 706.178710938 987.541015625 689.1640625 939.719726562 c 0,46,47
 648.1640625 823.280273438 648.1640625 823.280273438 566.1640625 589.580078125 c 0,48,49
 483.971679688 355.338867188 483.971679688 355.338867188 443.1640625 239.440429688 c 0,48,49
 430.58984375 203.90625 430.58984375 203.90625 406.172851562 132.475585938 c 0,50,51
 357.08203125 -10.9033203125 357.08203125 -10.9033203125 330.00390625 -80.3603515625 c 1,50,-1
 339.84375 -83.6396484375 l 1,30,31
208.643554688 1313.63964844 m 1,51,52
 321.263671875 1328.79492188 321.263671875 1328.79492188 357.883789062 1261.16015625 c 0,53,54
 364.682617188 1246.40234375 364.682617188 1246.40234375 367.723632812 1226.71972656 c 1,55,56
 368.31640625 1204.87402344 368.31640625 1204.87402344 369.36328125 1202.12011719 c 0,57,58
 372.8359375 1195.17578125 372.8359375 1195.17578125 382.188476562 1183.5703125 c 0,59,60
 395.030273438 1166.50878906 395.030273438 1166.50878906 398.883789062 1156.20019531 c 0,59,60
 415.303710938 1095.99316406 415.303710938 1095.99316406 369.740234375 1054.28417969 c 0,61,62
 348.705078125 1036.43457031 348.705078125 1036.43457031 323.443359375 1031.55957031 c 0,61,62
 280.154296875 1024.75 280.154296875 1024.75 246.36328125 1047.95996094 c 0,63,64
 241.393554688 1051.2734375 241.393554688 1051.2734375 233.329101562 1060.18652344 c 0,65,66
 225.159179688 1068.46289062 225.159179688 1068.46289062 221.763671875 1070.91992188 c 0,65,66
 217.061523438 1073.74121094 217.061523438 1073.74121094 204.350585938 1075.07714844 c 0,67,68
 194.41796875 1076.42480469 194.41796875 1076.42480469 190.603515625 1077.48046875 c 0,67,68
 152.512695312 1091.80078125 152.512695312 1091.80078125 133.203125 1128.3203125 c 0,69,70
 128.235351562 1140.68261719 128.235351562 1140.68261719 125.00390625 1184.08007812 c 1,71,72
 124.396484375 1297.45898438 124.396484375 1297.45898438 208.643554688 1313.63964844 c 1,51,52
241.443359375 1264.44042969 m 0,73,74
 205.4765625 1258.4453125 205.4765625 1258.4453125 182.897460938 1220.25683594 c 0,75,76
 174.72265625 1204.86523438 174.72265625 1204.86523438 174.203125 1192.28027344 c 0,75,76
 174.203125 1159.58398438 174.203125 1159.58398438 214.549804688 1132.78222656 c 0,77,78
 235.010742188 1119.19042969 235.010742188 1119.19042969 251.283203125 1121.75976562 c 0,77,78
 288.229492188 1127.91796875 288.229492188 1127.91796875 310.551757812 1165.94335938 c 0,79,80
 318.6171875 1181.38964844 318.6171875 1181.38964844 318.5234375 1193.91992188 c 0,79,80
 316.754882812 1227.51660156 316.754882812 1227.51660156 278.491210938 1253.41796875 c 0,81,82
 258.440429688 1266.98925781 258.440429688 1266.98925781 241.443359375 1264.44042969 c 0,73,74
882.68359375 224.6796875 m 1,81,82
 994.684570312 236.35546875 994.684570312 236.35546875 1030.28320312 170.559570312 c 0,83,84
 1031.71875 167.403320312 1031.71875 167.403320312 1037.07910156 127.763671875 c 0,85,86
 1038.49121094 119.818359375 1038.49121094 119.818359375 1040.12402344 114.799804688 c 0,85,86
 1043.27832031 106.124023438 1043.27832031 106.124023438 1055.00097656 91.6806640625 c 0,87,88
 1067.74023438 74.919921875 1067.74023438 74.919921875 1071.28320312 65.599609375 c 0,87,88
 1087.63085938 2.0263671875 1087.63085938 2.0263671875 1037.44433594 -38.357421875 c 0,89,90
 1016.05859375 -54.3818359375 1016.05859375 -54.3818359375 990.923828125 -59.0400390625 c 1,89,90
 951.055664062 -63.291015625 951.055664062 -63.291015625 918.763671875 -42.6396484375 c 0,91,92
 914.783203125 -39.322265625 914.783203125 -39.322265625 907.997070312 -31.7294921875 c 0,93,94
 897.555664062 -21.0791015625 897.555664062 -21.0791015625 892.5234375 -18.0400390625 c 0,93,94
 886.739257812 -15.1474609375 886.739257812 -15.1474609375 873.1015625 -12.7978515625 c 0,95,96
 863.395507812 -10.9140625 863.395507812 -10.9140625 859.723632812 -9.83984375 c 0,95,96
 822.395507812 4.373046875 822.395507812 4.373046875 805.603515625 41 c 0,97,98
 797.415039062 62.3779296875 797.415039062 62.3779296875 797.403320312 101.6796875 c 0,99,100
 800.002929688 210.48046875 800.002929688 210.48046875 882.68359375 224.6796875 c 1,81,82
913.84375 175.48046875 m 0,101,102
 878.72265625 169.282226562 878.72265625 169.282226562 855.599609375 131.296875 c 0,103,104
 847.142578125 115.837890625 847.142578125 115.837890625 846.603515625 103.3203125 c 0,103,104
 848.372070312 69.7236328125 848.372070312 69.7236328125 886.635742188 43.822265625 c 0,105,106
 907.259765625 31.1328125 907.259765625 31.1328125 923.68359375 32.7998046875 c 0,105,106
 958.59765625 38.9609375 958.59765625 38.9609375 981.536132812 75.0654296875 c 0,107,108
 990.366210938 90.5498046875 990.366210938 90.5498046875 990.923828125 103.3203125 c 0,107,108
 990.923828125 136.692382812 990.923828125 136.692382812 951.301757812 163.96875 c 0,109,110
 930.87109375 178.034179688 930.87109375 178.034179688 913.84375 175.48046875 c 0,101,102
359.5234375 -139.400390625 m 1,109,-1
 357.883789062 -141.040039062 l 1,110,-1
 359.5234375 -139.400390625 l 1,109,-1
EndSplineSet
EndChar

StartChar: parenleft
Encoding: 40 40 11
Width: 772
VWidth: 1639
GlyphClass: 2
Flags: W
LayerCount: 2
Fore
SplineSet
630.94140625 -223.040039062 m 1,0,1
 632.96875 -225.192382812 632.96875 -225.192382812 658.821289062 -257.48046875 c 0,2,3
 669.501953125 -269.172851562 669.501953125 -269.172851562 670.301757812 -270.599609375 c 0,4,5
 674.290039062 -292.536132812 674.290039062 -292.536132812 648.857421875 -299.28515625 c 0,6,7
 643.077148438 -300.27734375 643.077148438 -300.27734375 639.141601562 -300.120117188 c 0,6,7
 625.500976562 -298.301757812 625.500976562 -298.301757812 597.909179688 -271.426757812 c 0,8,9
 587.103515625 -261.629882812 587.103515625 -261.629882812 580.1015625 -257.48046875 c 0,8,9
 575.524414062 -255.19140625 575.524414062 -255.19140625 564.735351562 -255.58984375 c 0,10,11
 551.341796875 -255.202148438 551.341796875 -255.202148438 545.661132812 -252.559570312 c 0,10,11
 518.44921875 -234.254882812 518.44921875 -234.254882812 458.741210938 -170.559570312 c 0,12,13
 374.578125 -80.2294921875 374.578125 -80.2294921875 322.622070312 -9.83984375 c 0,14,15
 165.643554688 198.862304688 165.643554688 198.862304688 120.901367188 400.16015625 c 0,16,17
 53.4091796875 710.009765625 53.4091796875 710.009765625 203.853515625 1018.578125 c 0,18,19
 288.178710938 1189.91992188 288.178710938 1189.91992188 422.661132812 1318.55957031 c 0,18,19
 466.568359375 1359.70605469 466.568359375 1359.70605469 509.58203125 1395.63964844 c 1,20,21
 545.454101562 1422.66601562 545.454101562 1422.66601562 558.78125 1426.79980469 c 0,22,23
 558.78125 1428.44042969 558.78125 1428.44042969 568.622070312 1427.62011719 c 2,24,-1
 578.461914062 1426.79980469 l 2,24,25
 581.88671875 1426.79980469 581.88671875 1426.79980469 590.263671875 1427.53222656 c 0,26,27
 621.826171875 1429.02929688 621.826171875 1429.02929688 630.94140625 1420.24023438 c 0,26,27
 634.221679688 1415.3203125 634.221679688 1415.3203125 635.861328125 1412.04003906 c 0,28,29
 637.501953125 1408.75976562 637.501953125 1408.75976562 636.681640625 1400.55957031 c 2,30,-1
 635.861328125 1392.36035156 l 1,28,29
 635.861328125 1353 l 1,30,31
 633.837890625 1346.9296875 633.837890625 1346.9296875 624.998046875 1336.27734375 c 0,32,33
 619.572265625 1329.36230469 619.572265625 1329.36230469 617.821289062 1326.75976562 c 1,32,33
 632.047851562 1337.07519531 632.047851562 1337.07519531 645.701171875 1339.87988281 c 1,34,35
 668.319335938 1339.87988281 668.319335938 1339.87988281 671.54296875 1320.69921875 c 0,36,37
 671.647460938 1314.73339844 671.647460938 1314.73339844 670.301757812 1310.36035156 c 0,36,37
 667.3515625 1302.63085938 667.3515625 1302.63085938 648.981445312 1280.83984375 c 2,38,39
 604.701171875 1226.71972656 l 2,40,41
 513.213867188 1113.49316406 513.213867188 1113.49316406 466.94140625 1039.75976562 c 0,42,43
 266.634765625 729.811523438 266.634765625 729.811523438 310.733398438 398.365234375 c 0,44,45
 322.184570312 314.833007812 322.184570312 314.833007812 348.861328125 236.16015625 c 0,44,45
 360.795898438 201.561523438 360.795898438 201.561523438 391.501953125 149.240234375 c 1,46,47
 454.764648438 32.623046875 454.764648438 32.623046875 555.501953125 -86.919921875 c 0,48,49
 574.927734375 -111.494140625 574.927734375 -111.494140625 612.901367188 -155.799804688 c 0,50,51
 633.365234375 -178.821289062 633.365234375 -178.821289062 633.483398438 -187.594726562 c 0,52,53
 632.885742188 -194.34375 632.885742188 -194.34375 630.94140625 -200.080078125 c 1,52,53
 637.501953125 -205 637.501953125 -205 631.754882812 -221.038085938 c 2,54,-1
 630.94140625 -223.040039062 l 1,0,1
540.741210938 1336.59960938 m 1,54,55
 485.241210938 1297.75878906 485.241210938 1297.75878906 401.341796875 1200.48046875 c 0,56,57
 226.052734375 998.0546875 226.052734375 998.0546875 171.741210938 751.120117188 c 0,58,59
 146.872070312 637.219726562 146.872070312 637.219726562 150.421875 565.799804688 c 1,60,61
 166.783203125 350.447265625 166.783203125 350.447265625 307.861328125 123 c 1,62,63
 372.100585938 25.58984375 372.100585938 25.58984375 419.381835938 -29.51953125 c 0,64,65
 423.778320312 -34.7958984375 423.778320312 -34.7958984375 432.665039062 -46.4130859375 c 0,66,67
 458.668945312 -79.3671875 458.668945312 -79.3671875 473.501953125 -90.2001953125 c 1,66,67
 463.104492188 -74.1318359375 463.104492188 -74.1318359375 438.977539062 -43.001953125 c 0,68,69
 420.818359375 -19.4296875 420.818359375 -19.4296875 412.821289062 -8.2001953125 c 0,68,69
 341.702148438 97.779296875 341.702148438 97.779296875 298.021484375 198.440429688 c 0,70,71
 165.3046875 510.124023438 165.3046875 510.124023438 254.09765625 837.8359375 c 0,72,73
 275.936523438 917.328125 275.936523438 917.328125 309.501953125 990.559570312 c 0,72,73
 365.959960938 1109.61132812 365.959960938 1109.61132812 455.461914062 1228.36035156 c 0,74,75
 465.639648438 1241.53125 465.639648438 1241.53125 487.323242188 1267.45703125 c 0,76,77
 525.340820312 1313.27832031 525.340820312 1313.27832031 540.741210938 1336.59960938 c 1,54,55
EndSplineSet
EndChar

StartChar: parenright
Encoding: 41 41 12
Width: 868
VWidth: 1639
GlyphClass: 2
Flags: W
LayerCount: 2
Fore
SplineSet
100.379882812 -178.759765625 m 1,0,1
 118.916015625 -165.1328125 118.916015625 -165.1328125 156.139648438 -116.440429688 c 1,2,3
 221.779296875 -39.1162109375 221.779296875 -39.1162109375 262.739257812 18.0400390625 c 0,4,5
 412.522460938 227.9765625 412.522460938 227.9765625 454.619140625 447.719726562 c 1,6,7
 470.87109375 547.166015625 470.87109375 547.166015625 469.379882812 600.240234375 c 0,8,9
 462.133789062 769.331054688 462.133789062 769.331054688 374.259765625 959.400390625 c 1,10,11
 308.008789062 1098.78613281 308.008789062 1098.78613281 161.059570312 1275.91992188 c 0,12,13
 119.807617188 1326.51660156 119.807617188 1326.51660156 118.419921875 1328.40039062 c 0,14,15
 102.8828125 1345.16308594 102.8828125 1345.16308594 100.379882812 1353 c 0,16,17
 99.6201171875 1356.85644531 99.6201171875 1356.85644531 100.379882812 1390.71972656 c 0,18,19
 101.2578125 1413.70898438 101.2578125 1413.70898438 102.01953125 1415.3203125 c 0,20,21
 106.719726562 1427.0703125 106.719726562 1427.0703125 130.696289062 1426.53125 c 0,22,23
 135.150390625 1426.43164062 135.150390625 1426.43164062 138.099609375 1426.79980469 c 0,22,23
 184.522460938 1431.95800781 184.522460938 1431.95800781 236.775390625 1388.08496094 c 0,24,25
 239.83984375 1385.49804688 239.83984375 1385.49804688 241.419921875 1384.16015625 c 0,24,25
 409.142578125 1240.49414062 409.142578125 1240.49414062 512.01953125 1059.44042969 c 0,26,27
 543.794921875 1003.65820312 543.794921875 1003.65820312 585.819335938 890.51953125 c 1,28,29
 683.348632812 648.776367188 683.348632812 648.776367188 664.5390625 449.360351562 c 1,30,31
 644.766601562 259.192382812 644.766601562 259.192382812 533.33984375 75.4404296875 c 0,32,33
 430.38671875 -96.0087890625 430.38671875 -96.0087890625 297.1796875 -229.599609375 c 0,34,35
 244.248046875 -282.53125 244.248046875 -282.53125 232.466796875 -290.493164062 c 0,36,37
 228.741210938 -293.010742188 228.741210938 -293.010742188 225.01953125 -295.200195312 c 0,36,37
 202.46484375 -309.296875 202.46484375 -309.296875 188.696289062 -290.828125 c 0,38,39
 186.630859375 -287.337890625 186.630859375 -287.337890625 185.659179688 -285.360351562 c 0,38,39
 183.671875 -281.206054688 183.671875 -281.206054688 180.739257812 -267.3203125 c 1,40,-1
 208.619140625 -239.440429688 l 2,41,42
 205.76171875 -241.154296875 205.76171875 -241.154296875 199.977539062 -245.431640625 c 0,43,44
 188.791015625 -253.703125 188.791015625 -253.703125 182.379882812 -255.83984375 c 0,43,44
 174.51171875 -257.553710938 174.51171875 -257.553710938 139.739257812 -255.83984375 c 0,45,46
 115.227539062 -254.318359375 115.227539062 -254.318359375 110.219726562 -249.280273438 c 0,47,48
 106.939453125 -247.639648438 106.939453125 -247.639648438 105.299804688 -243.540039062 c 0,49,50
 103.659179688 -239.440429688 103.659179688 -239.440429688 102.83984375 -237.799804688 c 0,51,52
 102.01953125 -236.16015625 102.01953125 -236.16015625 101.19921875 -230.419921875 c 2,53,-1
 100.379882812 -224.6796875 l 1,49,-1
 105.299804688 -223.040039062 l 1,50,-1
 100.379882812 -201.719726562 l 1,51,-1
 105.299804688 -200.080078125 l 1,52,-1
 100.379882812 -178.759765625 l 1,0,1
197.139648438 1336.59960938 m 1,53,54
 199.239257812 1329.34765625 199.239257812 1329.34765625 221.739257812 1303.79980469 c 0,55,56
 231.579101562 1290.6796875 231.579101562 1290.6796875 252.079101562 1265.25976562 c 0,57,58
 272.965820312 1239.24902344 272.965820312 1239.24902344 282.419921875 1226.71972656 c 0,57,58
 373.181640625 1104.20410156 373.181640625 1104.20410156 431.659179688 980.719726562 c 1,59,60
 568.758789062 681.418945312 568.758789062 681.418945312 487.090820312 348.658203125 c 0,61,62
 464.904296875 259.547851562 464.904296875 259.547851562 428.379882812 177.120117188 c 0,61,62
 386.345703125 83.9931640625 386.345703125 83.9931640625 326.69921875 -3.2802734375 c 0,63,64
 316.859375 -18.0400390625 316.859375 -18.0400390625 295.5390625 -45.919921875 c 0,65,66
 273.900390625 -74.4267578125 273.900390625 -74.4267578125 264.379882812 -88.5595703125 c 1,65,66
 278.604492188 -77.3076171875 278.604492188 -77.3076171875 318.5 -27.8798828125 c 0,67,68
 381.708984375 47.9375 381.708984375 47.9375 433.299804688 131.200195312 c 0,69,70
 549.052734375 318.807617188 549.052734375 318.807617188 577.619140625 485.440429688 c 0,71,72
 622.645507812 757.397460938 622.645507812 757.397460938 444.500976562 1050.68164062 c 0,73,74
 401.840820312 1120.39160156 401.840820312 1120.39160156 351.299804688 1182.44042969 c 1,73,74
 296.58203125 1246.13769531 296.58203125 1246.13769531 197.139648438 1336.59960938 c 1,53,54
EndSplineSet
EndChar

StartChar: plus
Encoding: 43 43 14
Width: 990
VWidth: 1639
GlyphClass: 2
Flags: W
LayerCount: 2
Fore
SplineSet
403.240234375 928.240234375 m 1,0,-1
 554.120117188 928.240234375 l 1,1,-1
 554.120117188 839.6796875 l 1,2,-1
 588.559570312 839.6796875 l 1,3,-1
 588.559570312 533 l 1,4,-1
 947.719726562 533 l 1,5,-1
 947.719726562 444.440429688 l 1,6,-1
 982.16015625 444.440429688 l 1,7,-1
 982.16015625 341.120117188 l 1,8,-1
 588.559570312 341.120117188 l 1,9,-1
 588.559570312 -54.1201171875 l 1,10,-1
 483.599609375 -54.1201171875 l 1,11,-1
 483.599609375 -11.48046875 l 1,12,-1
 403.240234375 -11.48046875 l 1,13,-1
 403.240234375 341.120117188 l 1,14,-1
 88.3603515625 341.120117188 l 1,15,-1
 88.3603515625 383.759765625 l 1,16,-1
 8 383.759765625 l 1,17,-1
 8 533 l 1,18,-1
 403.240234375 533 l 1,19,-1
 403.240234375 928.240234375 l 1,0,-1
508.200195312 882.3203125 m 1,20,-1
 449.16015625 882.3203125 l 1,21,-1
 449.16015625 487.080078125 l 1,22,-1
 53.919921875 487.080078125 l 1,23,-1
 53.919921875 429.6796875 l 1,24,-1
 449.16015625 429.6796875 l 1,25,-1
 449.16015625 34.4404296875 l 1,26,-1
 508.200195312 34.4404296875 l 1,27,-1
 508.200195312 429.6796875 l 1,28,-1
 901.799804688 429.6796875 l 1,29,-1
 901.799804688 487.080078125 l 1,30,-1
 508.200195312 487.080078125 l 1,31,-1
 508.200195312 882.3203125 l 1,20,-1
EndSplineSet
EndChar

StartChar: hyphen
Encoding: 45 45 16
AltUni2: 002212.ffffffff.0 0000ad.ffffffff.0
Width: 1214
VWidth: 1639
GlyphClass: 2
Flags: W
LayerCount: 2
Fore
SplineSet
120 533 m 1,0,-1
 1059.71972656 533 l 1,1,-1
 1059.71972656 444.440429688 l 1,2,-1
 1094.15917969 444.440429688 l 1,3,-1
 1094.15917969 341.120117188 l 1,4,-1
 200.359375 341.120117188 l 1,5,-1
 200.359375 383.759765625 l 1,6,-1
 120 383.759765625 l 1,7,-1
 120 533 l 1,0,-1
1013.79980469 487.080078125 m 1,8,-1
 165.919921875 487.080078125 l 1,9,-1
 165.919921875 429.6796875 l 1,10,-1
 1013.79980469 429.6796875 l 1,11,-1
 1013.79980469 487.080078125 l 1,8,-1
EndSplineSet
EndChar

StartChar: period
Encoding: 46 46 17
Width: 578
VWidth: 1639
GlyphClass: 2
Flags: W
LayerCount: 2
Fore
SplineSet
191.844726562 175.48046875 m 1,0,1
 297.872070312 186.405273438 297.872070312 186.405273438 332.884765625 119.719726562 c 0,2,3
 335.112304688 115.635742188 335.112304688 115.635742188 340.377929688 77.865234375 c 0,4,5
 342.106445312 69.119140625 342.106445312 69.119140625 344.364257812 63.9599609375 c 0,4,5
 347.864257812 56.259765625 347.864257812 56.259765625 357.815429688 43.2978515625 c 0,6,7
 370.830078125 25.1083984375 370.830078125 25.1083984375 373.884765625 14.759765625 c 0,6,7
 389.676757812 -43.1455078125 389.676757812 -43.1455078125 344.364257812 -84.7333984375 c 0,8,9
 321.967773438 -103.833007812 321.967773438 -103.833007812 295.165039062 -108.240234375 c 1,8,9
 250.196289062 -112.6328125 250.196289062 -112.6328125 219.724609375 -90.2001953125 c 0,10,11
 216.46484375 -87.591796875 216.46484375 -87.591796875 210.4140625 -80.765625 c 0,12,13
 200.200195312 -70.31640625 200.200195312 -70.31640625 195.125 -67.240234375 c 0,12,13
 190.439453125 -64.4287109375 190.439453125 -64.4287109375 176.783203125 -63.08984375 c 0,14,15
 166.235351562 -61.7548828125 166.235351562 -61.7548828125 162.32421875 -60.6796875 c 0,14,15
 124.986328125 -44.0009765625 124.986328125 -44.0009765625 106.564453125 -6.5595703125 c 0,16,17
 99.8291015625 9.9521484375 99.8291015625 9.9521484375 100.004882812 50.83984375 c 0,18,19
 100.434570312 93.6083984375 100.434570312 93.6083984375 103.28515625 104.959960938 c 0,20,21
 124.192382812 163.580078125 124.192382812 163.580078125 191.844726562 175.48046875 c 1,0,1
219.724609375 126.280273438 m 0,22,23
 183.146484375 122.4296875 183.146484375 122.4296875 158.475585938 82.6103515625 c 0,24,25
 149.115234375 65.837890625 149.115234375 65.837890625 149.205078125 52.48046875 c 0,24,25
 151.0546875 19.17578125 151.0546875 19.17578125 190.38671875 -7.0458984375 c 0,26,27
 208.638671875 -18.1181640625 208.638671875 -18.1181640625 223.004882812 -18.0400390625 c 0,26,27
 257.501953125 -14.20703125 257.501953125 -14.20703125 282.762695312 23.705078125 c 0,28,29
 293.524414062 39.8564453125 293.524414062 39.8564453125 293.524414062 54.1201171875 c 0,28,29
 293.524414062 85.5712890625 293.524414062 85.5712890625 254.8828125 113.340820312 c 0,30,31
 235.166992188 126.345703125 235.166992188 126.345703125 219.724609375 126.280273438 c 0,22,23
EndSplineSet
EndChar

StartChar: slash
Encoding: 47 47 18
Width: 593
VWidth: 1639
GlyphClass: 2
Flags: W
LayerCount: 2
Fore
SplineSet
7.919921875 -52.48046875 m 0,0,1
 2.060546875 -48.1044921875 2.060546875 -48.1044921875 6.2802734375 -34.4404296875 c 0,2,3
 8.740234375 -26.240234375 8.740234375 -26.240234375 14.48046875 -10.66015625 c 0,4,5
 20.3388671875 5.5361328125 20.3388671875 5.5361328125 22.6796875 13.1201171875 c 0,4,5
 60.462890625 112.540039062 60.462890625 112.540039062 96.48046875 223.040039062 c 0,6,7
 105.206054688 249.049804688 105.206054688 249.049804688 344.172851562 924.984375 c 0,8,9
 354.649414062 954.630859375 354.649414062 954.630859375 363.799804688 980.719726562 c 0,8,9
 374.459960938 1009.41992188 374.459960938 1009.41992188 394.959960938 1067.63964844 c 0,10,11
 415.676757812 1126.38671875 415.676757812 1126.38671875 426.120117188 1154.55957031 c 2,10,-1
 439.240234375 1195.55957031 l 2,11,12
 444.345703125 1206.6171875 444.345703125 1206.6171875 447.440429688 1208.6796875 c 1,13,14
 450.719726562 1208.6796875 450.719726562 1208.6796875 454 1208.6796875 c 0,15,16
 457.280273438 1208.6796875 457.280273438 1208.6796875 462.200195312 1206.21972656 c 2,17,-1
 467.120117188 1203.75976562 l 1,15,16
 469.383789062 1210.54980469 469.383789062 1210.54980469 486.3984375 1204.79296875 c 0,17,18
 488.541015625 1204.06738281 488.541015625 1204.06738281 490.080078125 1203.75976562 c 0,17,18
 495.265625 1210.83886719 495.265625 1210.83886719 506.48046875 1205.40039062 c 0,19,20
 536.385742188 1195.18847656 536.385742188 1195.18847656 549.120117188 1189 c 1,21,-1
 542.560546875 1169.3203125 l 1,22,-1
 549.120117188 1166.04003906 l 1,23,-1
 542.560546875 1146.36035156 l 1,24,-1
 549.120117188 1143.08007812 l 1,25,-1
 540.919921875 1116.83984375 l 1,26,-1
 583.560546875 1100.44042969 l 1,27,28
 579.90234375 1084.68066406 579.90234375 1084.68066406 544.200195312 987.280273438 c 0,29,30
 533.540039062 957.759765625 533.540039062 957.759765625 513.040039062 897.900390625 c 0,31,32
 492.330078125 837.512695312 492.330078125 837.512695312 481.879882812 808.51953125 c 0,31,32
 344.861328125 427.828125 344.861328125 427.828125 263.759765625 190.240234375 c 0,33,34
 204.471679688 15.880859375 204.471679688 15.880859375 171.919921875 -68.8798828125 c 0,35,36
 168.639648438 -79.5400390625 168.639648438 -79.5400390625 161.259765625 -100.860351562 c 0,37,38
 153.750976562 -122.7265625 153.750976562 -122.7265625 150.600585938 -132.83984375 c 0,37,38
 139.477539062 -158.727539062 139.477539062 -158.727539062 139.120117188 -159.080078125 c 0,39,40
 134.200195312 -164 134.200195312 -164 114.693359375 -153.438476562 c 2,41,-1
 112.879882812 -152.51953125 l 2,41,42
 110.971679688 -151.565429688 110.971679688 -151.565429688 104.252929688 -149.53515625 c 0,43,44
 85.79296875 -142.76953125 85.79296875 -142.76953125 83.3603515625 -137.759765625 c 1,43,44
 81.95703125 -128.09765625 81.95703125 -128.09765625 89.919921875 -114.799804688 c 1,45,-1
 83.3603515625 -113.16015625 l 1,46,47
 81.0966796875 -119.950195312 81.0966796875 -119.950195312 64.08203125 -114.192382812 c 0,48,49
 61.3349609375 -113.418945312 61.3349609375 -113.418945312 60.400390625 -113.16015625 c 0,48,49
 56.4599609375 -121.244140625 56.4599609375 -121.244140625 30.8798828125 -109.879882812 c 0,50,51
 29.060546875 -108.970703125 29.060546875 -108.970703125 23.0595703125 -106.772460938 c 0,52,53
 5.4306640625 -99.3447265625 5.4306640625 -99.3447265625 3 -95.1201171875 c 0,52,53
 3 -91.83984375 3 -91.83984375 3 -88.5595703125 c 0,54,55
 3 -85.2802734375 3 -85.2802734375 5.4599609375 -80.3603515625 c 2,56,-1
 7.919921875 -75.4404296875 l 1,54,55
 1.1298828125 -73.1767578125 1.1298828125 -73.1767578125 6.8876953125 -56.162109375 c 0,56,57
 7.6611328125 -53.4140625 7.6611328125 -53.4140625 7.919921875 -52.48046875 c 0,0,1
488.440429688 1149.63964844 m 1,56,-1
 485.16015625 1149.63964844 l 1,57,-1
 445.799804688 1038.12011719 l 1,58,-1
 357.240234375 783.919921875 l 1,59,-1
 170.280273438 255.83984375 l 1,60,-1
 60.400390625 -57.400390625 l 1,61,62
 66.046875 -53.6455078125 66.046875 -53.6455078125 71.8798828125 -39.3603515625 c 0,63,64
 75.8525390625 -25.361328125 75.8525390625 -25.361328125 89.919921875 13.1201171875 c 0,65,66
 163.719726562 224.6796875 163.719726562 224.6796875 163.719726562 224.6796875 c 1,67,68
 226.3515625 390.991210938 226.3515625 390.991210938 390.040039062 867.559570312 c 0,69,70
 432.874023438 989.427734375 432.874023438 989.427734375 454 1047.95996094 c 0,71,72
 457.166992188 1056.5546875 457.166992188 1056.5546875 464.85546875 1075.00195312 c 0,73,74
 486.064453125 1125.88769531 486.064453125 1125.88769531 488.440429688 1149.63964844 c 1,56,-1
EndSplineSet
EndChar

StartChar: colon
Encoding: 58 58 29
Width: 577
VWidth: 1639
GlyphClass: 2
Flags: W
LayerCount: 2
Fore
SplineSet
183.64453125 839.6796875 m 1,0,1
 298.141601562 851.625 298.141601562 851.625 332.884765625 785.559570312 c 0,2,3
 336.974609375 776.561523438 336.974609375 776.561523438 337.801757812 757.1328125 c 0,4,5
 339.267578125 737.662109375 339.267578125 737.662109375 342.724609375 729.799804688 c 0,4,5
 346.2734375 721.9921875 346.2734375 721.9921875 356.384765625 709.521484375 c 0,6,7
 369.216796875 692.384765625 369.216796875 692.384765625 372.244140625 682.240234375 c 0,6,7
 389.944335938 618.521484375 389.944335938 618.521484375 339.348632812 577.631835938 c 0,8,9
 316.998046875 560.770507812 316.998046875 560.770507812 290.244140625 555.959960938 c 1,8,9
 250.994140625 551.903320312 250.994140625 551.903320312 218.084960938 575.639648438 c 0,10,11
 214.559570312 578.459960938 214.559570312 578.459960938 208.159179688 585.266601562 c 0,12,13
 199.102539062 594.176757812 199.102539062 594.176757812 195.125 596.959960938 c 0,12,13
 190.422851562 599.78125 190.422851562 599.78125 177.7109375 601.1171875 c 0,14,15
 167.778320312 602.46484375 167.778320312 602.46484375 163.96484375 603.51953125 c 0,14,15
 125.29296875 618.170898438 125.29296875 618.170898438 106.564453125 656 c 1,16,17
 99.8427734375 673.865234375 99.8427734375 673.865234375 100.004882812 716.6796875 c 0,18,19
 100.421875 761.008789062 100.421875 761.008789062 103.284179688 772.440429688 c 0,20,21
 122.821289062 827.3359375 122.821289062 827.3359375 183.64453125 839.6796875 c 1,0,1
221.364257812 790.48046875 m 0,22,23
 187.602539062 790.48046875 187.602539062 790.48046875 160.756835938 751.604492188 c 0,24,25
 149.125 733.1171875 149.125 733.1171875 149.204101562 718.3203125 c 0,24,25
 149.204101562 683.442382812 149.204101562 683.442382812 190.529296875 658.001953125 c 0,26,27
 206.5703125 648.994140625 206.5703125 648.994140625 219.724609375 647.799804688 c 0,26,27
 254.717773438 647.799804688 254.717773438 647.799804688 282.046875 688.288085938 c 0,28,29
 292.252929688 704.830078125 292.252929688 704.830078125 293.524414062 718.3203125 c 0,28,29
 293.524414062 753.016601562 293.524414062 753.016601562 252.458984375 779.665039062 c 0,30,31
 235.19140625 789.881835938 235.19140625 789.881835938 221.364257812 790.48046875 c 0,22,23
191.844726562 175.48046875 m 1,30,31
 297.629882812 186.7734375 297.629882812 186.7734375 332.884765625 119.719726562 c 0,32,33
 336.974609375 110.720703125 336.974609375 110.720703125 337.801757812 91.29296875 c 0,34,35
 339.267578125 71.822265625 339.267578125 71.822265625 342.724609375 63.9599609375 c 0,34,35
 346.2734375 56.15234375 346.2734375 56.15234375 356.384765625 43.681640625 c 0,36,37
 369.216796875 26.544921875 369.216796875 26.544921875 372.244140625 16.400390625 c 0,36,37
 389.500976562 -40.544921875 389.500976562 -40.544921875 345.341796875 -83.3173828125 c 0,38,39
 322.693359375 -103.692382812 322.693359375 -103.692382812 295.1640625 -108.240234375 c 1,38,39
 250.196289062 -112.6328125 250.196289062 -112.6328125 219.724609375 -90.2001953125 c 0,40,41
 216.46484375 -87.591796875 216.46484375 -87.591796875 210.4140625 -80.765625 c 0,42,43
 200.200195312 -70.31640625 200.200195312 -70.31640625 195.125 -67.240234375 c 0,42,43
 190.489257812 -64.458984375 190.489257812 -64.458984375 178.280273438 -63.111328125 c 0,44,45
 169.169921875 -62.1064453125 169.169921875 -62.1064453125 165.604492188 -60.6796875 c 0,44,45
 125.447265625 -46.3984375 125.447265625 -46.3984375 106.564453125 -8.2001953125 c 0,46,47
 99.8271484375 8.2734375 99.8271484375 8.2734375 100.004882812 50.83984375 c 0,48,49
 100.306640625 94.24609375 100.306640625 94.24609375 101.64453125 101.6796875 c 0,50,51
 120.4609375 163.330078125 120.4609375 163.330078125 191.844726562 175.48046875 c 1,30,31
218.084960938 126.280273438 m 1,52,53
 181.614257812 120.202148438 181.614257812 120.202148438 158.243164062 82.0966796875 c 0,54,55
 149.745117188 66.67578125 149.745117188 66.67578125 149.204101562 54.1201171875 c 0,54,55
 147.462890625 22.7724609375 147.462890625 22.7724609375 187.4453125 -4.662109375 c 0,56,57
 207.515625 -17.251953125 207.515625 -17.251953125 223.004882812 -16.400390625 c 0,56,57
 256.586914062 -14.5341796875 256.586914062 -14.5341796875 282.296875 23.0703125 c 0,58,59
 293.524414062 39.4912109375 293.524414062 39.4912109375 293.524414062 54.1201171875 c 0,58,59
 293.524414062 85 293.524414062 85 255.110351562 113.068359375 c 0,60,61
 234.147460938 127.137695312 234.147460938 127.137695312 218.084960938 126.280273438 c 1,52,53
EndSplineSet
EndChar

StartChar: equal
Encoding: 61 61 32
Width: 989
VWidth: 1639
GlyphClass: 2
Flags: W
LayerCount: 2
Fore
SplineSet
8 682.240234375 m 1,0,-1
 946.080078125 682.240234375 l 1,1,-1
 946.080078125 593.6796875 l 1,2,-1
 980.51953125 593.6796875 l 1,3,-1
 980.51953125 490.360351562 l 1,4,-1
 88.359375 490.360351562 l 1,5,-1
 88.359375 533 l 1,6,-1
 8 533 l 1,7,-1
 8 682.240234375 l 1,0,-1
900.159179688 636.3203125 m 1,8,-1
 53.919921875 636.3203125 l 1,9,-1
 53.919921875 578.919921875 l 1,10,-1
 900.159179688 578.919921875 l 1,11,-1
 900.159179688 636.3203125 l 1,8,-1
8 373.919921875 m 1,12,-1
 946.080078125 373.919921875 l 1,13,-1
 946.080078125 285.360351562 l 1,14,-1
 980.51953125 285.360351562 l 1,15,-1
 980.51953125 180.400390625 l 1,16,-1
 88.359375 180.400390625 l 1,17,-1
 88.359375 223.040039062 l 1,18,-1
 8 223.040039062 l 1,19,-1
 8 373.919921875 l 1,12,-1
900.159179688 328 m 1,20,-1
 53.919921875 328 l 1,21,-1
 53.919921875 268.959960938 l 1,22,-1
 900.159179688 268.959960938 l 1,23,-1
 900.159179688 328 l 1,20,-1
EndSplineSet
EndChar

StartChar: bracketleft
Encoding: 91 91 62
Width: 749
VWidth: 1639
GlyphClass: 2
Flags: W
LayerCount: 2
Fore
SplineSet
100 1372.6796875 m 1,0,-1
 614.959960938 1372.6796875 l 1,1,-1
 614.959960938 1284.12011719 l 1,2,-1
 649.400390625 1284.12011719 l 1,3,-1
 649.400390625 1226.71972656 l 1,4,-1
 306.639648438 1226.71972656 l 1,5,-1
 306.639648438 -237.799804688 l 1,6,-1
 614.959960938 -237.799804688 l 1,7,-1
 614.959960938 -326.360351562 l 1,8,-1
 649.400390625 -326.360351562 l 1,9,-1
 649.400390625 -385.400390625 l 1,10,-1
 180.360351562 -385.400390625 l 1,11,-1
 180.360351562 -342.759765625 l 1,12,-1
 100 -342.759765625 l 1,13,-1
 100 1372.6796875 l 1,0,-1
569.040039062 1326.75976562 m 1,14,-1
 145.919921875 1326.75976562 l 1,15,-1
 145.919921875 -296.83984375 l 1,16,-1
 569.040039062 -296.83984375 l 1,17,-1
 569.040039062 -283.719726562 l 1,18,-1
 226.280273438 -283.719726562 l 1,19,-1
 226.280273438 1315.28027344 l 1,20,-1
 569.040039062 1315.28027344 l 1,21,-1
 569.040039062 1326.75976562 l 1,14,-1
EndSplineSet
EndChar

StartChar: bracketright
Encoding: 93 93 64
Width: 846
VWidth: 1639
GlyphClass: 2
Flags: W
LayerCount: 2
Fore
SplineSet
100 1372.6796875 m 1,0,-1
 611.6796875 1372.6796875 l 1,1,-1
 611.6796875 1284.12011719 l 1,2,-1
 646.119140625 1284.12011719 l 1,3,-1
 646.119140625 -385.400390625 l 1,4,-1
 180.359375 -385.400390625 l 1,5,-1
 180.359375 -342.759765625 l 1,6,-1
 100 -342.759765625 l 1,7,-1
 100 -237.799804688 l 1,8,-1
 441.119140625 -237.799804688 l 1,9,-1
 441.119140625 1226.71972656 l 1,10,-1
 180.359375 1226.71972656 l 1,11,-1
 180.359375 1269.36035156 l 1,12,-1
 100 1269.36035156 l 1,13,-1
 100 1372.6796875 l 1,0,-1
565.759765625 1326.75976562 m 1,14,-1
 145.919921875 1326.75976562 l 1,15,-1
 145.919921875 1315.28027344 l 1,16,-1
 487.040039062 1315.28027344 l 1,17,-1
 487.040039062 -283.719726562 l 1,18,-1
 145.919921875 -283.719726562 l 1,19,-1
 145.919921875 -296.83984375 l 1,20,-1
 565.759765625 -296.83984375 l 1,21,-1
 565.759765625 1326.75976562 l 1,14,-1
EndSplineSet
EndChar

StartChar: guillemotleft
Encoding: 171 171 175
Width: 810
VWidth: 1639
GlyphClass: 2
Flags: W
LayerCount: 2
Fore
SplineSet
304.209960938 -41 m 1,0,1
 298.325195312 -59.5263671875 298.325195312 -59.5263671875 268.129882812 -29.51953125 c 1,2,3
 226.510742188 8.2119140625 226.510742188 8.2119140625 191.049804688 62.3203125 c 0,4,5
 109.926757812 186.635742188 109.926757812 186.635742188 100.849609375 388.6796875 c 0,6,7
 91.5263671875 598.159179688 91.5263671875 598.159179688 184.489257812 770.799804688 c 0,8,9
 223.528320312 841.79296875 223.528320312 841.79296875 261.569335938 882.3203125 c 1,10,11
 305.64453125 926.39453125 305.64453125 926.39453125 304.209960938 902 c 1,12,13
 326.430664062 919.77734375 326.430664062 919.77734375 327.254882812 905.426757812 c 0,14,15
 327.193359375 902.888671875 327.193359375 902.888671875 327.169921875 902 c 1,14,15
 345.400390625 912.360351562 345.400390625 912.360351562 348.489257812 911.83984375 c 1,16,17
 350.52734375 908.826171875 350.52734375 908.826171875 348.489257812 895.440429688 c 0,18,19
 348.489257812 890.192382812 348.489257812 890.192382812 349.5390625 879.696289062 c 0,20,21
 351.11328125 863.952148438 351.11328125 863.952148438 350.129882812 856.080078125 c 0,20,21
 348.1484375 849.202148438 348.1484375 849.202148438 330.44921875 815.080078125 c 0,22,23
 296.05859375 741.323242188 296.05859375 741.323242188 292.729492188 729.799804688 c 1,24,-1
 294.369140625 729.799804688 l 1,25,26
 311.309570312 765.98046875 311.309570312 765.98046875 355.049804688 806.879882812 c 0,27,28
 376.596679688 825.989257812 376.596679688 825.989257812 382.9296875 821.639648438 c 0,29,30
 387.849609375 816.719726562 387.849609375 816.719726562 382.21484375 804.499023438 c 2,31,-1
 381.290039062 801.959960938 l 2,31,32
 376.0234375 790.716796875 376.0234375 790.716796875 353.409179688 749.48046875 c 1,33,34
 302.575195312 644.221679688 302.575195312 644.221679688 284.529296875 524.799804688 c 0,35,36
 248.327148438 271.711914062 248.327148438 271.711914062 315.689453125 77.080078125 c 0,37,38
 319.790039062 66.419921875 319.790039062 66.419921875 331.26953125 45.919921875 c 0,39,40
 342.806640625 24.8193359375 342.806640625 24.8193359375 346.849609375 14.759765625 c 0,39,40
 349.53125 10.291015625 349.53125 10.291015625 349.045898438 2.2841796875 c 0,41,42
 349.283203125 -5.1357421875 349.283203125 -5.1357421875 350.129882812 -8.2001953125 c 0,41,42
 352.294921875 -19.853515625 352.294921875 -19.853515625 366.529296875 -44.2802734375 c 0,43,44
 367.651367188 -46.5234375 367.651367188 -46.5234375 371.69140625 -52.962890625 c 0,45,46
 389.259765625 -80.9638671875 389.259765625 -80.9638671875 382.9296875 -88.5595703125 c 0,45,46
 378.009765625 -95.1201171875 378.009765625 -95.1201171875 362.350585938 -84.13671875 c 0,47,48
 355.049804688 -78.7197265625 355.049804688 -78.7197265625 343.774414062 -67.4453125 c 0,49,50
 332.275390625 -56.384765625 332.275390625 -56.384765625 327.169921875 -52.48046875 c 0,49,50
 324.28125 -50.3134765625 324.28125 -50.3134765625 317.15625 -47.8623046875 c 0,51,52
 307.626953125 -43.7802734375 307.626953125 -43.7802734375 304.209960938 -41 c 1,0,1
528.889648438 -41 m 1,51,52
 523.004882812 -59.5263671875 523.004882812 -59.5263671875 492.809570312 -29.51953125 c 0,53,54
 444.5546875 19.353515625 444.5546875 19.353515625 417.369140625 60.6796875 c 0,55,56
 334.276367188 192.259765625 334.276367188 192.259765625 325.529296875 391.959960938 c 1,57,58
 318.420898438 605.19921875 318.420898438 605.19921875 409.169921875 769.16015625 c 0,59,60
 450.2265625 843.89453125 450.2265625 843.89453125 486.25 882.3203125 c 0,61,62
 504.588867188 903.186523438 504.588867188 903.186523438 515.76953125 910.200195312 c 0,63,64
 528.661132812 917.934570312 528.661132812 917.934570312 529.1328125 905.37890625 c 0,65,66
 528.954101562 902.864257812 528.954101562 902.864257812 528.889648438 902 c 1,65,66
 547.388671875 920.499023438 547.388671875 920.499023438 551.438476562 908.024414062 c 0,67,68
 551.873046875 904.392578125 551.873046875 904.392578125 551.849609375 902 c 1,67,68
 570.201171875 912.198242188 570.201171875 912.198242188 573.169921875 910.200195312 c 0,69,70
 575.194335938 907.047851562 575.194335938 907.047851562 573.169921875 895.440429688 c 0,71,72
 573.169921875 890.948242188 573.169921875 890.948242188 574.184570312 880.8515625 c 0,73,74
 575.807617188 864.708007812 575.807617188 864.708007812 574.809570312 857.719726562 c 0,73,74
 572.88671875 845.817382812 572.88671875 845.817382812 553.489257812 811.799804688 c 1,75,76
 529.158203125 762.65234375 529.158203125 762.65234375 517.409179688 729.799804688 c 1,77,-1
 519.049804688 729.799804688 l 1,78,79
 533.625 760.760742188 533.625 760.760742188 579.729492188 806.879882812 c 1,80,81
 601.276367188 825.989257812 601.276367188 825.989257812 607.609375 821.639648438 c 0,82,83
 612.529296875 818.360351562 612.529296875 818.360351562 606.678710938 803.987304688 c 2,84,-1
 605.969726562 801.959960938 l 2,84,85
 600.703125 790.716796875 600.703125 790.716796875 578.08984375 749.48046875 c 1,86,87
 527.255859375 644.221679688 527.255859375 644.221679688 509.209960938 524.799804688 c 0,88,89
 471.475585938 267.014648438 471.475585938 267.014648438 540.369140625 78.7197265625 c 0,90,91
 545.209960938 65.16796875 545.209960938 65.16796875 559.384765625 40.48046875 c 0,92,93
 569.137695312 23.49609375 569.137695312 23.49609375 573.169921875 14.759765625 c 0,92,93
 573.875 11.2353515625 573.875 11.2353515625 573.46875 4.833984375 c 0,94,95
 573.614257812 -4.2216796875 573.614257812 -4.2216796875 574.809570312 -8.2001953125 c 0,94,95
 576.66015625 -17.51171875 576.66015625 -17.51171875 589.569335938 -42.6396484375 c 0,96,97
 590.732421875 -44.9658203125 590.732421875 -44.9658203125 595.201171875 -51.9345703125 c 0,98,99
 612.157226562 -80.5927734375 612.157226562 -80.5927734375 607.609375 -88.5595703125 c 0,98,99
 602.689453125 -95.1201171875 602.689453125 -95.1201171875 587.030273438 -84.13671875 c 0,100,101
 579.729492188 -79.5400390625 579.729492188 -79.5400390625 569.069335938 -68.0595703125 c 0,102,103
 557.583007812 -56.458984375 557.583007812 -56.458984375 551.849609375 -52.48046875 c 0,102,103
 548.9609375 -50.3134765625 548.9609375 -50.3134765625 541.836914062 -47.8623046875 c 0,104,105
 532.307617188 -43.7802734375 532.307617188 -43.7802734375 528.889648438 -41 c 1,51,52
292.729492188 728.16015625 m 1,104,-1
 291.08984375 728.16015625 l 1,105,-1
 292.729492188 728.16015625 l 1,104,-1
517.409179688 728.16015625 m 1,106,-1
 515.76953125 728.16015625 l 1,107,-1
 517.409179688 728.16015625 l 1,106,-1
225.489257812 711.759765625 m 1,108,-1
 223.849609375 710.120117188 l 1,109,-1
 225.489257812 711.759765625 l 1,108,-1
450.169921875 711.759765625 m 1,110,111
 447.33203125 707.7890625 447.33203125 707.7890625 428.849609375 669.120117188 c 1,112,113
 407.266601562 616.169921875 407.266601562 616.169921875 397.689453125 582.200195312 c 0,114,115
 345.314453125 396.54296875 345.314453125 396.54296875 409.169921875 218.120117188 c 0,116,117
 418.174804688 191.018554688 418.174804688 191.018554688 463.290039062 104.959960938 c 1,118,-1
 464.9296875 104.959960938 l 1,119,120
 460.454101562 124.78125 460.454101562 124.78125 450.036132812 163.318359375 c 0,121,122
 433.869140625 223.784179688 433.869140625 223.784179688 428.849609375 254.200195312 c 0,121,122
 397.76171875 480.865234375 397.76171875 480.865234375 450.169921875 711.759765625 c 1,110,111
223.849609375 708.48046875 m 1,123,124
 221.291015625 704.38671875 221.291015625 704.38671875 204.169921875 669.120117188 c 0,125,126
 190.51171875 637.979492188 190.51171875 637.979492188 171.369140625 580.559570312 c 1,127,128
 119.362304688 393.626953125 119.362304688 393.626953125 186.129882812 211.559570312 c 0,129,130
 200.151367188 172.267578125 200.151367188 172.267578125 238.609375 104.959960938 c 1,131,-1
 240.25 104.959960938 l 1,132,133
 236.41015625 120.318359375 236.41015625 120.318359375 227.719726562 150.578125 c 0,134,135
 214.056640625 198.657226562 214.056640625 198.657226562 209.08984375 223.040039062 c 0,134,135
 184.46484375 368.115234375 184.46484375 368.115234375 194.330078125 516.599609375 c 0,136,137
 201.0703125 595.866210938 201.0703125 595.866210938 207.44921875 634.6796875 c 0,138,139
 209.41796875 644.51953125 209.41796875 644.51953125 214.403320312 664.200195312 c 0,140,141
 221.830078125 694.266601562 221.830078125 694.266601562 223.849609375 708.48046875 c 1,123,124
EndSplineSet
EndChar

StartChar: guillemotright
Encoding: 187 187 176
Width: 812
VWidth: 1639
GlyphClass: 2
Flags: W
LayerCount: 2
Fore
SplineSet
104.994140625 890.51953125 m 1,0,1
 93.8916015625 911.138671875 93.8916015625 911.138671875 107.469726562 910.875 c 0,2,3
 115.21875 909.333007812 115.21875 909.333007812 123.034179688 903.639648438 c 1,2,3
 126.5234375 918.825195312 126.5234375 918.825195312 145.994140625 903.639648438 c 1,4,5
 148.571289062 924.38671875 148.571289062 924.38671875 182.07421875 890.51953125 c 0,6,7
 218.146484375 853.700195312 218.146484375 853.700195312 252.59375 793.759765625 c 0,8,9
 271.1640625 762.271484375 271.1640625 762.271484375 321.473632812 637.959960938 c 0,10,11
 372.74609375 510.041992188 372.74609375 510.041992188 382.154296875 428.040039062 c 1,12,13
 404.01953125 192.983398438 404.01953125 192.983398438 296.727539062 23.0068359375 c 0,14,15
 293.015625 17.2099609375 293.015625 17.2099609375 290.313476562 13.1201171875 c 0,14,15
 260.833007812 -29.2734375 260.833007812 -29.2734375 218.154296875 -72.16015625 c 1,16,17
 193.108398438 -90.9443359375 193.108398438 -90.9443359375 191.284179688 -91.3154296875 c 0,18,19
 187.265625 -90.9833984375 187.265625 -90.9833984375 185.353515625 -90.2001953125 c 0,18,19
 183.713867188 -88.5595703125 183.713867188 -88.5595703125 182.893554688 -86.099609375 c 0,20,21
 182.07421875 -83.6396484375 182.07421875 -83.6396484375 182.893554688 -79.5400390625 c 0,22,23
 183.713867188 -75.4404296875 183.713867188 -75.4404296875 184.534179688 -72.98046875 c 0,24,25
 185.353515625 -70.51953125 185.353515625 -70.51953125 187.813476562 -66.419921875 c 2,26,-1
 190.2734375 -62.3203125 l 1,20,21
 222.08984375 1.3115234375 222.08984375 1.3115234375 227.994140625 18.0400390625 c 1,22,-1
 226.353515625 18.0400390625 l 1,23,24
 212.326171875 -6.3916015625 212.326171875 -6.3916015625 172.233398438 -39.3603515625 c 0,25,26
 153.282226562 -54.8759765625 153.282226562 -54.8759765625 147.633789062 -41 c 1,27,28
 128.497070312 -52.4501953125 128.497070312 -52.4501953125 124.673828125 -41 c 1,29,30
 107.237304688 -54.94921875 107.237304688 -54.94921875 102.84375 -42.681640625 c 1,31,32
 102.043945312 -35.1318359375 102.043945312 -35.1318359375 106.633789062 -26.240234375 c 1,31,32
 98.8232421875 -19.642578125 98.8232421875 -19.642578125 106.633789062 -3.2802734375 c 1,33,34
 97.5087890625 4.01171875 97.5087890625 4.01171875 116.473632812 39.3603515625 c 0,35,36
 149.787109375 101.637695312 149.787109375 101.637695312 168.954101562 165.639648438 c 0,37,38
 248.828125 427.727539062 248.828125 427.727539062 172.233398438 687.16015625 c 0,39,40
 156.504882812 742.770507812 156.504882812 742.770507812 114.833984375 823.280273438 c 1,41,42
 99.513671875 860.866210938 99.513671875 860.866210938 104.994140625 867.559570312 c 1,43,44
 98.5634765625 884.694335938 98.5634765625 884.694335938 104.994140625 890.51953125 c 1,0,1
350.994140625 -41 m 1,45,46
 335.25 -51.49609375 335.25 -51.49609375 331.313476562 -47.5595703125 c 0,47,48
 328.39453125 -44.1103515625 328.39453125 -44.1103515625 329.673828125 -29.51953125 c 0,49,50
 329.673828125 -24.6142578125 329.673828125 -24.6142578125 328.791992188 -14.4951171875 c 0,51,52
 327.439453125 9.6875 327.439453125 9.6875 331.313476562 19.6796875 c 0,51,52
 493.334960938 338.436523438 493.334960938 338.436523438 406.75390625 660.919921875 c 0,53,54
 390.16015625 718.654296875 390.16015625 718.654296875 332.954101562 839.6796875 c 0,55,56
 329.673828125 847.879882812 329.673828125 847.879882812 328.034179688 855.259765625 c 0,57,58
 326.393554688 862.639648438 326.393554688 862.639648438 327.213867188 878.219726562 c 2,59,-1
 328.034179688 893.799804688 l 2,57,58
 330.572265625 913.461914062 330.572265625 913.461914062 329.673828125 911.83984375 c 1,59,60
 334.59375 915.120117188 334.59375 915.120117188 346.815429688 905.411132812 c 2,61,-1
 349.353515625 903.639648438 l 1,61,62
 352.56640625 916.361328125 352.56640625 916.361328125 372.313476562 903.639648438 c 1,63,64
 374.934570312 924.333984375 374.934570312 924.333984375 406.75390625 892.16015625 c 0,65,66
 440.20703125 857.995117188 440.20703125 857.995117188 473.994140625 801.959960938 c 0,67,68
 503.216796875 753.637695312 503.216796875 753.637695312 546.154296875 641.240234375 c 0,69,70
 595.969726562 513.946289062 595.969726562 513.946289062 605.194335938 452.639648438 c 0,71,72
 635.3046875 229.3203125 635.3046875 229.3203125 540.211914062 53.814453125 c 0,73,74
 528.59375 32.7421875 528.59375 32.7421875 516.633789062 14.759765625 c 0,73,74
 486.03515625 -32.68359375 486.03515625 -32.68359375 444.473632812 -72.16015625 c 0,75,76
 422.005859375 -94.6279296875 422.005859375 -94.6279296875 411.673828125 -90.2001953125 c 0,77,78
 401.583007812 -85.5380859375 401.583007812 -85.5380859375 414.954101562 -63.9599609375 c 0,79,80
 436.129882812 -25.8681640625 436.129882812 -25.8681640625 454.313476562 18.0400390625 c 1,81,82
 408.15625 -31.7509765625 408.15625 -31.7509765625 398.553710938 -39.3603515625 c 1,83,84
 378.249023438 -51.3740234375 378.249023438 -51.3740234375 373.954101562 -41 c 1,85,86
 353.887695312 -50.2333984375 353.887695312 -50.2333984375 350.994140625 -41 c 1,45,46
451.034179688 716.6796875 m 1,87,-1
 449.393554688 715.040039062 l 1,88,-1
 451.034179688 716.6796875 l 1,87,-1
226.353515625 713.400390625 m 1,89,-1
 224.713867188 711.759765625 l 1,90,-1
 226.353515625 713.400390625 l 1,89,-1
452.673828125 713.400390625 m 1,91,92
 451.209960938 706.079101562 451.209960938 706.079101562 464.461914062 656.6640625 c 0,93,94
 465.383789062 652.905273438 465.383789062 652.905273438 465.793945312 651.080078125 c 0,93,94
 476.736328125 591.009765625 476.736328125 591.009765625 482.194335938 518.240234375 c 0,95,96
 497.407226562 296.579101562 497.407226562 296.579101562 436.2734375 104.959960938 c 1,97,-1
 437.9140625 104.959960938 l 1,98,99
 536.3828125 248.561523438 536.3828125 248.561523438 528.819335938 439.818359375 c 0,100,101
 526.9453125 481.091796875 526.9453125 481.091796875 519.9140625 518.240234375 c 0,100,101
 508.067382812 578.5703125 508.067382812 578.5703125 452.673828125 713.400390625 c 1,91,92
227.994140625 710.120117188 m 1,102,103
 225.688476562 702.435546875 225.688476562 702.435546875 239.40625 651.845703125 c 0,104,105
 240.58203125 647.079101562 240.58203125 647.079101562 241.114257812 644.51953125 c 0,104,105
 252.055664062 575.702148438 252.055664062 575.702148438 257.513671875 492 c 0,106,107
 266.63671875 355.96484375 266.63671875 355.96484375 237.833984375 208.280273438 c 0,108,109
 233.96484375 187.965820312 233.96484375 187.965820312 222.7734375 148.375976562 c 0,110,111
 214.866210938 120.150390625 214.866210938 120.150390625 211.59375 106.599609375 c 1,110,-1
 213.233398438 106.599609375 l 1,111,112
 312.245117188 256.169921875 312.245117188 256.169921875 302.196289062 448.392578125 c 0,113,114
 300.008789062 485.990234375 300.008789062 485.990234375 293.59375 519.879882812 c 0,113,114
 282.96875 579.74609375 282.96875 579.74609375 227.994140625 710.120117188 c 1,102,103
211.59375 104.959960938 m 1,115,-1
 209.954101562 103.3203125 l 1,116,-1
 211.59375 104.959960938 l 1,115,-1
229.633789062 19.6796875 m 1,117,-1
 227.994140625 18.0400390625 l 1,118,-1
 229.633789062 19.6796875 l 1,117,-1
EndSplineSet
EndChar

StartChar: guilsinglleft
Encoding: 8249 8249 195
Width: 566
GlyphClass: 2
Flags: W
LayerCount: 2
Fore
SplineSet
350 70 m 1,0,1
 363 48 363 48 363 35 c 0,2,3
 363 26 363 26 352 26 c 0,4,5
 343 26 343 26 326 33 c 1,6,7
 273 73 273 73 230 128 c 128,-1,8
 187 183 187 183 155 255 c 0,9,10
 126 321 126 321 113.5 385 c 128,-1,11
 101 449 101 449 100 513 c 1,12,13
 100 656 100 656 164 783 c 1,14,15
 231 904 231 904 327 958 c 1,16,17
 354 969 354 969 358 969 c 0,18,19
 366 969 366 969 366 963 c 0,20,21
 366 953 366 953 343 912 c 1,22,23
 224 746 224 746 224 513 c 0,24,25
 224 249 224 249 350 70 c 1,0,1
EndSplineSet
EndChar

StartChar: guilsinglright
Encoding: 8250 8250 196
Width: 569
GlyphClass: 2
Flags: W
LayerCount: 2
Fore
SplineSet
115 70 m 1,0,1
 244 249 244 249 244 513 c 0,2,3
 244 751 244 751 122 913 c 1,4,5
 100 954 100 954 100 963 c 0,6,7
 100 969 100 969 108 969 c 0,8,9
 110 969 110 969 118 966.5 c 128,-1,10
 126 964 126 964 137 958 c 0,11,12
 188 931 188 931 228.5 887 c 128,-1,13
 269 843 269 843 301 783 c 0,14,15
 336 718 336 718 352 650.5 c 128,-1,16
 368 583 368 583 369 513 c 0,17,18
 369 450 369 450 353.5 385 c 128,-1,19
 338 320 338 320 309 255 c 0,20,21
 279 188 279 188 235 130 c 128,-1,22
 191 72 191 72 138 33 c 1,23,24
 124 26 124 26 113 26 c 0,25,26
 101 26 101 26 101 35 c 0,27,28
 101 47 101 47 115 70 c 1,0,1
EndSplineSet
EndChar

StartChar: afii57451
Encoding: 1611 1611 311
AltUni2: 00fe70.ffffffff.0
Width: 52
VWidth: 1639
GlyphClass: 2
Flags: HW
AnchorPoint: "GposMark2BaseAnchorHamzaErabAbove_01_01" 203.14 1431.72 mark 0
AnchorPoint: "GposMark2BaseAnchorHamzaErabBelow_01_01" 203.14 1994.24 mark 0
AnchorPoint: "GposMark2BaseAnchorClassErabAbove_01_02" 203.14 1431.72 mark 0
AnchorPoint: "GposMark2MarkAnchorHamzaErabAbove_01_01" 203.14 1431.72 mark 0
AnchorPoint: "GposMark2MarkAnchorHamzaErabBelow_01_01" 203.14 1994.24 mark 0
AnchorPoint: "GposMark2MarkAnchorShaddaErabAbove_01_02" 203.14 1431.72 mark 0
AnchorPoint: "GposMark2MarkAnchorShaddaErabBelow_01_02" 203.14 1994.24 mark 0
LayerCount: 2
Fore
SplineSet
389.280273438 1994.24023438 m 1,0,-1
 386 1981.12011719 l 1,1,-1
 413.879882812 1994.24023438 l 1,2,-1
 408.959960938 1981.12011719 l 1,3,-1
 436.83984375 1994.24023438 l 1,4,-1
 425.360351562 1966.36035156 l 1,5,-1
 436.83984375 1971.28027344 l 1,6,-1
 425.360351562 1943.40039062 l 1,7,-1
 436.83984375 1948.3203125 l 1,8,-1
 408.959960938 1874.51953125 l 1,9,-1
 471.280273438 1905.6796875 l 1,10,-1
 433.559570312 1808.91992188 l 1,11,-1
 415.51953125 1772.83984375 l 1,12,-1
 423.719726562 1776.12011719 l 1,13,14
 418.76171875 1745.34960938 418.76171875 1745.34960938 395.83984375 1702.3203125 c 1,15,-1
 458.16015625 1733.48046875 l 1,16,-1
 430.280273438 1659.6796875 l 1,17,-1
 417.16015625 1630.16015625 l 1,18,-1
 374.51953125 1607.20019531 l 1,19,-1
 287.599609375 1564.55957031 l 1,20,-1
 15.3603515625 1431.71972656 l 1,21,-1
 44.8798828125 1505.51953125 l 1,22,-1
 -19.080078125 1474.36035156 l 1,23,-1
 -14.16015625 1487.48046875 l 1,24,-1
 -42.0400390625 1474.36035156 l 1,25,-1
 -37.1201171875 1487.48046875 l 1,26,-1
 -65 1474.36035156 l 1,27,-1
 -53.5205078125 1502.24023438 l 1,28,-1
 -65 1497.3203125 l 1,29,-1
 -53.5205078125 1525.20019531 l 1,30,-1
 -65 1520.28027344 l 1,31,32
 -56.1064453125 1544.85449219 -56.1064453125 1544.85449219 -37.1201171875 1589.16015625 c 0,33,34
 -26.5224609375 1614.06640625 -26.5224609375 1614.06640625 -24 1617.04003906 c 0,35,36
 -17.7744140625 1622.87597656 -17.7744140625 1622.87597656 23.8662109375 1642.94042969 c 1,37,38
 48.7041015625 1657.00976562 48.7041015625 1657.00976562 56.3603515625 1676.08007812 c 1,39,-1
 -5.9599609375 1646.55957031 l 1,40,-1
 -2.6796875 1658.04003906 l 1,41,-1
 -28.919921875 1646.55957031 l 1,42,-1
 -25.6396484375 1658.04003906 l 1,43,-1
 -51.8798828125 1646.55957031 l 1,44,-1
 -42.0400390625 1674.44042969 l 1,45,-1
 -51.8798828125 1669.51953125 l 1,46,-1
 -42.0400390625 1697.40039062 l 1,47,-1
 -51.8798828125 1692.48046875 l 1,48,49
 -50.6650390625 1700.98339844 -50.6650390625 1700.98339844 -27.4912109375 1756.74316406 c 0,50,51
 -26.2119140625 1759.91699219 -26.2119140625 1759.91699219 -25.6396484375 1761.36035156 c 0,52,53
 -23.6259765625 1764.71679688 -23.6259765625 1764.71679688 -20.68359375 1773.1171875 c 0,54,55
 -15.7021484375 1785.36328125 -15.7021484375 1785.36328125 -12.5205078125 1789.24023438 c 0,56,57
 -9.9423828125 1791.44921875 -9.9423828125 1791.44921875 22.3232421875 1806.59472656 c 0,58,59
 25.48046875 1808.203125 25.48046875 1808.203125 26.83984375 1808.91992188 c 0,60,61
 42.8408203125 1817.81933594 42.8408203125 1817.81933594 107.200195312 1849.91992188 c 0,62,63
 136.90234375 1865.03222656 136.90234375 1865.03222656 197.376953125 1894.62988281 c 0,64,65
 328.202148438 1958.80566406 328.202148438 1958.80566406 389.280273438 1994.24023438 c 1,0,-1
386 1981.12011719 m 1,66,-1
 384.360351562 1979.48046875 l 1,67,-1
 386 1981.12011719 l 1,66,-1
408.959960938 1981.12011719 m 1,68,-1
 407.3203125 1979.48046875 l 1,69,-1
 408.959960938 1981.12011719 l 1,68,-1
356.479492188 1907.3203125 m 1,70,71
 319.073242188 1891.91699219 319.073242188 1891.91699219 146.469726562 1801.17675781 c 0,72,73
 126.249023438 1790.58789062 126.249023438 1790.58789062 110.479492188 1782.6796875 c 0,74,75
 101.459960938 1778.58007812 101.459960938 1778.58007812 82.599609375 1768.74023438 c 0,76,77
 63.25390625 1758.74707031 63.25390625 1758.74707031 54.7197265625 1754.79980469 c 0,78,79
 31.189453125 1739.41113281 31.189453125 1739.41113281 28.4794921875 1731.83984375 c 1,80,81
 66.65234375 1747.55761719 66.65234375 1747.55761719 266.344726562 1848.29003906 c 0,82,83
 272.137695312 1851.20605469 272.137695312 1851.20605469 276.120117188 1853.20019531 c 0,84,85
 282.139648438 1856.20996094 282.139648438 1856.20996094 296.79296875 1862.20800781 c 0,86,87
 350.283203125 1885.76367188 350.283203125 1885.76367188 356.479492188 1907.3203125 c 1,70,71
408.959960938 1874.51953125 m 1,88,-1
 407.3203125 1872.87988281 l 1,89,-1
 408.959960938 1874.51953125 l 1,88,-1
415.51953125 1772.83984375 m 1,90,-1
 413.879882812 1771.20019531 l 1,91,-1
 415.51953125 1772.83984375 l 1,90,-1
345 1735.12011719 m 1,92,93
 334.77734375 1732.11328125 334.77734375 1732.11328125 272.80859375 1699.13378906 c 0,94,95
 268.639648438 1696.9609375 268.639648438 1696.9609375 266.280273438 1695.75976562 c 0,96,97
 238.400390625 1681.8203125 238.400390625 1681.8203125 181.8203125 1653.12011719 c 0,98,99
 124.713867188 1624.16503906 124.713867188 1624.16503906 97.3603515625 1610.48046875 c 0,100,101
 88.33984375 1606.37988281 88.33984375 1606.37988281 69.4794921875 1596.54003906 c 0,102,103
 50.1337890625 1586.546875 50.1337890625 1586.546875 41.599609375 1582.59960938 c 0,104,105
 20.67578125 1570.30859375 20.67578125 1570.30859375 17 1561.28027344 c 1,106,107
 29.572265625 1565.54589844 29.572265625 1565.54589844 108.83984375 1605.55957031 c 0,108,109
 135.080078125 1618.6796875 135.080078125 1618.6796875 187.559570312 1644.09960938 c 0,110,111
 240.586914062 1669.80957031 240.586914062 1669.80957031 266.280273438 1682.63964844 c 0,112,113
 272.46875 1685.734375 272.46875 1685.734375 287.1484375 1691.67773438 c 0,114,115
 337.76953125 1713.82714844 337.76953125 1713.82714844 345 1735.12011719 c 1,92,93
58 1677.71972656 m 1,116,-1
 56.3603515625 1676.08007812 l 1,117,-1
 58 1677.71972656 l 1,116,-1
EndSplineSet
EndChar

StartChar: afii57452
Encoding: 1612 1612 312
AltUni2: 00fe72.ffffffff.0
Width: 50
VWidth: 1639
GlyphClass: 2
Flags: HW
AnchorPoint: "GposMark2BaseAnchorHamzaErabAbove_01_01" 167.72 1431.01 mark 0
AnchorPoint: "GposMark2BaseAnchorHamzaErabBelow_01_01" 167.72 1986.04 mark 0
AnchorPoint: "GposMark2BaseAnchorClassErabAbove_01_02" 167.72 1431.01 mark 0
AnchorPoint: "GposMark2MarkAnchorHamzaErabAbove_01_01" 167.72 1431.01 mark 0
AnchorPoint: "GposMark2MarkAnchorHamzaErabBelow_01_01" 167.72 1986.04 mark 0
AnchorPoint: "GposMark2MarkAnchorShaddaErabAbove_01_02" 167.72 1431.01 mark 0
AnchorPoint: "GposMark2MarkAnchorShaddaErabBelow_01_02" 167.72 1986.04 mark 0
LayerCount: 2
Fore
SplineSet
133.280273438 1667.87988281 m 1,0,1
 141.525390625 1674.07519531 141.525390625 1674.07519531 143.120117188 1677.71972656 c 0,2,3
 143.120117188 1681.71875 143.120117188 1681.71875 128.956054688 1712.86523438 c 0,4,5
 127.384765625 1716.79785156 127.384765625 1716.79785156 126.719726562 1718.71972656 c 0,6,7
 121.6328125 1736.90136719 121.6328125 1736.90136719 121.799804688 1782.6796875 c 0,8,9
 123.336914062 1865.96191406 123.336914062 1865.96191406 210.360351562 1945.04003906 c 1,10,11
 259.13671875 1985.70898438 259.13671875 1985.70898438 330.080078125 1986.04003906 c 0,12,13
 376.377929688 1984.62890625 376.377929688 1984.62890625 397.3203125 1963.08007812 c 1,14,15
 409.456054688 1945.61816406 409.456054688 1945.61816406 415.360351562 1917.16015625 c 1,16,17
 416.12109375 1892.84765625 416.12109375 1892.84765625 418.639648438 1887.63964844 c 0,18,19
 421.099609375 1883.54003906 421.099609375 1883.54003906 427.66015625 1876.98046875 c 0,20,21
 434.401367188 1869.59179688 434.401367188 1869.59179688 436.6796875 1866.3203125 c 0,22,23
 451.2890625 1840.90429688 451.2890625 1840.90429688 451.440429688 1794.16015625 c 1,24,25
 448.129882812 1739.40722656 448.129882812 1739.40722656 430.120117188 1695.75976562 c 0,26,27
 427.567382812 1690.015625 427.567382812 1690.015625 418.3359375 1677.32714844 c 0,28,29
 403.848632812 1656.10253906 403.848632812 1656.10253906 402.240234375 1646.55957031 c 1,30,31
 402.950195312 1616.85449219 402.950195312 1616.85449219 403.879882812 1615.40039062 c 0,32,33
 407.614257812 1611.66503906 407.614257812 1611.66503906 419.748046875 1608.30566406 c 0,34,35
 433.530273438 1603.2734375 433.530273438 1603.2734375 436.6796875 1599 c 0,36,37
 439.602539062 1591.20214844 439.602539062 1591.20214844 435.040039062 1572.75976562 c 1,38,39
 428.516601562 1526.29296875 428.516601562 1526.29296875 426.83984375 1503.87988281 c 1,40,41
 392.557617188 1506.734375 392.557617188 1506.734375 348.120117188 1535.04003906 c 1,42,43
 314.341796875 1559.16699219 314.341796875 1559.16699219 303.83984375 1558 c 0,44,45
 298.608398438 1556.11523438 298.608398438 1556.11523438 280.879882812 1541.59960938 c 1,46,47
 247.533203125 1518.41601562 247.533203125 1518.41601562 231.6796875 1508.79980469 c 0,48,49
 149.38671875 1459.46289062 149.38671875 1459.46289062 85.7197265625 1443.20019531 c 1,50,51
 47.2587890625 1431.00878906 47.2587890625 1431.00878906 36.51953125 1431.71972656 c 0,52,53
 25.0400390625 1433.36035156 25.0400390625 1433.36035156 2.080078125 1450.58007812 c 2,54,-1
 -20.8798828125 1467.79980469 l 1,55,-1
 -20.8798828125 1471.08007812 l 1,56,-1
 -15.9599609375 1472.71972656 l 1,57,-1
 -15.9599609375 1474.36035156 l 1,58,-1
 -47.1201171875 1476 l 1,59,-1
 -101.240234375 1510.44042969 l 1,60,-1
 -101.240234375 1513.71972656 l 1,61,-1
 -86.48046875 1525.20019531 l 1,62,-1
 -101.240234375 1533.40039062 l 1,63,-1
 -101.240234375 1536.6796875 l 1,64,-1
 -86.48046875 1548.16015625 l 1,65,-1
 -101.240234375 1556.36035156 l 1,66,-1
 -101.240234375 1559.63964844 l 1,67,68
 -45.9462890625 1599.45996094 -45.9462890625 1599.45996094 -35.6396484375 1625.24023438 c 0,69,70
 -34.8349609375 1628.4609375 -34.8349609375 1628.4609375 -35.6181640625 1635.89648438 c 0,71,72
 -36.474609375 1644.02636719 -36.474609375 1644.02636719 -35.6396484375 1648.20019531 c 0,73,74
 -35.099609375 1650.36230469 -35.099609375 1650.36230469 -30.259765625 1656.35449219 c 0,75,76
 -21.7685546875 1669.984375 -21.7685546875 1669.984375 -25.7998046875 1674.44042969 c 1,77,78
 -33.658203125 1677.23144531 -33.658203125 1677.23144531 -68.4404296875 1659.6796875 c 1,79,-1
 -68.4404296875 1669.51953125 l 1,80,-1
 -91.400390625 1659.6796875 l 1,81,-1
 -91.400390625 1669.51953125 l 1,82,-1
 -114.360351562 1659.6796875 l 1,83,84
 -114.360351562 1668.70019531 -114.360351562 1668.70019531 -115.1796875 1687.55957031 c 0,85,86
 -115.956054688 1706.90625 -115.956054688 1706.90625 -116 1715.44042969 c 0,87,88
 -115.407226562 1737.28515625 -115.407226562 1737.28515625 -114.360351562 1740.04003906 c 0,89,90
 -109.440429688 1748.24023438 -109.440429688 1748.24023438 -90.375 1764.48632812 c 2,91,-1
 -88.1201171875 1766.28027344 l 2,92,93
 -44.376953125 1802.06152344 -44.376953125 1802.06152344 20.1201171875 1802.36035156 c 0,94,95
 62.0927734375 1801.38085938 62.0927734375 1801.38085938 75.8798828125 1792.51953125 c 0,96,97
 97.0654296875 1775.90820312 97.0654296875 1775.90820312 100.479492188 1741.6796875 c 1,98,99
 101.225585938 1714.08691406 101.225585938 1714.08691406 102.120117188 1712.16015625 c 0,100,101
 104.180664062 1708.92871094 104.180664062 1708.92871094 118.51953125 1697.40039062 c 1,102,103
 127.758789062 1686.81054688 127.758789062 1686.81054688 133.280273438 1667.87988281 c 1,0,1
333.360351562 1754.79980469 m 1,104,105
 374.243164062 1832.85058594 374.243164062 1832.85058594 369.440429688 1872.87988281 c 1,106,107
 355.165039062 1932.83105469 355.165039062 1932.83105469 320.240234375 1935.20019531 c 0,108,109
 289.3125 1937.26171875 289.3125 1937.26171875 251.616210938 1894.07617188 c 0,110,111
 248.239257812 1889.98339844 248.239257812 1889.98339844 246.440429688 1887.63964844 c 1,112,113
 265.693359375 1894.34863281 265.693359375 1894.34863281 308.759765625 1894.20019531 c 0,114,115
 330.904296875 1892.50488281 330.904296875 1892.50488281 335 1887.63964844 c 0,116,117
 343.443359375 1876.19140625 343.443359375 1876.19140625 343.200195312 1846.63964844 c 0,118,119
 342.850585938 1807.95703125 342.850585938 1807.95703125 331.719726562 1754.79980469 c 1,120,-1
 333.360351562 1754.79980469 l 1,104,105
195.599609375 1828.59960938 m 1,121,122
 153.291015625 1792.43164062 153.291015625 1792.43164062 187.400390625 1728.55957031 c 0,123,124
 189.860351562 1724.87011719 189.860351562 1724.87011719 196.1640625 1717.49023438 c 0,125,126
 206.356445312 1704.64355469 206.356445312 1704.64355469 208.719726562 1699.04003906 c 0,127,128
 209.657226562 1696.22851562 209.657226562 1696.22851562 207.247070312 1690.60546875 c 0,129,130
 205.7421875 1685.84179688 205.7421875 1685.84179688 205.440429688 1684.28027344 c 0,131,132
 205.440429688 1682.07714844 205.440429688 1682.07714844 207.368164062 1679.05566406 c 0,133,134
 209.625976562 1675.51757812 209.625976562 1675.51757812 208.719726562 1672.79980469 c 0,135,136
 208.719726562 1670.33984375 208.719726562 1670.33984375 207.080078125 1667.05957031 c 0,137,138
 205.7265625 1662.79003906 205.7265625 1662.79003906 205.440429688 1661.3203125 c 0,139,140
 205.440429688 1659.1171875 205.440429688 1659.1171875 207.368164062 1656.09570312 c 0,141,142
 209.625976562 1652.55761719 209.625976562 1652.55761719 208.719726562 1649.83984375 c 0,143,144
 207.080078125 1640 207.080078125 1640 178.5234375 1620.40136719 c 2,145,-1
 175.919921875 1618.6796875 l 2,146,147
 168.122070312 1613.71777344 168.122070312 1613.71777344 74.1689453125 1567.85449219 c 0,148,149
 66.4892578125 1564.0546875 66.4892578125 1564.0546875 61.1201171875 1561.28027344 c 1,150,-1
 66.0400390625 1572.75976562 l 1,151,-1
 38.16015625 1561.28027344 l 1,152,-1
 43.080078125 1572.75976562 l 1,153,-1
 15.2001953125 1561.28027344 l 1,154,-1
 28.3203125 1589.16015625 l 1,155,-1
 13.5595703125 1585.87988281 l 1,156,157
 1.6494140625 1561.66601562 1.6494140625 1561.66601562 -24.16015625 1538.3203125 c 1,158,-1
 -24.16015625 1536.6796875 l 1,159,160
 -2.359375 1523.64160156 -2.359375 1523.64160156 49.6396484375 1546.51953125 c 1,161,162
 116.03125 1571.62402344 116.03125 1571.62402344 175.919921875 1613.75976562 c 1,163,164
 216.321289062 1640.08691406 216.321289062 1640.08691406 230.040039062 1654.75976562 c 1,165,-1
 231.6796875 1654.75976562 l 1,166,167
 241.579101562 1644.48144531 241.579101562 1644.48144531 253 1654.75976562 c 1,168,-1
 254.639648438 1654.75976562 l 1,169,170
 264.5390625 1644.48144531 264.5390625 1644.48144531 275.959960938 1654.75976562 c 1,171,-1
 277.599609375 1654.75976562 l 1,172,173
 301.713867188 1621.83203125 301.713867188 1621.83203125 348.120117188 1605.55957031 c 1,174,-1
 353.040039062 1644.91992188 l 1,175,-1
 298.919921875 1667.87988281 l 1,176,-1
 312.040039062 1685.91992188 l 1,177,-1
 298.919921875 1690.83984375 l 1,178,-1
 312.040039062 1708.87988281 l 1,179,180
 306.495117188 1710.86035156 306.495117188 1710.86035156 262.703125 1710.671875 c 0,181,182
 249.828125 1711.16699219 249.828125 1711.16699219 241.51953125 1713.79980469 c 0,183,184
 230.087890625 1718.35058594 230.087890625 1718.35058594 216.919921875 1735.12011719 c 0,185,186
 195.455078125 1766.4921875 195.455078125 1766.4921875 195.599609375 1828.59960938 c 1,121,122
29.9599609375 1636.71972656 m 1,187,188
 54.7177734375 1692.55859375 54.7177734375 1692.55859375 51.2802734375 1713.79980469 c 0,189,190
 43.65234375 1758.04101562 43.65234375 1758.04101562 3.0771484375 1749.09179688 c 0,191,192
 -16.2607421875 1744.82617188 -16.2607421875 1744.82617188 -30.7197265625 1728.55957031 c 1,193,194
 9.33203125 1727.75195312 9.33203125 1727.75195312 16.83984375 1723.63964844 c 1,195,196
 32.552734375 1704.26074219 32.552734375 1704.26074219 28.3203125 1636.71972656 c 1,197,-1
 29.9599609375 1636.71972656 l 1,187,188
28.3203125 1612.12011719 m 1,198,-1
 25.0400390625 1612.12011719 l 1,199,-1
 20.1201171875 1597.36035156 l 1,200,-1
 21.759765625 1597.36035156 l 1,201,-1
 28.3203125 1612.12011719 l 1,198,-1
20.1201171875 1595.71972656 m 1,202,-1
 18.4794921875 1594.08007812 l 1,203,-1
 20.1201171875 1595.71972656 l 1,202,-1
18.4794921875 1592.44042969 m 1,204,-1
 16.83984375 1590.79980469 l 1,205,-1
 18.4794921875 1592.44042969 l 1,204,-1
16.83984375 1589.16015625 m 1,206,-1
 15.2001953125 1587.51953125 l 1,207,-1
 16.83984375 1589.16015625 l 1,206,-1
-14.3203125 1476 m 1,208,-1
 -15.9599609375 1474.36035156 l 1,209,-1
 -14.3203125 1476 l 1,208,-1
EndSplineSet
EndChar

StartChar: afii57453
Encoding: 1613 1613 313
AltUni2: 00fe74.ffffffff.0
Width: 50
VWidth: 1639
GlyphClass: 2
Flags: HW
AnchorPoint: "GposMark2BaseAnchorClassErabBelow_01_02" -19.8599 -114.8 mark 0
LayerCount: 2
Fore
SplineSet
166.280273438 -114.799804688 m 1,0,-1
 163 -127.919921875 l 1,1,-1
 190.879882812 -114.799804688 l 1,2,-1
 185.959960938 -127.919921875 l 1,3,-1
 213.83984375 -114.799804688 l 1,4,-1
 202.360351562 -142.6796875 l 1,5,-1
 213.83984375 -137.759765625 l 1,6,-1
 202.360351562 -165.639648438 l 1,7,-1
 213.83984375 -160.719726562 l 1,8,-1
 185.959960938 -234.51953125 l 1,9,-1
 248.280273438 -203.360351562 l 1,10,-1
 210.559570312 -300.120117188 l 1,11,-1
 192.51953125 -336.200195312 l 1,12,-1
 200.719726562 -332.919921875 l 1,13,14
 195.76171875 -363.690429688 195.76171875 -363.690429688 172.83984375 -406.719726562 c 1,15,-1
 235.16015625 -375.559570312 l 1,16,-1
 207.280273438 -449.360351562 l 1,17,-1
 194.16015625 -478.879882812 l 1,18,-1
 151.51953125 -501.83984375 l 1,19,-1
 64.599609375 -544.48046875 l 1,20,-1
 -207.639648438 -677.3203125 l 1,21,-1
 -178.120117188 -603.51953125 l 1,22,-1
 -242.080078125 -634.6796875 l 1,23,-1
 -237.16015625 -621.559570312 l 1,24,-1
 -265.040039062 -634.6796875 l 1,25,-1
 -260.120117188 -621.559570312 l 1,26,-1
 -288 -634.6796875 l 1,27,-1
 -276.520507812 -606.799804688 l 1,28,-1
 -288 -611.719726562 l 1,29,-1
 -276.520507812 -583.83984375 l 1,30,-1
 -288 -588.759765625 l 1,31,32
 -279.106445312 -564.185546875 -279.106445312 -564.185546875 -260.120117188 -519.879882812 c 0,33,34
 -249.522460938 -494.973632812 -249.522460938 -494.973632812 -247 -492 c 0,35,36
 -240.774414062 -486.1640625 -240.774414062 -486.1640625 -199.133789062 -466.099609375 c 1,37,38
 -174.295898438 -452.030273438 -174.295898438 -452.030273438 -166.639648438 -432.959960938 c 1,39,-1
 -228.959960938 -462.48046875 l 1,40,-1
 -225.6796875 -451 l 1,41,-1
 -251.919921875 -462.48046875 l 1,42,-1
 -248.639648438 -451 l 1,43,-1
 -274.879882812 -462.48046875 l 1,44,-1
 -265.040039062 -434.599609375 l 1,45,-1
 -274.879882812 -439.51953125 l 1,46,-1
 -265.040039062 -411.639648438 l 1,47,-1
 -274.879882812 -416.559570312 l 1,48,49
 -273.665039062 -408.056640625 -273.665039062 -408.056640625 -250.491210938 -352.296875 c 0,50,51
 -249.211914062 -349.123046875 -249.211914062 -349.123046875 -248.639648438 -347.6796875 c 0,52,53
 -246.625976562 -344.323242188 -246.625976562 -344.323242188 -243.68359375 -335.922851562 c 0,54,55
 -238.702148438 -323.676757812 -238.702148438 -323.676757812 -235.520507812 -319.799804688 c 0,56,57
 -232.942382812 -317.590820312 -232.942382812 -317.590820312 -200.676757812 -302.4453125 c 0,58,59
 -197.51953125 -300.836914062 -197.51953125 -300.836914062 -196.16015625 -300.120117188 c 0,60,61
 -180.159179688 -291.220703125 -180.159179688 -291.220703125 -115.799804688 -259.120117188 c 0,62,63
 -86.09765625 -244.0078125 -86.09765625 -244.0078125 -25.623046875 -214.41015625 c 0,64,65
 105.202148438 -150.234375 105.202148438 -150.234375 166.280273438 -114.799804688 c 1,0,-1
163 -127.919921875 m 1,66,-1
 161.360351562 -129.559570312 l 1,67,-1
 163 -127.919921875 l 1,66,-1
185.959960938 -127.919921875 m 1,68,-1
 184.3203125 -129.559570312 l 1,69,-1
 185.959960938 -127.919921875 l 1,68,-1
133.479492188 -201.719726562 m 1,70,71
 96.0732421875 -217.123046875 96.0732421875 -217.123046875 -76.5302734375 -307.86328125 c 0,72,73
 -96.7509765625 -318.452148438 -96.7509765625 -318.452148438 -112.520507812 -326.360351562 c 0,74,75
 -121.540039062 -330.459960938 -121.540039062 -330.459960938 -140.400390625 -340.299804688 c 0,76,77
 -159.74609375 -350.29296875 -159.74609375 -350.29296875 -168.280273438 -354.240234375 c 0,78,79
 -191.810546875 -369.62890625 -191.810546875 -369.62890625 -194.520507812 -377.200195312 c 1,80,81
 -156.34765625 -361.481445312 -156.34765625 -361.481445312 43.3447265625 -260.75 c 0,82,83
 49.1376953125 -257.833984375 49.1376953125 -257.833984375 53.1201171875 -255.83984375 c 0,84,85
 59.1396484375 -252.830078125 59.1396484375 -252.830078125 73.79296875 -246.83203125 c 0,86,87
 127.283203125 -223.276367188 127.283203125 -223.276367188 133.479492188 -201.719726562 c 1,70,71
185.959960938 -234.51953125 m 1,88,-1
 184.3203125 -236.16015625 l 1,89,-1
 185.959960938 -234.51953125 l 1,88,-1
192.51953125 -336.200195312 m 1,90,-1
 190.879882812 -337.83984375 l 1,91,-1
 192.51953125 -336.200195312 l 1,90,-1
122 -373.919921875 m 1,92,93
 111.77734375 -376.926757812 111.77734375 -376.926757812 49.80859375 -409.90625 c 0,94,95
 45.6396484375 -412.079101562 45.6396484375 -412.079101562 43.2802734375 -413.280273438 c 0,96,97
 15.400390625 -427.219726562 15.400390625 -427.219726562 -41.1796875 -455.919921875 c 0,98,99
 -98.2861328125 -484.875 -98.2861328125 -484.875 -125.639648438 -498.559570312 c 0,100,101
 -134.66015625 -502.66015625 -134.66015625 -502.66015625 -153.520507812 -512.5 c 0,102,103
 -172.866210938 -522.493164062 -172.866210938 -522.493164062 -181.400390625 -526.440429688 c 0,104,105
 -202.32421875 -538.731445312 -202.32421875 -538.731445312 -206 -547.759765625 c 1,106,107
 -193.427734375 -543.494140625 -193.427734375 -543.494140625 -114.16015625 -503.48046875 c 0,108,109
 -87.919921875 -490.360351562 -87.919921875 -490.360351562 -35.4404296875 -464.940429688 c 0,110,111
 17.5869140625 -439.23046875 17.5869140625 -439.23046875 43.2802734375 -426.400390625 c 0,112,113
 49.46875 -423.305664062 49.46875 -423.305664062 64.1484375 -417.362304688 c 0,114,115
 114.76953125 -395.212890625 114.76953125 -395.212890625 122 -373.919921875 c 1,92,93
-165 -431.3203125 m 1,116,-1
 -166.639648438 -432.959960938 l 1,117,-1
 -165 -431.3203125 l 1,116,-1
EndSplineSet
EndChar

StartChar: afii57454
Encoding: 1614 1614 314
AltUni2: 00fe76.ffffffff.0
Width: 50
VWidth: 1639
GlyphClass: 2
Flags: HW
AnchorPoint: "GposMark2BaseAnchorHamzaErabAbove_01_01" 168.58 1431.72 mark 0
AnchorPoint: "GposMark2BaseAnchorHamzaErabBelow_01_01" 168.58 1822.04 mark 0
AnchorPoint: "GposMark2BaseAnchorClassErabAbove_01_02" 168.58 1431.72 mark 0
AnchorPoint: "GposMark2MarkAnchorHamzaErabAbove_01_01" 168.58 1431.72 mark 0
AnchorPoint: "GposMark2MarkAnchorHamzaErabBelow_01_01" 168.58 1822.04 mark 0
AnchorPoint: "GposMark2MarkAnchorShaddaErabAbove_01_02" 168.58 1431.72 mark 0
AnchorPoint: "GposMark2MarkAnchorShaddaErabBelow_01_02" 168.58 1822.04 mark 0
LayerCount: 2
Fore
SplineSet
348.16015625 1822.04003906 m 1,0,-1
 346.51953125 1808.91992188 l 1,1,-1
 372.759765625 1822.04003906 l 1,2,-1
 369.479492188 1808.91992188 l 1,3,-1
 395.719726562 1822.04003906 l 1,4,-1
 387.51953125 1795.79980469 l 1,5,-1
 395.719726562 1799.08007812 l 1,6,-1
 387.51953125 1772.83984375 l 1,7,-1
 395.719726562 1776.12011719 l 1,8,9
 390.76171875 1745.34960938 390.76171875 1745.34960938 367.83984375 1702.3203125 c 1,10,-1
 430.16015625 1733.48046875 l 1,11,-1
 402.280273438 1659.6796875 l 1,12,-1
 389.16015625 1630.16015625 l 1,13,-1
 346.51953125 1607.20019531 l 1,14,-1
 259.599609375 1564.55957031 l 1,15,-1
 -12.6396484375 1431.71972656 l 1,16,-1
 16.8798828125 1505.51953125 l 1,17,-1
 -47.080078125 1474.36035156 l 1,18,-1
 -42.16015625 1487.48046875 l 1,19,-1
 -70.0400390625 1474.36035156 l 1,20,-1
 -65.1201171875 1487.48046875 l 1,21,-1
 -93 1474.36035156 l 1,22,-1
 -81.5205078125 1502.24023438 l 1,23,-1
 -93 1497.3203125 l 1,24,-1
 -81.5205078125 1525.20019531 l 1,25,-1
 -93 1520.28027344 l 1,26,27
 -87.2236328125 1536.11523438 -87.2236328125 1536.11523438 -65.1201171875 1587.51953125 c 0,28,29
 -53.8544921875 1614.43457031 -53.8544921875 1614.43457031 -52 1617.04003906 c 0,30,31
 -48.7197265625 1621.95996094 -48.7197265625 1621.95996094 -42.98046875 1625.24023438 c 128,-1,32
 -37.240234375 1628.51953125 -37.240234375 1628.51953125 -25.759765625 1632.62011719 c 2,33,-1
 -14.2802734375 1636.71972656 l 1,34,35
 -1.16015625 1643.28027344 -1.16015625 1643.28027344 25.900390625 1657.21972656 c 0,36,37
 53.4638671875 1671.39648438 53.4638671875 1671.39648438 66.080078125 1677.71972656 c 0,38,39
 95.7822265625 1692.83203125 95.7822265625 1692.83203125 156.256835938 1722.43066406 c 0,40,41
 287.08203125 1786.60546875 287.08203125 1786.60546875 348.16015625 1822.04003906 c 1,0,-1
387.51953125 1795.79980469 m 1,42,-1
 385.879882812 1794.16015625 l 1,43,-1
 387.51953125 1795.79980469 l 1,42,-1
387.51953125 1772.83984375 m 1,44,-1
 385.879882812 1771.20019531 l 1,45,-1
 387.51953125 1772.83984375 l 1,44,-1
317 1735.12011719 m 1,46,47
 306.77734375 1732.11328125 306.77734375 1732.11328125 244.80859375 1699.13378906 c 0,48,49
 240.639648438 1696.9609375 240.639648438 1696.9609375 238.280273438 1695.75976562 c 0,50,51
 210.400390625 1681.8203125 210.400390625 1681.8203125 153.8203125 1653.12011719 c 0,52,53
 96.7138671875 1624.16503906 96.7138671875 1624.16503906 69.3603515625 1610.48046875 c 0,54,55
 60.33984375 1606.37988281 60.33984375 1606.37988281 41.4794921875 1596.54003906 c 0,56,57
 22.1337890625 1586.546875 22.1337890625 1586.546875 13.599609375 1582.59960938 c 0,58,59
 -7.32421875 1570.30859375 -7.32421875 1570.30859375 -11 1561.28027344 c 1,60,61
 1.572265625 1565.54589844 1.572265625 1565.54589844 80.83984375 1605.55957031 c 0,62,63
 107.080078125 1618.6796875 107.080078125 1618.6796875 159.559570312 1644.09960938 c 0,64,65
 212.586914062 1669.80957031 212.586914062 1669.80957031 238.280273438 1682.63964844 c 0,66,67
 244.46875 1685.734375 244.46875 1685.734375 259.1484375 1691.67773438 c 0,68,69
 309.76953125 1713.82714844 309.76953125 1713.82714844 317 1735.12011719 c 1,46,47
EndSplineSet
EndChar

StartChar: afii57455
Encoding: 1615 1615 315
AltUni2: 00fe78.ffffffff.0
Width: 52
VWidth: 1639
GlyphClass: 2
Flags: HW
AnchorPoint: "GposMark2BaseAnchorHamzaErabAbove_01_01" 136.374 1428.91 mark 0
AnchorPoint: "GposMark2BaseAnchorHamzaErabBelow_01_01" 136.374 1984.64 mark 0
AnchorPoint: "GposMark2BaseAnchorClassErabAbove_01_02" 136.374 1428.91 mark 0
AnchorPoint: "GposMark2MarkAnchorHamzaErabAbove_01_01" 136.374 1428.91 mark 0
AnchorPoint: "GposMark2MarkAnchorHamzaErabBelow_01_01" 136.374 1984.64 mark 0
AnchorPoint: "GposMark2MarkAnchorShaddaErabAbove_01_02" 136.374 1428.91 mark 0
AnchorPoint: "GposMark2MarkAnchorShaddaErabBelow_01_02" 136.374 1984.64 mark 0
LayerCount: 2
Fore
SplineSet
-144.333984375 1541.59960938 m 1,0,1
 -151.209960938 1554.56835938 -151.209960938 1554.56835938 -149.25390625 1561.28027344 c 0,2,3
 -147.61328125 1566.20019531 -147.61328125 1566.20019531 -137.038085938 1568.68847656 c 2,4,-1
 -134.493164062 1569.48046875 l 2,5,6
 -127.11328125 1571.94042969 -127.11328125 1571.94042969 -113.173828125 1576.86035156 c 0,7,8
 -98.6103515625 1581.96875 -98.6103515625 1581.96875 -91.853515625 1584.24023438 c 0,9,10
 -22.9736328125 1608.83984375 -22.9736328125 1608.83984375 40.986328125 1643.28027344 c 0,11,12
 90.7646484375 1670.43164062 90.7646484375 1670.43164062 96.1083984375 1675.39257812 c 0,13,14
 98.90234375 1678.20507812 98.90234375 1678.20507812 100.026367188 1679.36035156 c 0,15,16
 104.448242188 1685.79589844 104.448242188 1685.79589844 86.90625 1713.79980469 c 1,17,18
 75.232421875 1745.59277344 75.232421875 1745.59277344 78.7060546875 1812.20019531 c 1,19,20
 83.6123046875 1852.83007812 83.6123046875 1852.83007812 126.266601562 1902.40039062 c 0,21,22
 184.1328125 1968.71484375 184.1328125 1968.71484375 232.866210938 1982.75976562 c 0,23,24
 243.877929688 1984.63867188 243.877929688 1984.63867188 283.706054688 1984.40039062 c 0,25,26
 323.544921875 1983.66015625 323.544921875 1983.66015625 336.186523438 1977.83984375 c 0,27,28
 367.583984375 1960.24121094 367.583984375 1960.24121094 373.90625 1918.79980469 c 0,29,30
 374.560546875 1914.87597656 374.560546875 1914.87597656 374.823242188 1906.55859375 c 0,31,32
 375.692382812 1893.9375 375.692382812 1893.9375 377.186523438 1889.28027344 c 0,33,34
 378.536132812 1886.8828125 378.536132812 1886.8828125 390.306640625 1872.87988281 c 0,35,36
 398.506835938 1864.6796875 398.506835938 1864.6796875 404.251953125 1845.82519531 c 2,37,-1
 405.06640625 1843.36035156 l 1,38,39
 423.958007812 1773.44824219 423.958007812 1773.44824219 390.306640625 1699.04003906 c 0,40,41
 386.889648438 1692.20703125 386.889648438 1692.20703125 377.208984375 1678.54003906 c 0,42,43
 363.65625 1659.40625 363.65625 1659.40625 360.786132812 1649.83984375 c 0,44,45
 350.713867188 1613.69726562 350.713867188 1613.69726562 395.2265625 1600.63964844 c 1,46,-1
 388.666015625 1507.16015625 l 1,47,48
 352.846679688 1513.74511719 352.846679688 1513.74511719 303.38671875 1543.24023438 c 0,49,50
 300.264648438 1545.0234375 300.264648438 1545.0234375 292.763671875 1550.24707031 c 0,51,52
 269.852539062 1566.20019531 269.852539062 1566.20019531 259.106445312 1566.20019531 c 0,53,54
 255.484375 1564.61328125 255.484375 1564.61328125 236.146484375 1548.16015625 c 1,55,56
 199.51953125 1521.66699219 199.51953125 1521.66699219 182.026367188 1510.44042969 c 0,57,58
 100.341796875 1459.15332031 100.341796875 1459.15332031 6.546875 1436.63964844 c 1,59,60
 -36.658203125 1428.90722656 -36.658203125 1428.90722656 -57.4140625 1446.48046875 c 1,61,62
 -77.275390625 1466.34179688 -77.275390625 1466.34179688 -67.25390625 1474.36035156 c 1,63,-1
 -67.25390625 1476 l 1,64,65
 -109.537109375 1470.140625 -109.537109375 1470.140625 -132.853515625 1485.83984375 c 0,66,67
 -151.168945312 1496.82910156 -151.168945312 1496.82910156 -149.919921875 1511.43945312 c 0,68,69
 -149.500976562 1516.34375 -149.500976562 1516.34375 -144.333984375 1518.63964844 c 1,70,71
 -149.640625 1537.69628906 -149.640625 1537.69628906 -144.333984375 1541.59960938 c 1,0,1
291.90625 1756.44042969 m 1,72,73
 335.825195312 1822.62304688 335.825195312 1822.62304688 327.986328125 1876.16015625 c 1,74,75
 316.846679688 1928.14453125 316.846679688 1928.14453125 283.327148438 1934.63085938 c 0,76,77
 280.234375 1935.04492188 280.234375 1935.04492188 278.786132812 1935.20019531 c 0,78,79
 247.579101562 1935.20019531 247.579101562 1935.20019531 207.448242188 1893.046875 c 0,80,81
 202.665039062 1887.70410156 202.665039062 1887.70410156 200.06640625 1884.36035156 c 1,82,83
 227.072265625 1895.02832031 227.072265625 1895.02832031 265.666015625 1892.55957031 c 0,84,85
 289.18359375 1891.22949219 289.18359375 1891.22949219 293.546875 1887.63964844 c 0,86,87
 300.650390625 1877.68554688 300.650390625 1877.68554688 300.106445312 1848.28027344 c 0,88,89
 299.588867188 1786.93066406 299.588867188 1786.93066406 290.266601562 1756.44042969 c 1,90,-1
 291.90625 1756.44042969 l 1,72,73
152.506835938 1830.24023438 m 1,91,92
 129.151367188 1805.27148438 129.151367188 1805.27148438 127.90625 1781.04003906 c 0,93,94
 127.90625 1744.50683594 127.90625 1744.50683594 167.301757812 1708.86425781 c 0,95,96
 172.256835938 1704.6875 172.256835938 1704.6875 175.466796875 1702.3203125 c 1,97,-1
 175.466796875 1700.6796875 l 1,98,-1
 163.986328125 1692.48046875 l 1,99,-1
 175.466796875 1679.36035156 l 1,100,-1
 175.466796875 1677.71972656 l 1,101,-1
 163.986328125 1669.51953125 l 1,102,-1
 175.466796875 1656.40039062 l 1,103,-1
 175.466796875 1654.75976562 l 1,104,-1
 172.186523438 1651.48046875 l 1,105,106
 183.112304688 1655.02246094 183.112304688 1655.02246094 195.146484375 1653.12011719 c 0,107,108
 197.55078125 1653.12011719 197.55078125 1653.12011719 201.375976562 1656.09667969 c 0,109,110
 205.458007812 1657.828125 205.458007812 1657.828125 206.625976562 1658.04003906 c 0,111,112
 209.0859375 1658.04003906 209.0859375 1658.04003906 213.186523438 1655.58007812 c 128,-1,113
 217.286132812 1653.12011719 217.286132812 1653.12011719 219.74609375 1653.12011719 c 0,114,115
 221.672851562 1653.76171875 221.672851562 1653.76171875 224.41015625 1655.96386719 c 0,116,117
 229.33203125 1658.0078125 229.33203125 1658.0078125 231.2265625 1658.04003906 c 0,118,119
 235.124023438 1655.89648438 235.124023438 1655.89648438 252.546875 1641.63964844 c 1,120,121
 290.434570312 1615.99316406 290.434570312 1615.99316406 309.946289062 1612.12011719 c 1,122,-1
 309.946289062 1641.63964844 l 1,123,-1
 296.826171875 1651.48046875 l 1,124,-1
 259.106445312 1671.16015625 l 1,125,-1
 272.2265625 1687.55957031 l 1,126,-1
 259.106445312 1694.12011719 l 1,127,-1
 272.2265625 1710.51953125 l 1,128,129
 264.469726562 1714.3984375 264.469726562 1714.3984375 222.79296875 1710.78710938 c 0,130,131
 209.3828125 1710.18457031 209.3828125 1710.18457031 201.706054688 1712.16015625 c 0,132,133
 188.787109375 1715.38183594 188.787109375 1715.38183594 175.466796875 1731.83984375 c 0,134,135
 157.717773438 1755.50488281 157.717773438 1755.50488281 154.317382812 1810.39550781 c 0,136,137
 153.4609375 1822.43945312 153.4609375 1822.43945312 152.506835938 1830.24023438 c 1,91,92
165.625976562 1646.55957031 m 1,138,-1
 162.346679688 1643.28027344 l 1,139,-1
 165.625976562 1646.55957031 l 1,138,-1
159.06640625 1641.63964844 m 1,140,-1
 154.146484375 1636.71972656 l 1,141,-1
 159.06640625 1641.63964844 l 1,140,-1
152.506835938 1636.71972656 m 1,142,-1
 147.5859375 1631.79980469 l 1,143,-1
 152.506835938 1636.71972656 l 1,142,-1
145.946289062 1631.79980469 m 1,144,145
 14.865234375 1557.72753906 14.865234375 1557.72753906 -77.09375 1526.83984375 c 1,146,-1
 -77.09375 1525.20019531 l 1,147,148
 -11.521484375 1531.56542969 -11.521484375 1531.56542969 90.1865234375 1592.44042969 c 0,149,150
 133.017578125 1616.59375 133.017578125 1616.59375 145.946289062 1631.79980469 c 1,144,145
EndSplineSet
EndChar

StartChar: afii57456
Encoding: 1616 1616 316
AltUni2: 00fe7a.ffffffff.0
Width: 48
VWidth: 1639
GlyphClass: 2
Flags: HW
AnchorPoint: "GposMark2BaseAnchorClassErabBelow_01_02" -20.4199 -116.44 mark 0
LayerCount: 2
Fore
SplineSet
-282 -416.559570312 m 1,0,1
 -277.900390625 -405.900390625 -277.900390625 -405.900390625 -268.879882812 -384.580078125 c 0,2,3
 -259.688476562 -362.712890625 -259.688476562 -362.712890625 -255.759765625 -352.599609375 c 0,4,5
 -245.942382812 -325.451171875 -245.942382812 -325.451171875 -241 -319.799804688 c 0,6,7
 -237.026367188 -315.954101562 -237.026367188 -315.954101562 -206.559570312 -301.759765625 c 0,8,9
 -193.440429688 -295.200195312 -193.440429688 -295.200195312 -166.379882812 -281.259765625 c 0,10,11
 -138.81640625 -267.083984375 -138.81640625 -267.083984375 -126.200195312 -260.759765625 c 0,12,13
 -95.8603515625 -245.1796875 -95.8603515625 -245.1796875 -35.1796875 -214.83984375 c 0,14,15
 26.046875 -184.205078125 26.046875 -184.205078125 55.83984375 -168.919921875 c 0,16,17
 137.748046875 -123.870117188 137.748046875 -123.870117188 152.345703125 -119.005859375 c 0,18,19
 157.444335938 -117.396484375 157.444335938 -117.396484375 160.799804688 -116.440429688 c 1,20,-1
 157.51953125 -127.919921875 l 1,21,-1
 183.759765625 -116.440429688 l 1,22,-1
 180.479492188 -127.919921875 l 1,23,-1
 206.719726562 -116.440429688 l 1,24,-1
 196.879882812 -142.6796875 l 1,25,-1
 206.719726562 -139.400390625 l 1,26,-1
 196.879882812 -165.639648438 l 1,27,-1
 206.719726562 -162.360351562 l 1,28,-1
 180.479492188 -234.51953125 l 1,29,-1
 241.16015625 -205 l 1,30,-1
 214.919921875 -275.51953125 l 1,31,-1
 201.799804688 -306.6796875 l 1,32,-1
 164.080078125 -326.360351562 l 1,33,-1
 80.4404296875 -367.360351562 l 1,34,-1
 -99.9599609375 -455.919921875 l 1,35,-1
 -201.639648438 -505.120117188 l 1,36,-1
 -172.120117188 -432.959960938 l 1,37,-1
 -236.080078125 -462.48046875 l 1,38,-1
 -231.16015625 -449.360351562 l 1,39,-1
 -259.040039062 -462.48046875 l 1,40,-1
 -254.120117188 -449.360351562 l 1,41,-1
 -282 -462.48046875 l 1,42,-1
 -270.520507812 -434.599609375 l 1,43,-1
 -282 -439.51953125 l 1,44,-1
 -270.520507812 -411.639648438 l 1,45,-1
 -282 -416.559570312 l 1,0,1
157.51953125 -127.919921875 m 1,46,-1
 155.879882812 -129.559570312 l 1,47,-1
 157.51953125 -127.919921875 l 1,46,-1
180.479492188 -127.919921875 m 1,48,-1
 178.83984375 -129.559570312 l 1,49,-1
 180.479492188 -127.919921875 l 1,48,-1
128 -201.719726562 m 1,50,51
 113.076171875 -206.728515625 113.076171875 -206.728515625 49.2802734375 -241.080078125 c 0,52,53
 18.380859375 -256.135742188 18.380859375 -256.135742188 -121.280273438 -328 c 1,54,-1
 -175.400390625 -354.240234375 l 1,55,56
 -197.030273438 -368.672851562 -197.030273438 -368.672851562 -200 -377.200195312 c 1,57,58
 -176.719726562 -367.614257812 -176.719726562 -367.614257812 -19.6630859375 -287.39453125 c 0,59,60
 15.85546875 -269.3671875 15.85546875 -269.3671875 42.7197265625 -257.48046875 c 1,61,62
 116.901367188 -229.662109375 116.901367188 -229.662109375 126.419921875 -206.69921875 c 0,63,64
 127.524414062 -203.387695312 127.524414062 -203.387695312 128 -201.719726562 c 1,50,51
EndSplineSet
EndChar

StartChar: afii57457
Encoding: 1617 1617 317
AltUni2: 00fe7c.ffffffff.0
Width: 55
VWidth: 1639
GlyphClass: 2
Flags: HW
AnchorPoint: "GposMark2BaseAnchorHamzaErabAbove_01_01" 180.991 1426.4 mark 0
AnchorPoint: "GposMark2BaseAnchorHamzaErabBelow_01_01" 180.991 1919.45 mark 0
AnchorPoint: "GposMark2BaseAnchorClassErabAbove_01_02" 180.991 1426.4 mark 0
AnchorPoint: "GposMark2MarkAnchorHamzaErabAbove_01_01" 180.991 1426.4 mark 0
AnchorPoint: "GposMark2MarkAnchorHamzaErabBelow_01_01" 180.991 1919.45 mark 0
AnchorPoint: "GposMark2MarkAnchorShaddaErabAbove_01_02" 180.991 2069.45 basemark 0
AnchorPoint: "GposMark2MarkAnchorShaddaErabBelow_01_02" 180.991 1276.4 basemark 0
LayerCount: 2
Fore
SplineSet
258.999023438 1749.87988281 m 1,0,1
 272.30078125 1783.38085938 272.30078125 1783.38085938 285.239257812 1858.12011719 c 1,2,3
 295.822265625 1900.45214844 295.822265625 1900.45214844 296.369140625 1901.33886719 c 0,4,5
 298.868164062 1904.42578125 298.868164062 1904.42578125 299.999023438 1905.6796875 c 0,6,7
 307.750976562 1910.84863281 307.750976562 1910.84863281 319.678710938 1899.12011719 c 1,8,9
 324.858398438 1912.89160156 324.858398438 1912.89160156 342.638671875 1899.12011719 c 1,10,11
 346.334960938 1919.4453125 346.334960938 1919.4453125 363.106445312 1900.22167969 c 0,12,13
 365.888671875 1896.43457031 365.888671875 1896.43457031 367.239257812 1894.20019531 c 0,14,15
 368.99609375 1890.39257812 368.99609375 1890.39257812 375.17578125 1844.56933594 c 0,16,17
 377.254882812 1832.703125 377.254882812 1832.703125 380.359375 1825.3203125 c 0,18,19
 382.889648438 1822.36230469 382.889648438 1822.36230469 393.479492188 1817.12011719 c 1,20,21
 400.5859375 1810.01367188 400.5859375 1810.01367188 403.319335938 1799.08007812 c 0,22,23
 410.005859375 1777.7890625 410.005859375 1777.7890625 413.159179688 1740.04003906 c 0,24,25
 423.920898438 1582.19921875 423.920898438 1582.19921875 337.821289062 1541.85644531 c 0,26,27
 330.544921875 1538.68652344 330.544921875 1538.68652344 324.598632812 1536.6796875 c 0,28,29
 296.71875 1526.83984375 296.71875 1526.83984375 247.709960938 1539.50195312 c 2,30,-1
 245.87890625 1539.95996094 l 1,31,32
 238.249023438 1519.21777344 238.249023438 1519.21777344 221.279296875 1498.95996094 c 0,33,34
 165.465820312 1426.40234375 165.465820312 1426.40234375 97.8984375 1430.70117188 c 0,35,36
 85.5556640625 1431.89550781 85.5556640625 1431.89550781 75.3193359375 1435 c 0,37,38
 61.0078125 1440.26855469 61.0078125 1440.26855469 49.0791015625 1454.6796875 c 0,39,40
 47.22265625 1456.53613281 47.22265625 1456.53613281 43.9462890625 1462.16992188 c 0,41,42
 37.458984375 1470.93652344 37.458984375 1470.93652344 34.3193359375 1472.71972656 c 0,43,44
 28.4912109375 1474.78320312 28.4912109375 1474.78320312 9.71875 1474.36035156 c 1,45,46
 -12.796875 1477.83496094 -12.796875 1477.83496094 -31.28125 1495.6796875 c 1,47,48
 -61.9384765625 1533.0703125 -61.9384765625 1533.0703125 -49.3212890625 1643.28027344 c 0,49,50
 -44.1220703125 1689.19042969 -44.1220703125 1689.19042969 -19.80078125 1738.40039062 c 0,51,52
 -6.3525390625 1765.29589844 -6.3525390625 1765.29589844 6.439453125 1769.55957031 c 1,53,-1
 12.9990234375 1758.08007812 l 1,54,-1
 29.3994140625 1769.55957031 l 1,55,-1
 35.958984375 1758.08007812 l 1,56,-1
 52.359375 1769.55957031 l 1,57,58
 59.3720703125 1758.43652344 59.3720703125 1758.43652344 58.9189453125 1723.63964844 c 0,59,60
 59.251953125 1668.72070312 59.251953125 1668.72070312 62.19921875 1653.12011719 c 1,61,-1
 63.8388671875 1653.12011719 l 1,62,63
 71.8232421875 1674.13085938 71.8232421875 1674.13085938 86.798828125 1681 c 1,64,65
 93.3251953125 1669.23535156 93.3251953125 1669.23535156 93.359375 1653.12011719 c 1,66,-1
 94.9990234375 1653.12011719 l 1,67,68
 99.0986328125 1662.95996094 99.0986328125 1662.95996094 108.939453125 1681 c 0,69,70
 118.931640625 1699.70703125 118.931640625 1699.70703125 122.87890625 1708.87988281 c 0,71,72
 127.798828125 1722.8203125 127.798828125 1722.8203125 135.178710938 1750.70019531 c 0,73,74
 142.842773438 1779.12695312 142.842773438 1779.12695312 147.479492188 1792.51953125 c 0,75,76
 162.251953125 1837.83300781 162.251953125 1837.83300781 167.159179688 1841.71972656 c 1,77,78
 175.719726562 1843.16503906 175.719726562 1843.16503906 181.918945312 1825.3203125 c 1,79,80
 190.911132812 1852.29589844 190.911132812 1852.29589844 203.122070312 1828.93261719 c 0,81,82
 204.399414062 1826.31347656 204.399414062 1826.31347656 204.87890625 1825.3203125 c 1,83,84
 213.421875 1850.94921875 213.421875 1850.94921875 223.885742188 1833.81445312 c 0,85,86
 226.419921875 1828.55761719 226.419921875 1828.55761719 227.838867188 1823.6796875 c 0,87,88
 230.3046875 1814.43457031 230.3046875 1814.43457031 232.458984375 1794.98828125 c 0,89,90
 236.762695312 1762.1953125 236.762695312 1762.1953125 244.239257812 1748.24023438 c 1,91,92
 251.143554688 1753.65917969 251.143554688 1753.65917969 258.999023438 1749.87988281 c 1,0,1
331.159179688 1804 m 1,93,94
 327.969726562 1797.30273438 327.969726562 1797.30273438 317.592773438 1740.09375 c 0,95,96
 311.088867188 1710.16210938 311.088867188 1710.16210938 296.71875 1694.12011719 c 1,97,98
 284.522460938 1683.83886719 284.522460938 1683.83886719 258.999023438 1684.28027344 c 1,99,100
 195.439453125 1681.23535156 195.439453125 1681.23535156 190.119140625 1728.55957031 c 1,101,-1
 188.479492188 1728.55957031 l 1,102,103
 181.918945312 1713.79980469 181.918945312 1713.79980469 172.807617188 1682.09375 c 0,104,105
 153.516601562 1618.56640625 153.516601562 1618.56640625 129.439453125 1595.71972656 c 1,106,107
 108.0234375 1577.81640625 108.0234375 1577.81640625 60.55859375 1580.95996094 c 0,108,109
 33.580078125 1582.50195312 33.580078125 1582.50195312 26.119140625 1589.16015625 c 0,110,111
 11.3818359375 1607.140625 11.3818359375 1607.140625 11.359375 1649.83984375 c 1,112,113
 3.1591796875 1643.28027344 3.1591796875 1643.28027344 0.203125 1622.29394531 c 2,114,-1
 -0.12109375 1620.3203125 l 1,115,116
 -13.4716796875 1564.24609375 -13.4716796875 1564.24609375 23.0947265625 1533.47851562 c 0,117,118
 30.013671875 1528.27539062 30.013671875 1528.27539062 35.958984375 1525.20019531 c 0,119,120
 54.01953125 1518.63964844 54.01953125 1518.63964844 83.5185546875 1536.6796875 c 0,121,122
 139.178710938 1567.29296875 139.178710938 1567.29296875 161.838867188 1618.83203125 c 0,123,124
 164.168945312 1624.54492188 164.168945312 1624.54492188 165.518554688 1628.51953125 c 1,125,-1
 186.838867188 1621.95996094 l 1,126,-1
 188.479492188 1628.51953125 l 1,127,-1
 209.798828125 1621.95996094 l 1,128,-1
 211.439453125 1628.51953125 l 1,129,130
 214.83203125 1627.84179688 214.83203125 1627.84179688 221.006835938 1625.38085938 c 0,131,132
 229.591796875 1621.95996094 229.591796875 1621.95996094 234.399414062 1621.95996094 c 0,133,134
 260.309570312 1625.20996094 260.309570312 1625.20996094 288.518554688 1656.40039062 c 0,135,136
 340.986328125 1717.75292969 340.986328125 1717.75292969 331.159179688 1804 c 1,93,94
EndSplineSet
EndChar

StartChar: afii57458
Encoding: 1618 1618 318
AltUni2: 00fe7e.ffffffff.0
Width: 64
VWidth: 1639
GlyphClass: 2
Flags: HW
AnchorPoint: "GposMark2BaseAnchorHamzaErabAbove_01_01" 160.246 1425.23 mark 0
AnchorPoint: "GposMark2BaseAnchorHamzaErabBelow_01_01" 160.246 1908.39 mark 0
AnchorPoint: "GposMark2BaseAnchorClassErabAbove_01_02" 160.246 1425.23 mark 0
AnchorPoint: "GposMark2MarkAnchorHamzaErabAbove_01_01" 160.246 1425.23 mark 0
AnchorPoint: "GposMark2MarkAnchorHamzaErabBelow_01_01" 160.246 1908.39 mark 0
AnchorPoint: "GposMark2MarkAnchorShaddaErabAbove_01_02" 160.246 1425.23 mark 0
AnchorPoint: "GposMark2MarkAnchorShaddaErabBelow_01_02" 160.246 1908.39 mark 0
LayerCount: 2
Fore
SplineSet
112.649414062 1889.28027344 m 1,0,1
 246.447265625 1908.39355469 246.447265625 1908.39355469 312.103515625 1820.31542969 c 0,2,3
 317.24609375 1813.13378906 317.24609375 1813.13378906 320.9296875 1807.28027344 c 0,4,5
 325.991210938 1798.84375 325.991210938 1798.84375 345.870117188 1738.57226562 c 0,6,7
 347.641601562 1733.40136719 347.641601562 1733.40136719 348.809570312 1730.20019531 c 0,8,9
 351.26953125 1723.63964844 351.26953125 1723.63964844 358.649414062 1711.33984375 c 0,10,11
 366.056640625 1698.40722656 366.056640625 1698.40722656 368.489257812 1692.48046875 c 0,12,13
 382.025390625 1661.74316406 382.025390625 1661.74316406 384.889648438 1625.24023438 c 0,14,15
 393.375 1525.10351562 393.375 1525.10351562 312.958007812 1466.81542969 c 0,16,17
 275.547851562 1440.7421875 275.547851562 1440.7421875 230.729492188 1433.36035156 c 1,18,19
 161.0859375 1425.23242188 161.0859375 1425.23242188 115.9296875 1448.12011719 c 0,20,21
 108.548828125 1452.21972656 108.548828125 1452.21972656 95.4296875 1462.87988281 c 0,22,23
 81.6025390625 1473.69433594 81.6025390625 1473.69433594 74.9296875 1477.63964844 c 0,24,25
 69.189453125 1480.09960938 69.189453125 1480.09960938 57.708984375 1483.37988281 c 0,26,27
 45.6826171875 1487.02929688 45.6826171875 1487.02929688 40.4892578125 1489.12011719 c 0,28,29
 -10.4833984375 1515.05566406 -10.4833984375 1515.05566406 -30.03125 1561.28027344 c 0,30,31
 -72.8828125 1668.40917969 -72.8828125 1668.40917969 -0.7421875 1791.91601562 c 0,32,33
 5.416015625 1802.22265625 5.416015625 1802.22265625 10.96875 1810.55957031 c 0,34,35
 55.8251953125 1877.98925781 55.8251953125 1877.98925781 112.649414062 1889.28027344 c 1,0,1
27.369140625 1713.79980469 m 1,36,37
 5.873046875 1662.20996094 5.873046875 1662.20996094 5.923828125 1649.93066406 c 0,38,39
 5.9306640625 1648.21972656 5.9306640625 1648.21972656 6.048828125 1646.55957031 c 0,40,41
 9.240234375 1581.13867188 9.240234375 1581.13867188 72.3984375 1541.62792969 c 0,42,43
 109.05859375 1519.87109375 109.05859375 1519.87109375 145.44921875 1521.91992188 c 0,44,45
 222.467773438 1526.32128906 222.467773438 1526.32128906 273.056640625 1591.85058594 c 0,46,47
 282.129882812 1604.15039062 282.129882812 1604.15039062 288.12890625 1615.40039062 c 0,48,49
 325.412109375 1688.10058594 325.412109375 1688.10058594 271.586914062 1767.52441406 c 0,50,51
 256.467773438 1788.80761719 256.467773438 1788.80761719 238.9296875 1804 c 0,52,53
 159.427734375 1868.92382812 159.427734375 1868.92382812 96.2490234375 1812.20019531 c 1,54,55
 72.61328125 1787.84082031 72.61328125 1787.84082031 68.369140625 1781.04003906 c 1,56,57
 85.541015625 1789.40332031 85.541015625 1789.40332031 120.849609375 1789.24023438 c 0,58,59
 197.598632812 1789.24023438 197.598632812 1789.24023438 245.239257812 1736.09863281 c 0,60,61
 269.537109375 1707.22460938 269.537109375 1707.22460938 271.729492188 1674.44042969 c 1,62,63
 270.947265625 1632.8203125 270.947265625 1632.8203125 266.809570312 1625.24023438 c 0,64,65
 256.713867188 1609.67675781 256.713867188 1609.67675781 229.088867188 1597.36035156 c 0,66,67
 176.421875 1574.18554688 176.421875 1574.18554688 91.3291015625 1590.79980469 c 0,68,69
 55.0439453125 1598.56054688 55.0439453125 1598.56054688 40.4892578125 1613.75976562 c 0,70,71
 20.392578125 1637.04492188 20.392578125 1637.04492188 29.0087890625 1713.79980469 c 1,72,-1
 27.369140625 1713.79980469 l 1,36,37
219.249023438 1667.87988281 m 1,73,74
 196.9140625 1696.79492188 196.9140625 1696.79492188 184.809570312 1700.6796875 c 1,75,76
 151.551757812 1704.53027344 151.551757812 1704.53027344 127.409179688 1666.24023438 c 0,77,78
 116.078125 1649.24316406 116.078125 1649.24316406 117.569335938 1643.28027344 c 0,79,80
 119.934570312 1639.25585938 119.934570312 1639.25585938 142.168945312 1635.08007812 c 0,81,82
 176.758789062 1628.16210938 176.758789062 1628.16210938 209.11328125 1656.2890625 c 0,83,84
 215.744140625 1662.79785156 215.744140625 1662.79785156 219.249023438 1667.87988281 c 1,73,74
EndSplineSet
EndChar

StartChar: uni0654
Encoding: 1620 1620 320
Width: 74
VWidth: 1639
GlyphClass: 2
Flags: HW
AnchorPoint: "GposMark2BaseAnchorClassErabAbove_01_02" 184.76 1431.72 mark 0
AnchorPoint: "GposMark2MarkAnchorHamzaErabAbove_01_01" 184.76 2061.74 basemark 0
AnchorPoint: "GposMark2MarkAnchorHamzaErabBelow_01_01" 184.76 1281.72 basemark 0
LayerCount: 2
Fore
SplineSet
35.51953125 1608.83984375 m 1,0,1
 -6.4306640625 1640.21679688 -6.4306640625 1640.21679688 -7.1201171875 1707.24023438 c 1,2,3
 -5.6875 1793.3359375 -5.6875 1793.3359375 76.51953125 1864.6796875 c 0,4,5
 115.392578125 1899.05371094 115.392578125 1899.05371094 153.599609375 1904.04003906 c 1,6,7
 245.520507812 1911.74121094 245.520507812 1911.74121094 266.759765625 1879.44042969 c 1,8,9
 273.297851562 1866.40917969 273.297851562 1866.40917969 273.3203125 1838.44042969 c 0,10,11
 272.760742188 1815.57226562 272.760742188 1815.57226562 271.6796875 1812.20019531 c 1,12,13
 328.18359375 1791.0078125 328.18359375 1791.0078125 294.639648438 1689.20019531 c 1,14,-1
 324.16015625 1694.12011719 l 1,15,-1
 322.51953125 1690.83984375 l 1,16,-1
 347.120117188 1694.12011719 l 1,17,-1
 345.479492188 1690.83984375 l 1,18,-1
 370.080078125 1694.12011719 l 1,19,-1
 360.240234375 1669.51953125 l 1,20,-1
 370.080078125 1671.16015625 l 1,21,-1
 360.240234375 1646.55957031 l 1,22,-1
 370.080078125 1648.20019531 l 1,23,-1
 348.759765625 1595.71972656 l 1,24,-1
 404.51953125 1605.55957031 l 1,25,-1
 375 1538.3203125 l 1,26,-1
 361.879882812 1512.08007812 l 1,27,-1
 330.719726562 1505.51953125 l 1,28,-1
 260.200195312 1492.40039062 l 1,29,-1
 138.83984375 1464.51953125 l 1,30,-1
 45.3603515625 1431.71972656 l 1,31,32
 53.3955078125 1464.33203125 53.3955078125 1464.33203125 91.2802734375 1502.24023438 c 1,33,-1
 10.919921875 1474.36035156 l 1,34,-1
 14.2001953125 1484.20019531 l 1,35,-1
 -12.0400390625 1474.36035156 l 1,36,-1
 -8.759765625 1484.20019531 l 1,37,-1
 -35 1474.36035156 l 1,38,-1
 -26.7998046875 1500.59960938 l 1,39,-1
 -35 1497.3203125 l 1,40,-1
 -26.7998046875 1523.55957031 l 1,41,-1
 -35 1520.28027344 l 1,42,43
 -21.8173828125 1575.6484375 -21.8173828125 1575.6484375 24.0947265625 1601.78027344 c 0,44,45
 30.609375 1605.19628906 30.609375 1605.19628906 35.51953125 1607.20019531 c 1,46,-1
 35.51953125 1608.83984375 l 1,0,1
220.83984375 1794.16015625 m 1,47,48
 223.997070312 1822.63085938 223.997070312 1822.63085938 222.479492188 1826.95996094 c 0,49,50
 207.712890625 1871.26074219 207.712890625 1871.26074219 155.490234375 1844.39648438 c 0,51,52
 134.336914062 1832.58203125 134.336914062 1832.58203125 122.440429688 1817.12011719 c 1,53,54
 188.795898438 1815.99121094 188.795898438 1815.99121094 220.83984375 1794.16015625 c 1,47,48
145.400390625 1766.28027344 m 1,55,56
 130.557617188 1771.84570312 130.557617188 1771.84570312 124.991210938 1758.62695312 c 0,57,58
 123.717773438 1751.98535156 123.717773438 1751.98535156 125.719726562 1746.59960938 c 1,59,-1
 145.400390625 1766.28027344 l 1,55,56
69.9599609375 1756.44042969 m 1,60,61
 60.587890625 1746.04003906 60.587890625 1746.04003906 55.2001953125 1733.48046875 c 0,62,63
 41.5888671875 1704.43359375 41.5888671875 1704.43359375 42.080078125 1695.75976562 c 0,64,65
 45.3603515625 1664.59960938 45.3603515625 1664.59960938 118.985351562 1631.00585938 c 2,66,-1
 120.799804688 1630.16015625 l 1,67,-1
 120.799804688 1628.51953125 l 1,68,-1
 99.4794921875 1620.3203125 l 1,69,-1
 99.4794921875 1618.6796875 l 1,70,-1
 120.799804688 1607.20019531 l 1,71,-1
 120.799804688 1605.55957031 l 1,72,-1
 99.4794921875 1597.36035156 l 1,73,-1
 99.4794921875 1595.71972656 l 1,74,-1
 120.799804688 1584.24023438 l 1,75,-1
 120.799804688 1582.59960938 l 1,76,-1
 76.51953125 1559.63964844 l 1,77,-1
 76.51953125 1558 l 1,78,79
 110.60546875 1569.10742188 110.60546875 1569.10742188 214.280273438 1587.51953125 c 0,80,81
 220.046875 1588.56835938 220.046875 1588.56835938 234.693359375 1589.69335938 c 0,82,83
 268.661132812 1592.9140625 268.661132812 1592.9140625 279.879882812 1599 c 1,84,85
 288.525390625 1605.859375 288.525390625 1605.859375 297.919921875 1635.08007812 c 1,86,87
 198.676757812 1630.56933594 198.676757812 1630.56933594 170.567382812 1637.83691406 c 0,88,89
 133.364257812 1648.49414062 133.364257812 1648.49414062 104.400390625 1674.44042969 c 1,90,91
 81.3974609375 1698.36621094 81.3974609375 1698.36621094 76.51953125 1707.24023438 c 0,92,93
 72.42578125 1718.17285156 72.42578125 1718.17285156 69.9599609375 1756.44042969 c 1,60,61
211 1726.91992188 m 1,94,95
 200.672851562 1717.71679688 200.672851562 1717.71679688 199.51953125 1717.08007812 c 0,96,97
 193.620117188 1719.30957031 193.620117188 1719.30957031 186.400390625 1726.91992188 c 1,98,99
 169.75390625 1732.29199219 169.75390625 1732.29199219 156.879882812 1713.79980469 c 1,100,101
 211.551757812 1669.54199219 211.551757812 1669.54199219 268.400390625 1684.28027344 c 1,102,103
 251.353515625 1714.58691406 251.353515625 1714.58691406 229.040039062 1722 c 1,104,105
 218.723632812 1715.17578125 218.723632812 1715.17578125 211 1726.91992188 c 1,94,95
92.919921875 1503.87988281 m 1,106,-1
 91.2802734375 1502.24023438 l 1,107,-1
 92.919921875 1503.87988281 l 1,106,-1
EndSplineSet
EndChar

StartChar: uni0655
Encoding: 1621 1621 321
Width: 75
VWidth: 1639
GlyphClass: 2
Flags: HW
AnchorPoint: "GposMark2BaseAnchorClassErabBelow_01_02" -35.2402 -107.099 mark 0
LayerCount: 2
Fore
SplineSet
-184.48046875 -410 m 1,0,1
 -226.430664062 -378.623046875 -226.430664062 -378.623046875 -227.120117188 -311.599609375 c 1,2,3
 -225.6875 -225.50390625 -225.6875 -225.50390625 -143.48046875 -154.16015625 c 0,4,5
 -104.607421875 -119.786132812 -104.607421875 -119.786132812 -66.400390625 -114.799804688 c 1,6,7
 25.5205078125 -107.098632812 25.5205078125 -107.098632812 46.759765625 -139.400390625 c 1,8,9
 53.2978515625 -152.430664062 53.2978515625 -152.430664062 53.3203125 -180.400390625 c 0,10,11
 52.7607421875 -203.268554688 52.7607421875 -203.268554688 51.6796875 -206.639648438 c 1,12,13
 108.18359375 -227.83203125 108.18359375 -227.83203125 74.6396484375 -329.639648438 c 1,14,-1
 104.16015625 -324.719726562 l 1,15,-1
 102.51953125 -328 l 1,16,-1
 127.120117188 -324.719726562 l 1,17,-1
 125.479492188 -328 l 1,18,-1
 150.080078125 -324.719726562 l 1,19,-1
 140.240234375 -349.3203125 l 1,20,-1
 150.080078125 -347.6796875 l 1,21,-1
 140.240234375 -372.280273438 l 1,22,-1
 150.080078125 -370.639648438 l 1,23,-1
 128.759765625 -423.120117188 l 1,24,-1
 184.51953125 -413.280273438 l 1,25,-1
 155 -480.51953125 l 1,26,-1
 141.879882812 -506.759765625 l 1,27,-1
 110.719726562 -513.3203125 l 1,28,-1
 40.2001953125 -526.440429688 l 1,29,-1
 -81.16015625 -554.3203125 l 1,30,-1
 -174.639648438 -587.120117188 l 1,31,32
 -166.604492188 -554.5078125 -166.604492188 -554.5078125 -128.719726562 -516.599609375 c 1,33,-1
 -209.080078125 -544.48046875 l 1,34,-1
 -205.799804688 -534.639648438 l 1,35,-1
 -232.040039062 -544.48046875 l 1,36,-1
 -228.759765625 -534.639648438 l 1,37,-1
 -255 -544.48046875 l 1,38,-1
 -246.799804688 -518.240234375 l 1,39,-1
 -255 -521.51953125 l 1,40,-1
 -246.799804688 -495.280273438 l 1,41,-1
 -255 -498.559570312 l 1,42,43
 -241.817382812 -443.192382812 -241.817382812 -443.192382812 -195.905273438 -417.059570312 c 0,44,45
 -189.390625 -413.643554688 -189.390625 -413.643554688 -184.48046875 -411.639648438 c 1,46,-1
 -184.48046875 -410 l 1,0,1
0.83984375 -224.6796875 m 1,47,48
 3.9970703125 -196.208984375 3.9970703125 -196.208984375 2.4794921875 -191.879882812 c 0,49,50
 -12.287109375 -147.579101562 -12.287109375 -147.579101562 -64.509765625 -174.444335938 c 0,51,52
 -85.6630859375 -186.2578125 -85.6630859375 -186.2578125 -97.5595703125 -201.719726562 c 1,53,54
 -31.2041015625 -202.848632812 -31.2041015625 -202.848632812 0.83984375 -224.6796875 c 1,47,48
-74.599609375 -252.559570312 m 1,55,56
 -89.4423828125 -246.994140625 -89.4423828125 -246.994140625 -95.0087890625 -260.212890625 c 0,57,58
 -96.2822265625 -266.854492188 -96.2822265625 -266.854492188 -94.2802734375 -272.240234375 c 1,59,-1
 -74.599609375 -252.559570312 l 1,55,56
-150.040039062 -262.400390625 m 1,60,61
 -159.412109375 -272.80078125 -159.412109375 -272.80078125 -164.799804688 -285.360351562 c 0,62,63
 -178.411132812 -314.40625 -178.411132812 -314.40625 -177.919921875 -323.080078125 c 0,64,65
 -174.639648438 -354.240234375 -174.639648438 -354.240234375 -101.014648438 -387.833984375 c 2,66,-1
 -99.2001953125 -388.6796875 l 1,67,-1
 -99.2001953125 -390.3203125 l 1,68,-1
 -120.520507812 -398.51953125 l 1,69,-1
 -120.520507812 -400.16015625 l 1,70,-1
 -99.2001953125 -411.639648438 l 1,71,-1
 -99.2001953125 -413.280273438 l 1,72,-1
 -120.520507812 -421.48046875 l 1,73,-1
 -120.520507812 -423.120117188 l 1,74,-1
 -99.2001953125 -434.599609375 l 1,75,-1
 -99.2001953125 -436.240234375 l 1,76,-1
 -143.48046875 -459.200195312 l 1,77,-1
 -143.48046875 -460.83984375 l 1,78,79
 -109.39453125 -449.733398438 -109.39453125 -449.733398438 -5.7197265625 -431.3203125 c 0,80,81
 0.046875 -430.271484375 0.046875 -430.271484375 14.693359375 -429.146484375 c 0,82,83
 48.6611328125 -425.92578125 48.6611328125 -425.92578125 59.8798828125 -419.83984375 c 1,84,85
 68.525390625 -412.98046875 68.525390625 -412.98046875 77.919921875 -383.759765625 c 1,86,87
 -21.3232421875 -388.271484375 -21.3232421875 -388.271484375 -49.4326171875 -381.002929688 c 0,88,89
 -86.6357421875 -370.346679688 -86.6357421875 -370.346679688 -115.599609375 -344.400390625 c 1,90,91
 -138.602539062 -320.473632812 -138.602539062 -320.473632812 -143.48046875 -311.599609375 c 0,92,93
 -147.57421875 -300.666992188 -147.57421875 -300.666992188 -150.040039062 -262.400390625 c 1,60,61
-9 -291.919921875 m 1,94,95
 -19.3271484375 -301.123046875 -19.3271484375 -301.123046875 -20.48046875 -301.759765625 c 0,96,97
 -26.3798828125 -299.530273438 -26.3798828125 -299.530273438 -33.599609375 -291.919921875 c 1,98,99
 -50.24609375 -286.548828125 -50.24609375 -286.548828125 -63.1201171875 -305.040039062 c 1,100,101
 -8.4482421875 -349.298828125 -8.4482421875 -349.298828125 48.400390625 -334.559570312 c 1,102,103
 31.353515625 -304.252929688 31.353515625 -304.252929688 9.0400390625 -296.83984375 c 1,104,105
 -1.2763671875 -303.6640625 -1.2763671875 -303.6640625 -9 -291.919921875 c 1,94,95
-127.080078125 -514.959960938 m 1,106,-1
 -128.719726562 -516.599609375 l 1,107,-1
 -127.080078125 -514.959960938 l 1,106,-1
EndSplineSet
EndChar

StartChar: uni0656
Encoding: 1622 1622 322
Width: 104
VWidth: 1639
GlyphClass: 2
Flags: HW
AnchorPoint: "GposMark2BaseAnchorClassErabBelow_01_02" -7.52881 -114.8 mark 0
LayerCount: 2
Fore
SplineSet
32.3203125 -611.719726562 m 1,0,1
 21.2451171875 -622.794921875 21.2451171875 -622.794921875 -11.2275390625 -621.434570312 c 0,2,3
 -17.9189453125 -621.33984375 -17.9189453125 -621.33984375 -21.7998046875 -621.559570312 c 0,4,5
 -41.43359375 -620.21484375 -41.43359375 -620.21484375 -43.1201171875 -618.280273438 c 0,6,7
 -46.744140625 -609.573242188 -46.744140625 -609.573242188 -46.3994140625 -583.83984375 c 1,8,9
 -48.859375 -570.719726562 -48.859375 -570.719726562 -52.9599609375 -545.299804688 c 0,10,11
 -57.197265625 -519.2890625 -57.197265625 -519.2890625 -59.51953125 -506.759765625 c 0,12,13
 -92.3681640625 -355.333007812 -92.3681640625 -355.333007812 -105.439453125 -280.440429688 c 0,14,15
 -108.833007812 -255.865234375 -108.833007812 -255.865234375 -112 -211.559570312 c 1,16,-1
 -112 -177.120117188 l 1,17,18
 -109.196289062 -170.54296875 -109.196289062 -170.54296875 -92.3193359375 -159.080078125 c 1,19,20
 -45.6337890625 -120.8828125 -45.6337890625 -120.8828125 -42.068359375 -118.922851562 c 0,21,22
 -36.7705078125 -116.2578125 -36.7705078125 -116.2578125 -33.279296875 -114.799804688 c 1,23,-1
 -31.6396484375 -127.919921875 l 1,24,-1
 -10.3193359375 -114.799804688 l 1,25,-1
 -8.6796875 -127.919921875 l 1,26,-1
 12.640625 -114.799804688 l 1,27,-1
 14.2802734375 -170.559570312 l 1,28,-1
 19.2001953125 -221.400390625 l 1,29,-1
 47.080078125 -203.360351562 l 1,30,31
 50.3603515625 -203.360351562 50.3603515625 -203.360351562 48.720703125 -222.219726562 c 2,32,-1
 47.080078125 -241.080078125 l 2,33,34
 47.2685546875 -242.96484375 47.2685546875 -242.96484375 56.919921875 -332.919921875 c 0,35,36
 61.0205078125 -359.98046875 61.0205078125 -359.98046875 69.220703125 -413.280273438 c 0,37,38
 77.50390625 -467.1484375 77.50390625 -467.1484375 81.5205078125 -493.639648438 c 0,39,40
 96.9423828125 -566.893554688 96.9423828125 -566.893554688 94.640625 -588.759765625 c 0,41,42
 88.1162109375 -629.943359375 88.1162109375 -629.943359375 66.7607421875 -654.360351562 c 1,43,44
 48.810546875 -669.549804688 48.810546875 -669.549804688 38.8798828125 -662.559570312 c 0,45,46
 37.240234375 -660.919921875 37.240234375 -660.919921875 35.6005859375 -656.8203125 c 128,-1,47
 33.9599609375 -652.719726562 33.9599609375 -652.719726562 33.140625 -648.620117188 c 128,-1,48
 32.3203125 -644.51953125 32.3203125 -644.51953125 32.3203125 -637.959960938 c 128,-1,49
 32.3203125 -631.400390625 32.3203125 -631.400390625 32.3203125 -628.120117188 c 128,-1,50
 32.3203125 -624.83984375 32.3203125 -624.83984375 32.3203125 -618.280273438 c 2,51,-1
 32.3203125 -611.719726562 l 1,0,1
-33.279296875 -195.16015625 m 1,52,53
 -55.556640625 -209.904296875 -55.556640625 -209.904296875 -59.51953125 -218.120117188 c 0,54,55
 -62.7998046875 -224.6796875 -62.7998046875 -224.6796875 -58.5244140625 -238.595703125 c 2,56,-1
 -57.8798828125 -241.080078125 l 1,57,-1
 -49.6796875 -293.559570312 l 2,58,59
 -44.2626953125 -324.254882812 -44.2626953125 -324.254882812 -28.9912109375 -385.727539062 c 0,60,61
 -2.759765625 -492.702148438 -2.759765625 -492.702148438 -0.4794921875 -546.120117188 c 1,62,-1
 1.16015625 -546.120117188 l 1,63,64
 14.9345703125 -511.685546875 14.9345703125 -511.685546875 -1.3955078125 -433.221679688 c 0,65,66
 -2.9033203125 -425.866210938 -2.9033203125 -425.866210938 -3.759765625 -421.48046875 c 0,67,68
 -30.9931640625 -245.237304688 -30.9931640625 -245.237304688 -33.279296875 -195.16015625 c 1,52,53
EndSplineSet
EndChar

StartChar: uni0670
Encoding: 1648 1648 326
Width: 104
VWidth: 1639
GlyphClass: 2
Flags: HW
AnchorPoint: "GposMark2BaseAnchorHamzaErabAbove_01_01" 159.471 1428.01 mark 0
AnchorPoint: "GposMark2BaseAnchorHamzaErabBelow_01_01" 159.471 1982.76 mark 0
AnchorPoint: "GposMark2BaseAnchorClassErabAbove_01_02" 159.471 1428.01 mark 0
AnchorPoint: "GposMark2MarkAnchorHamzaErabAbove_01_01" 159.471 1428.01 mark 0
AnchorPoint: "GposMark2MarkAnchorHamzaErabBelow_01_01" 159.471 1982.76 mark 0
AnchorPoint: "GposMark2MarkAnchorShaddaErabAbove_01_02" 159.471 1428.01 mark 0
AnchorPoint: "GposMark2MarkAnchorShaddaErabBelow_01_02" 159.471 1982.76 mark 0
LayerCount: 2
Fore
SplineSet
199.3203125 1485.83984375 m 1,0,1
 188.245117188 1474.76464844 188.245117188 1474.76464844 155.772460938 1476.12597656 c 0,2,3
 149.081054688 1476.22070312 149.081054688 1476.22070312 145.200195312 1476 c 0,4,5
 125.56640625 1477.34472656 125.56640625 1477.34472656 123.879882812 1479.28027344 c 0,6,7
 120.255859375 1487.98730469 120.255859375 1487.98730469 120.600585938 1513.71972656 c 1,8,9
 118.140625 1526.83984375 118.140625 1526.83984375 114.040039062 1552.25976562 c 0,10,11
 109.802734375 1578.27050781 109.802734375 1578.27050781 107.48046875 1590.79980469 c 0,12,13
 74.6318359375 1742.2265625 74.6318359375 1742.2265625 61.560546875 1817.12011719 c 0,14,15
 58.1669921875 1841.69433594 58.1669921875 1841.69433594 55 1886 c 1,16,-1
 55 1920.44042969 l 1,17,18
 57.8037109375 1927.01757812 57.8037109375 1927.01757812 74.6806640625 1938.48046875 c 1,19,20
 121.366210938 1976.67773438 121.366210938 1976.67773438 124.931640625 1978.63671875 c 0,21,22
 130.229492188 1981.30273438 130.229492188 1981.30273438 133.720703125 1982.75976562 c 1,23,-1
 135.360351562 1969.63964844 l 1,24,-1
 156.680664062 1982.75976562 l 1,25,-1
 158.3203125 1969.63964844 l 1,26,-1
 179.640625 1982.75976562 l 1,27,-1
 181.280273438 1927 l 1,28,-1
 186.200195312 1876.16015625 l 1,29,-1
 214.080078125 1894.20019531 l 1,30,31
 217.360351562 1894.20019531 217.360351562 1894.20019531 215.720703125 1875.33984375 c 2,32,-1
 214.080078125 1856.48046875 l 2,33,34
 214.268554688 1854.59472656 214.268554688 1854.59472656 223.919921875 1764.63964844 c 0,35,36
 228.020507812 1737.58007812 228.020507812 1737.58007812 236.220703125 1684.28027344 c 0,37,38
 244.50390625 1630.41113281 244.50390625 1630.41113281 248.520507812 1603.91992188 c 0,39,40
 263.942382812 1530.66699219 263.942382812 1530.66699219 261.640625 1508.79980469 c 0,41,42
 255.116210938 1467.61621094 255.116210938 1467.61621094 233.760742188 1443.20019531 c 1,43,44
 215.810546875 1428.00976562 215.810546875 1428.00976562 205.879882812 1435 c 0,45,46
 204.240234375 1436.63964844 204.240234375 1436.63964844 202.600585938 1440.74023438 c 128,-1,47
 200.959960938 1444.83984375 200.959960938 1444.83984375 200.140625 1448.94042969 c 128,-1,48
 199.3203125 1453.04003906 199.3203125 1453.04003906 199.3203125 1459.59960938 c 128,-1,49
 199.3203125 1466.16015625 199.3203125 1466.16015625 199.3203125 1469.44042969 c 128,-1,50
 199.3203125 1472.71972656 199.3203125 1472.71972656 199.3203125 1479.28027344 c 2,51,-1
 199.3203125 1485.83984375 l 1,0,1
133.720703125 1902.40039062 m 1,52,53
 111.443359375 1887.65527344 111.443359375 1887.65527344 107.48046875 1879.44042969 c 0,54,55
 104.200195312 1872.87988281 104.200195312 1872.87988281 108.475585938 1858.96386719 c 2,56,-1
 109.120117188 1856.48046875 l 1,57,-1
 117.3203125 1804 l 2,58,59
 122.737304688 1773.3046875 122.737304688 1773.3046875 138.008789062 1711.83300781 c 0,60,61
 164.240234375 1604.85742188 164.240234375 1604.85742188 166.520507812 1551.44042969 c 1,62,-1
 168.16015625 1551.44042969 l 1,63,64
 181.934570312 1585.87402344 181.934570312 1585.87402344 165.604492188 1664.33789062 c 0,65,66
 164.096679688 1671.69335938 164.096679688 1671.69335938 163.240234375 1676.08007812 c 0,67,68
 136.006835938 1852.32324219 136.006835938 1852.32324219 133.720703125 1902.40039062 c 1,52,53
EndSplineSet
EndChar

StartChar: uni0674
Encoding: 1652 1652 327
Width: 110
GlyphClass: 2
Flags: HW
AnchorPoint: "GposMark2BaseAnchorClassErabAbove_01_02" 359.5 1014 mark 0
AnchorPoint: "GposMark2MarkAnchorHamzaErabAbove_01_01" 359.5 1579 basemark 0
AnchorPoint: "GposMark2MarkAnchorHamzaErabBelow_01_01" 359.5 864 basemark 0
LayerCount: 2
Fore
SplineSet
533 1178 m 2,0,1
 528 1160 528 1160 521 1145 c 128,-1,2
 514 1130 514 1130 509 1129 c 0,3,4
 461 1118 461 1118 421 1109 c 128,-1,5
 381 1100 381 1100 363 1095 c 0,6,7
 317 1082 317 1082 274 1062 c 128,-1,8
 231 1042 231 1042 196 1018 c 1,9,10
 192 1014 192 1014 188 1014 c 0,11,12
 185 1014 185 1014 180 1018 c 128,-1,13
 175 1022 175 1022 175 1025 c 256,14,15
 175 1028 175 1028 180 1032 c 1,16,-1
 180 1031 l 1,17,18
 191 1051 191 1051 217 1076 c 128,-1,19
 243 1101 243 1101 283 1136 c 1,20,21
 195 1171 195 1171 195 1233 c 0,22,23
 195 1282 195 1282 269 1355 c 1,24,25
 346 1429 346 1429 410 1429 c 0,26,27
 421 1429 421 1429 433.5 1425.5 c 128,-1,28
 446 1422 446 1422 456 1415.5 c 128,-1,29
 466 1409 466 1409 472.5 1400.5 c 128,-1,30
 479 1392 479 1392 479 1382 c 0,31,32
 479 1368 479 1368 475.5 1353.5 c 128,-1,33
 472 1339 472 1339 466 1327 c 128,-1,34
 460 1315 460 1315 452.5 1307.5 c 128,-1,35
 445 1300 445 1300 437 1300 c 0,36,37
 433 1300 433 1300 425.5 1307.5 c 128,-1,38
 418 1315 418 1315 408 1323.5 c 128,-1,39
 398 1332 398 1332 385.5 1339.5 c 128,-1,40
 373 1347 373 1347 359 1347 c 256,41,42
 345 1347 345 1347 329 1339.5 c 128,-1,43
 313 1332 313 1332 299 1321.5 c 128,-1,44
 285 1311 285 1311 276 1299 c 128,-1,45
 267 1287 267 1287 267 1277 c 0,46,47
 267 1259 267 1259 279 1244 c 128,-1,48
 291 1229 291 1229 309.5 1218 c 128,-1,49
 328 1207 328 1207 352 1201 c 128,-1,50
 376 1195 376 1195 400 1195 c 0,51,52
 403 1195 403 1195 424 1200 c 128,-1,53
 445 1205 445 1205 470 1210.5 c 128,-1,54
 495 1216 495 1216 517 1221 c 128,-1,55
 539 1226 539 1226 544 1226 c 1,56,-1
 533 1178 l 2,0,1
EndSplineSet
EndChar

StartChar: afii57388
Encoding: 1548 1548 329
Width: 685
VWidth: 1639
GlyphClass: 2
Flags: W
LayerCount: 2
Fore
SplineSet
441.83984375 95.1201171875 m 1,0,1
 479.716796875 75.568359375 479.716796875 75.568359375 476.279296875 1.6396484375 c 1,2,3
 472.262695312 -40.0595703125 472.262695312 -40.0595703125 464.799804688 -57.400390625 c 0,4,5
 433.153320312 -121.09765625 433.153320312 -121.09765625 346.719726562 -113.16015625 c 0,6,7
 322.604492188 -111.063476562 322.604492188 -111.063476562 277.798828125 -81.3447265625 c 0,8,9
 267.146484375 -74.5048828125 267.146484375 -74.5048828125 259.799804688 -70.51953125 c 0,8,9
 255.553710938 -67.97265625 255.553710938 -67.97265625 245.10546875 -65.46875 c 0,10,11
 234.568359375 -62.5771484375 234.568359375 -62.5771484375 230.279296875 -60.6796875 c 0,10,11
 202.744140625 -49.205078125 202.744140625 -49.205078125 174.51953125 -21.3203125 c 1,12,13
 104.387695312 56.8232421875 104.387695312 56.8232421875 104 195.16015625 c 0,14,15
 105.012695312 341.625 105.012695312 341.625 167.959960938 432.959960938 c 1,16,17
 217.979492188 500.564453125 217.979492188 500.564453125 295.879882812 547.759765625 c 0,18,19
 298.48828125 548.877929688 298.48828125 548.877929688 306.471679688 553.470703125 c 0,20,21
 341.197265625 571.750976562 341.197265625 571.750976562 348.359375 562.51953125 c 1,20,21
 365.704101562 570.362304688 365.704101562 570.362304688 371.319335938 562.51953125 c 1,22,23
 388.061523438 572.564453125 388.061523438 572.564453125 393.045898438 562.51953125 c 1,24,25
 394.109375 554.973632812 394.109375 554.973632812 387.719726562 546.120117188 c 1,24,25
 398.568359375 537.377929688 398.568359375 537.377929688 387.719726562 523.16015625 c 1,26,27
 407.399414062 513.3203125 407.399414062 513.3203125 372.036132812 491.268554688 c 0,28,29
 371.319335938 490.360351562 371.319335938 490.360351562 369.6796875 489.540039062 c 2,30,-1
 368.040039062 488.719726562 l 1,28,29
 283.073242188 434.098632812 283.073242188 434.098632812 257.77734375 358.194335938 c 0,30,31
 256.883789062 355.39453125 256.883789062 355.39453125 256.51953125 354.240234375 c 2,30,-1
 258.159179688 354.240234375 l 1,31,32
 259.799804688 359.16015625 259.799804688 359.16015625 262.259765625 362.440429688 c 0,33,34
 264.719726562 365.719726562 264.719726562 365.719726562 268.819335938 370.639648438 c 0,35,36
 272.919921875 375.559570312 272.919921875 375.559570312 274.559570312 377.200195312 c 0,37,38
 276.19921875 378.83984375 276.19921875 378.83984375 282.759765625 385.400390625 c 2,39,-1
 289.319335938 391.959960938 l 2,33,34
 324.110351562 426.104492188 324.110351562 426.104492188 376.239257812 459.200195312 c 1,35,36
 415.734375 478.490234375 415.734375 478.490234375 417.239257812 478.879882812 c 0,37,38
 427.981445312 478.408203125 427.981445312 478.408203125 428.719726562 469.040039062 c 0,39,40
 428.719726562 465.759765625 428.719726562 465.759765625 424.620117188 461.66015625 c 0,41,42
 420.51953125 457.559570312 420.51953125 457.559570312 418.059570312 455.099609375 c 0,43,44
 415.599609375 452.639648438 415.599609375 452.639648438 409.040039062 449.360351562 c 2,45,-1
 402.479492188 446.080078125 l 1,41,42
 371.094726562 425.25390625 371.094726562 425.25390625 341.799804688 393.599609375 c 1,43,44
 271.822265625 309.200195312 271.822265625 309.200195312 266.359375 203.360351562 c 1,45,46
 373.342773438 224.234375 373.342773438 224.234375 420.088867188 169.90234375 c 0,47,48
 434.903320312 151.200195312 434.903320312 151.200195312 440.19921875 127.919921875 c 1,47,48
 443.310546875 106.426757812 443.310546875 106.426757812 441.83984375 95.1201171875 c 1,0,1
256.51953125 354.240234375 m 1,49,-1
 254.879882812 352.599609375 l 1,50,-1
 256.51953125 354.240234375 l 1,49,-1
194.19921875 350.959960938 m 1,51,52
 181.124023438 333.971679688 181.124023438 333.971679688 166.319335938 285.360351562 c 0,53,54
 125.57421875 150.614257812 125.57421875 150.614257812 202.399414062 45.919921875 c 0,55,56
 259.811523438 -31.75390625 259.811523438 -31.75390625 318.948242188 -21.1279296875 c 0,57,58
 325.524414062 -19.6630859375 325.524414062 -19.6630859375 330.319335938 -18.0400390625 c 0,57,58
 380.483398438 -0.0322265625 380.483398438 -0.0322265625 391.818359375 56.33984375 c 1,59,60
 401.09765625 112.419921875 401.09765625 112.419921875 358.19921875 141.040039062 c 0,59,60
 321.458007812 166.090820312 321.458007812 166.090820312 261.6953125 142.163085938 c 0,61,62
 257.756835938 140.573242188 257.756835938 140.573242188 254.879882812 139.400390625 c 1,61,-1
 251.599609375 147.599609375 l 1,62,-1
 231.919921875 139.400390625 l 1,63,-1
 228.639648438 147.599609375 l 1,64,-1
 208.959960938 139.400390625 l 1,65,66
 171.173828125 238.739257812 171.173828125 238.739257812 194.19921875 350.959960938 c 1,51,52
EndSplineSet
EndChar

StartChar: afii57403
Encoding: 1563 1563 334
Width: 685
VWidth: 1639
GlyphClass: 2
Flags: W
LayerCount: 2
Fore
SplineSet
441.83984375 523.16015625 m 1,0,1
 479.470703125 501.658203125 479.470703125 501.658203125 476.279296875 429.6796875 c 1,2,3
 472.33984375 380.430664062 472.33984375 380.430664062 454.959960938 354.240234375 c 0,4,5
 420.209960938 306.060546875 420.209960938 306.060546875 340.159179688 314.879882812 c 0,6,7
 320.56640625 318.612304688 320.56640625 318.612304688 274.329101562 348.85546875 c 0,8,9
 265.7421875 354.271484375 265.7421875 354.271484375 259.799804688 357.51953125 c 0,8,9
 254.879882812 359.98046875 254.879882812 359.98046875 243.399414062 362.440429688 c 0,10,11
 231.567382812 365.356445312 231.567382812 365.356445312 227 367.360351562 c 0,10,11
 196.844726562 382.166992188 196.844726562 382.166992188 169.599609375 411.639648438 c 0,12,13
 104.3671875 486.805664062 104.3671875 486.805664062 104 619.919921875 c 0,14,15
 105.025390625 769.901367188 105.025390625 769.901367188 169.599609375 862.639648438 c 1,16,17
 222.944335938 932.306640625 222.944335938 932.306640625 295.879882812 974.16015625 c 1,18,19
 339.672851562 1001.52246094 339.672851562 1001.52246094 348.359375 990.559570312 c 1,20,21
 365.704101562 998.40234375 365.704101562 998.40234375 371.319335938 990.559570312 c 1,22,23
 388.061523438 1000.60449219 388.061523438 1000.60449219 393.045898438 990.559570312 c 1,24,25
 394.109375 983.013671875 394.109375 983.013671875 387.719726562 974.16015625 c 1,24,25
 398.568359375 965.41796875 398.568359375 965.41796875 387.719726562 951.200195312 c 1,26,27
 405.010742188 939.982421875 405.010742188 939.982421875 371.319335938 918.400390625 c 0,28,29
 287.204101562 862.565429688 287.204101562 862.565429688 256.51953125 782.280273438 c 1,30,-1
 258.159179688 782.280273438 l 1,31,32
 281.811523438 828.8671875 281.811523438 828.8671875 376.239257812 885.599609375 c 0,33,34
 396.236328125 899.337890625 396.236328125 899.337890625 415.599609375 906.919921875 c 1,35,36
 427.791992188 907.16796875 427.791992188 907.16796875 428.719726562 897.080078125 c 1,37,38
 427.666992188 889.712890625 427.666992188 889.712890625 407.703125 876.67578125 c 0,39,40
 405.024414062 874.767578125 405.024414062 874.767578125 404.120117188 874.120117188 c 0,39,40
 369.276367188 851.075195312 369.276367188 851.075195312 343.439453125 823.280273438 c 0,41,42
 268.809570312 738.077148438 268.809570312 738.077148438 266.359375 631.400390625 c 1,43,44
 362.064453125 633.79296875 362.064453125 633.79296875 390.788085938 621.668945312 c 0,45,46
 429.998046875 602.735351562 429.998046875 602.735351562 440.19921875 559.240234375 c 1,45,46
 443.22265625 535.078125 443.22265625 535.078125 441.83984375 523.16015625 c 1,0,1
256.51953125 782.280273438 m 1,47,-1
 254.879882812 780.639648438 l 1,48,-1
 256.51953125 782.280273438 l 1,47,-1
194.19921875 779 m 1,49,50
 179.439453125 760.959960938 179.439453125 760.959960938 165.13671875 710.08203125 c 2,51,-1
 164.6796875 708.48046875 l 1,51,52
 129.788085938 578.685546875 129.788085938 578.685546875 200.759765625 475.599609375 c 1,53,54
 262.544921875 392.0078125 262.544921875 392.0078125 324.529296875 408.217773438 c 0,55,56
 327.446289062 408.98046875 327.446289062 408.98046875 330.319335938 410 c 0,55,56
 381.76953125 428.0078125 381.76953125 428.0078125 392.000976562 485.403320312 c 0,57,58
 402.23046875 542.791015625 402.23046875 542.791015625 354.919921875 572.360351562 c 1,57,58
 318.420898438 591.606445312 318.420898438 591.606445312 254.879882812 567.440429688 c 1,59,-1
 251.599609375 575.639648438 l 1,60,-1
 231.919921875 567.440429688 l 1,61,-1
 228.639648438 575.639648438 l 1,62,-1
 208.959960938 567.440429688 l 1,63,64
 171.173828125 666.779296875 171.173828125 666.779296875 194.19921875 779 c 1,49,50
240.120117188 175.48046875 m 0,65,66
 347.889648438 186.583007812 347.889648438 186.583007812 382.799804688 118.080078125 c 0,67,68
 386.890625 109.899414062 386.890625 109.899414062 387.716796875 90.4716796875 c 0,69,70
 389.201171875 71.1318359375 389.201171875 71.1318359375 392.639648438 63.9599609375 c 0,69,70
 396.235351562 56.76953125 396.235351562 56.76953125 405.96484375 44.2578125 c 0,71,72
 418.413085938 27.3017578125 418.413085938 27.3017578125 422.159179688 18.0400390625 c 0,71,72
 439.553710938 -41.0986328125 439.553710938 -41.0986328125 394.256835938 -83.7578125 c 0,73,74
 371.397460938 -103.763671875 371.397460938 -103.763671875 343.439453125 -108.240234375 c 1,73,74
 298.471679688 -112.6328125 298.471679688 -112.6328125 268 -90.2001953125 c 0,75,76
 264.740234375 -87.591796875 264.740234375 -87.591796875 258.688476562 -80.765625 c 0,77,78
 248.474609375 -70.31640625 248.474609375 -70.31640625 243.399414062 -67.240234375 c 0,77,78
 241.33984375 -66.734375 241.33984375 -66.734375 215.51953125 -62.3203125 c 1,79,80
 175.362304688 -48.0380859375 175.362304688 -48.0380859375 156.479492188 -9.83984375 c 0,81,82
 151.3671875 2.8779296875 151.3671875 2.8779296875 148.279296875 44.2802734375 c 1,83,84
 147.231445312 137.806640625 147.231445312 137.806640625 205.6796875 165.639648438 c 0,85,86
 222.899414062 173.01953125 222.899414062 173.01953125 240.120117188 175.48046875 c 0,65,66
268 126.280273438 m 0,87,88
 229.42578125 120.189453125 229.42578125 120.189453125 206.0078125 79.98046875 c 0,89,90
 198.547851562 65.7529296875 198.547851562 65.7529296875 197.479492188 54.1201171875 c 0,89,90
 197.479492188 22.6689453125 197.479492188 22.6689453125 236.12109375 -5.1015625 c 0,91,92
 255.295898438 -18.880859375 255.295898438 -18.880859375 271.279296875 -18.0400390625 c 0,91,92
 308.400390625 -14.1328125 308.400390625 -14.1328125 332.529296875 24.9033203125 c 0,93,94
 341.903320312 41.7744140625 341.903320312 41.7744140625 341.799804688 55.759765625 c 0,93,94
 340.001953125 88.1142578125 340.001953125 88.1142578125 302.7578125 114.541992188 c 0,95,96
 283.296875 127.107421875 283.296875 127.107421875 268 126.280273438 c 0,87,88
EndSplineSet
EndChar

StartChar: afii57407
Encoding: 1567 1567 335
Width: 1059
VWidth: 1639
GlyphClass: 2
Flags: W
LayerCount: 2
Fore
SplineSet
546.143554688 213.200195312 m 2,0,1
 546.143554688 209.919921875 546.143554688 209.919921875 516.624023438 211.559570312 c 2,2,-1
 487.104492188 213.200195312 l 2,2,3
 468.456054688 214.22265625 468.456054688 214.22265625 465.784179688 216.48046875 c 0,4,5
 463.21484375 220.448242188 463.21484375 220.448242188 464.143554688 247.639648438 c 0,6,7
 464.235351562 253.721679688 464.235351562 253.721679688 469.064453125 337.83984375 c 0,8,9
 471.954101562 389.926757812 471.954101562 389.926757812 418.223632812 447.719726562 c 0,10,11
 394.069335938 474.619140625 394.069335938 474.619140625 289.39453125 564.76171875 c 0,12,13
 217.654296875 626.541015625 217.654296875 626.541015625 183.704101562 675.6796875 c 0,12,13
 82.4267578125 823.700195312 82.4267578125 823.700195312 109.83984375 1007.22558594 c 0,14,15
 137.677734375 1183.8046875 137.677734375 1183.8046875 270.624023438 1280.83984375 c 1,14,15
 390.122070312 1365.60058594 390.122070312 1365.60058594 549.639648438 1338.50976562 c 0,16,17
 676.129882812 1315.84863281 676.129882812 1315.84863281 752.784179688 1231.63964844 c 1,16,17
 786.744140625 1191.02539062 786.744140625 1191.02539062 801.984375 1152.91992188 c 0,18,19
 804.444335938 1145.54003906 804.444335938 1145.54003906 807.723632812 1130.78027344 c 0,20,21
 811.294921875 1115.47363281 811.294921875 1115.47363281 813.463867188 1108.63964844 c 0,20,21
 816.208984375 1102.46484375 816.208984375 1102.46484375 822.8203125 1090.734375 c 0,22,23
 831.913085938 1073.94921875 831.913085938 1073.94921875 834.784179688 1066 c 0,22,23
 853.4296875 1017.51464844 853.4296875 1017.51464844 851.18359375 961.040039062 c 0,24,25
 844.4140625 861.1875 844.4140625 861.1875 779.260742188 808.703125 c 0,26,27
 729.879882812 770.931640625 729.879882812 770.931640625 669.143554688 783.919921875 c 0,26,27
 642.489257812 790.665039062 642.489257812 790.665039062 626.50390625 803.599609375 c 0,28,29
 623.482421875 805.866210938 623.482421875 805.866210938 618.885742188 812.408203125 c 0,30,31
 612.76171875 819.673828125 612.76171875 819.673828125 610.104492188 821.639648438 c 0,30,31
 601.266601562 826.3984375 601.266601562 826.3984375 583.09765625 830.265625 c 0,32,33
 557.249023438 836.798828125 557.249023438 836.798828125 546.143554688 846.240234375 c 0,32,33
 520.048828125 870.59375 520.048828125 870.59375 519.904296875 929.879882812 c 0,34,35
 519.904296875 1013.6875 519.904296875 1013.6875 542.780273438 1045.51855469 c 0,36,37
 552.788085938 1058.3125 552.788085938 1058.3125 564.18359375 1067.63964844 c 0,36,37
 613.541015625 1104.33105469 613.541015625 1104.33105469 708.50390625 1087.3203125 c 1,38,39
 672.818359375 1145.80273438 672.818359375 1145.80273438 634.704101562 1166.04003906 c 1,40,41
 600.313476562 1182.31152344 600.313476562 1182.31152344 542.864257812 1175.87988281 c 0,42,43
 427.836914062 1164.92480469 427.836914062 1164.92480469 373.712890625 1076.2578125 c 0,44,45
 348.719726562 1033.61132812 348.719726562 1033.61132812 346.064453125 984 c 0,44,45
 342.950195312 926.396484375 342.950195312 926.396484375 400.709960938 835.366210938 c 0,46,47
 400.946289062 834.994140625 400.946289062 834.994140625 405.268554688 828.190429688 c 0,48,49
 407.1015625 825.305664062 407.1015625 825.305664062 408.383789062 823.280273438 c 0,46,47
 513.971679688 651.2109375 513.971679688 651.2109375 521.213867188 637.725585938 c 0,48,49
 530.501953125 620.288085938 530.501953125 620.288085938 537.944335938 605.16015625 c 0,48,49
 545.680664062 588.306640625 545.680664062 588.306640625 569.104492188 521.51953125 c 1,50,51
 609.9296875 419.456054688 609.9296875 419.456054688 614.6484375 388.005859375 c 0,52,53
 616.076171875 377.547851562 616.076171875 377.547851562 616.6640625 369 c 0,52,53
 618.940429688 337.88671875 618.940429688 337.88671875 602.498046875 226.462890625 c 0,54,55
 597.6796875 192.462890625 597.6796875 192.462890625 596.984375 168.919921875 c 1,54,-1
 559.263671875 170.559570312 l 1,55,-1
 546.143554688 173.83984375 l 1,56,-1
 546.143554688 213.200195312 l 2,0,1
646.18359375 1238.20019531 m 1,57,58
 557.923828125 1297.81835938 557.923828125 1297.81835938 473.984375 1293.95996094 c 1,59,60
 332.639648438 1284.66113281 332.639648438 1284.66113281 231.66015625 1150.7734375 c 0,61,62
 207.5703125 1118.26464844 207.5703125 1118.26464844 190.263671875 1084.04003906 c 0,61,62
 150.248046875 1002.13476562 150.248046875 1002.13476562 154.18359375 929.879882812 c 1,63,64
 166.499023438 786.674804688 166.499023438 786.674804688 252.583984375 692.080078125 c 0,65,66
 283.811523438 658.904296875 283.811523438 658.904296875 400.18359375 554.3203125 c 0,67,68
 478.802734375 481.546875 478.802734375 481.546875 501.864257812 439.51953125 c 1,69,70
 522.147460938 398.953125 522.147460938 398.953125 515.172851562 300.198242188 c 0,71,72
 513.416992188 273.774414062 513.416992188 273.774414062 513.34375 259.120117188 c 1,71,-1
 516.624023438 259.120117188 l 1,72,73
 517.405273438 283.329101562 517.405273438 283.329101562 526.404296875 331.749023438 c 0,74,75
 536.303710938 385.009765625 536.303710938 385.009765625 536.303710938 411.639648438 c 0,74,75
 535.6640625 459.931640625 535.6640625 459.931640625 501.864257812 537.919921875 c 0,76,77
 477.176757812 594.34765625 477.176757812 594.34765625 380.608398438 748.122070312 c 0,78,79
 349.954101562 797.165039062 349.954101562 797.165039062 331.303710938 831.48046875 c 0,78,79
 273.336914062 935.93359375 273.336914062 935.93359375 265.704101562 1002.04003906 c 1,80,81
 260.060546875 1080.43164062 260.060546875 1080.43164062 275.543945312 1128.3203125 c 0,82,83
 318.159179688 1253.50195312 318.159179688 1253.50195312 471.249023438 1265.18359375 c 0,84,85
 561.407226562 1271.34667969 561.407226562 1271.34667969 646.18359375 1236.55957031 c 1,84,-1
 646.18359375 1238.20019531 l 1,57,58
651.104492188 1234.91992188 m 1,85,-1
 649.463867188 1233.28027344 l 1,86,-1
 651.104492188 1234.91992188 l 1,85,-1
726.543945312 1018.44042969 m 1,87,88
 694.8203125 1035.1171875 694.8203125 1035.1171875 669.143554688 1039.75976562 c 0,89,90
 625.86328125 1048.71484375 625.86328125 1048.71484375 588.470703125 1000.86328125 c 0,91,92
 566.357421875 970.81640625 566.357421875 970.81640625 567.463867188 943 c 0,91,92
 570.74609375 897.05078125 570.74609375 897.05078125 615.274414062 877.204101562 c 0,93,94
 640.900390625 867.05078125 640.900390625 867.05078125 664.223632812 874.120117188 c 1,93,94
 687.998046875 883.846679688 687.998046875 883.846679688 700.303710938 895.440429688 c 0,95,96
 719.174804688 913.02734375 719.174804688 913.02734375 736.383789062 941.360351562 c 0,97,98
 755.318359375 969.76171875 755.318359375 969.76171875 767.543945312 1021.71972656 c 1,99,-1
 751.143554688 1028.28027344 l 1,100,-1
 749.50390625 1018.44042969 l 1,101,-1
 728.18359375 1028.28027344 l 1,102,-1
 726.543945312 1018.44042969 l 1,87,88
462.50390625 136.120117188 m 0,103,104
 576.60546875 151.520507812 576.60546875 151.520507812 613.383789062 83.6396484375 c 0,105,106
 620.4921875 68.21875 620.4921875 68.21875 623.223632812 50.83984375 c 1,107,108
 623.81640625 28.994140625 623.81640625 28.994140625 624.864257812 26.240234375 c 0,109,110
 628.364257812 18.5400390625 628.364257812 18.5400390625 638.315429688 5.578125 c 0,111,112
 651.329101562 -12.611328125 651.329101562 -12.611328125 654.383789062 -22.9599609375 c 0,111,112
 670.829101562 -83.2587890625 670.829101562 -83.2587890625 623.423828125 -124.586914062 c 0,113,114
 602.862304688 -141.223632812 602.862304688 -141.223632812 578.944335938 -145.959960938 c 0,113,114
 536.072265625 -153.525390625 536.072265625 -153.525390625 500.223632812 -127.919921875 c 0,115,116
 496.69921875 -125.100585938 496.69921875 -125.100585938 490.298828125 -118.293945312 c 0,117,118
 481.2421875 -109.3828125 481.2421875 -109.3828125 477.263671875 -106.599609375 c 0,117,118
 472.34375 -103.6484375 472.34375 -103.6484375 458.961914062 -101.286132812 c 0,119,120
 449.647460938 -99.435546875 449.647460938 -99.435546875 446.104492188 -98.400390625 c 0,119,120
 406.541992188 -83.4560546875 406.541992188 -83.4560546875 388.704101562 -47.5595703125 c 1,121,122
 381.971679688 -29.75390625 381.971679688 -29.75390625 382.143554688 11.48046875 c 0,123,124
 382.446289062 54.8857421875 382.446289062 54.8857421875 383.784179688 62.3203125 c 0,125,126
 398.046875 116.994140625 398.046875 116.994140625 450.946289062 133.338867188 c 0,127,128
 457.504882812 135.15625 457.504882812 135.15625 462.50390625 136.120117188 c 0,103,104
501.864257812 86.919921875 m 0,127,128
 467.166992188 86.919921875 467.166992188 86.919921875 440.518554688 45.8544921875 c 0,129,130
 430.301757812 28.5869140625 430.301757812 28.5869140625 429.704101562 14.759765625 c 0,129,130
 431.553710938 -20.3896484375 431.553710938 -20.3896484375 473.045898438 -45.7626953125 c 0,131,132
 489.392578125 -55.759765625 489.392578125 -55.759765625 503.50390625 -55.759765625 c 0,131,132
 536.473632812 -53.9287109375 536.473632812 -53.9287109375 562.537109375 -16.5078125 c 0,133,134
 574.094726562 1.7470703125 574.094726562 1.7470703125 574.024414062 16.400390625 c 0,133,134
 574.024414062 48.8193359375 574.024414062 48.8193359375 535.1484375 75.4326171875 c 0,135,136
 517.19140625 87.7265625 517.19140625 87.7265625 501.864257812 86.919921875 c 0,127,128
EndSplineSet
EndChar

StartChar: afii57409
Encoding: 1569 1569 336
AltUni2: 00fe80.ffffffff.0
Width: 827
VWidth: 1639
GlyphClass: 2
Flags: HW
AnchorPoint: "GposMark2BaseAnchorHamzaErabAbove_01_01" 335.38 655.12 basechar 0
AnchorPoint: "GposMark2BaseAnchorHamzaErabBelow_01_01" 335.38 -281.2 basechar 0
LayerCount: 2
Fore
SplineSet
129.559570312 88.5595703125 m 1,0,1
 55.3935546875 116.190429688 55.3935546875 116.190429688 58.81640625 218.143554688 c 0,2,3
 61.09765625 266.515625 61.09765625 266.515625 80.359375 305.040039062 c 0,4,5
 108.754882812 360.146484375 108.754882812 360.146484375 168.919921875 414.919921875 c 0,6,7
 247.624023438 486.061523438 247.624023438 486.061523438 309.959960938 501.83984375 c 1,8,9
 331.291992188 505.115234375 331.291992188 505.115234375 367.359375 505.120117188 c 0,10,11
 413.954101562 504.724609375 413.954101562 504.724609375 426.399414062 501.83984375 c 0,12,13
 464.321289062 487.787109375 464.321289062 487.787109375 470.6796875 446.080078125 c 1,14,-1
 470.6796875 413.280273438 l 2,15,16
 471.564453125 410.181640625 471.564453125 410.181640625 490.379882812 392.3984375 c 0,17,18
 495.069335938 387.025390625 495.069335938 387.025390625 496.919921875 383.759765625 c 0,19,20
 511.671875 352.15625 511.671875 352.15625 501.83984375 295.200195312 c 0,21,22
 494.459960938 260.759765625 494.459960938 260.759765625 477.239257812 231.240234375 c 0,23,24
 467.887695312 216.69140625 467.887695312 216.69140625 459.19921875 214.83984375 c 1,25,26
 452.28515625 217.635742188 452.28515625 217.635742188 444.439453125 231.240234375 c 0,27,28
 431.374023438 249.694335938 431.374023438 249.694335938 413.279296875 265.6796875 c 1,29,30
 402.075195312 253.28125 402.075195312 253.28125 391.959960938 265.6796875 c 1,31,-1
 390.319335938 265.6796875 l 1,32,33
 378.5546875 249.63671875 378.5546875 249.63671875 362.75 276.298828125 c 0,34,35
 353.348632812 290.712890625 353.348632812 290.712890625 349.319335938 293.559570312 c 0,36,37
 323.041992188 308.575195312 323.041992188 308.575195312 285.361328125 279.333984375 c 0,38,39
 274.833007812 270.141601562 274.833007812 270.141601562 270.599609375 262.400390625 c 1,40,41
 268.723632812 248.865234375 268.723632812 248.865234375 282.079101562 237.799804688 c 0,42,43
 306.341796875 216.794921875 306.341796875 216.794921875 337.83984375 203.360351562 c 0,44,45
 379.983398438 183.79296875 379.983398438 183.79296875 460.275390625 200.825195312 c 0,46,47
 468.987304688 202.666015625 468.987304688 202.666015625 472.319335938 203.360351562 c 0,48,49
 555.107421875 217.37109375 555.107421875 217.37109375 590.399414062 227.959960938 c 1,50,-1
 588.759765625 223.040039062 l 1,51,-1
 613.359375 227.959960938 l 1,52,-1
 611.719726562 223.040039062 l 1,53,-1
 636.319335938 227.959960938 l 1,54,-1
 624.83984375 201.719726562 l 1,55,-1
 636.319335938 205 l 1,56,-1
 624.83984375 178.759765625 l 1,57,-1
 636.319335938 182.040039062 l 1,58,-1
 610.079101562 126.280273438 l 1,59,-1
 670.759765625 139.400390625 l 1,60,61
 662.559570312 109.879882812 662.559570312 109.879882812 627.42578125 53.994140625 c 2,62,-1
 626.479492188 52.48046875 l 1,63,64
 611.756835938 24.8818359375 611.756835938 24.8818359375 605.159179688 19.6796875 c 0,65,66
 600.35546875 15.5615234375 600.35546875 15.5615234375 560.215820312 9.052734375 c 0,67,68
 557.197265625 8.458984375 557.197265625 8.458984375 555.959960938 8.2001953125 c 0,69,70
 486.421875 -6.35546875 486.421875 -6.35546875 439.51953125 -18.0400390625 c 0,71,72
 321.223632812 -47.154296875 321.223632812 -47.154296875 201.719726562 -86.919921875 c 0,73,74
 183.311523438 -92.810546875 183.311523438 -92.810546875 147.19140625 -107.22265625 c 0,75,76
 102.374023438 -124.912109375 102.374023438 -124.912109375 80.359375 -131.200195312 c 1,77,78
 84.2548828125 -92.2734375 84.2548828125 -92.2734375 103.319335938 -67.240234375 c 1,79,-1
 45.919921875 -88.5595703125 l 1,80,-1
 47.5595703125 -80.3603515625 l 1,81,-1
 22.9599609375 -88.5595703125 l 1,82,-1
 24.599609375 -80.3603515625 l 1,83,-1
 0 -88.5595703125 l 1,84,-1
 6.5595703125 -63.9599609375 l 1,85,-1
 0 -65.599609375 l 1,86,-1
 6.5595703125 -41 l 1,87,-1
 0 -42.6396484375 l 1,88,89
 4.896484375 -5.2646484375 4.896484375 -5.2646484375 16.3994140625 11.48046875 c 0,90,91
 42.06640625 54.2578125 42.06640625 54.2578125 116.2421875 81.0283203125 c 0,92,93
 123.955078125 83.68359375 123.955078125 83.68359375 129.559570312 85.2802734375 c 1,94,-1
 129.559570312 88.5595703125 l 1,0,1
403.439453125 332.919921875 m 1,95,96
 438.30859375 391.928710938 438.30859375 391.928710938 412.951171875 431.657226562 c 0,97,98
 403.374023438 444.315429688 403.374023438 444.315429688 390.319335938 451 c 0,99,100
 376.555664062 457.052734375 376.555664062 457.052734375 367.359375 457.559570312 c 0,101,102
 306.172851562 455.450195312 306.172851562 455.450195312 236.234375 388.754882812 c 0,103,104
 231.159179688 383.778320312 231.159179688 383.778320312 227.959960938 380.48046875 c 1,105,106
 347.892578125 395.856445312 347.892578125 395.856445312 395.604492188 340.654296875 c 0,107,108
 399.41015625 336.03515625 399.41015625 336.03515625 401.799804688 332.919921875 c 1,109,-1
 403.439453125 332.919921875 l 1,95,96
186.959960938 341.120117188 m 1,110,111
 121.090820312 285.384765625 121.090820312 285.384765625 113.19921875 224.081054688 c 0,112,113
 110.376953125 191.524414062 110.376953125 191.524414062 127.919921875 168.919921875 c 0,114,115
 137.92578125 156.913085938 137.92578125 156.913085938 188.10546875 126.858398438 c 0,116,117
 207.979492188 114.2421875 207.979492188 114.2421875 218.119140625 103.3203125 c 1,118,-1
 198.439453125 95.1201171875 l 1,119,-1
 218.119140625 80.3603515625 l 1,120,-1
 198.439453125 72.16015625 l 1,121,-1
 218.119140625 57.400390625 l 1,122,123
 195.205078125 53.2216796875 195.205078125 53.2216796875 126.279296875 16.400390625 c 0,124,125
 99.8212890625 0.580078125 99.8212890625 0.580078125 91.83984375 -8.2001953125 c 1,126,127
 96.560546875 -6.9169921875 96.560546875 -6.9169921875 195.159179688 26.240234375 c 0,128,129
 249.268554688 43.046875 249.268554688 43.046875 352.599609375 68.8798828125 c 0,130,131
 372.279296875 73.7998046875 372.279296875 73.7998046875 412.459960938 82.8203125 c 0,132,133
 453.157226562 91.99609375 453.157226562 91.99609375 472.319335938 96.759765625 c 0,134,135
 477.520507812 97.916015625 477.520507812 97.916015625 489.323242188 99.435546875 c 0,136,137
 512.25390625 102.827148438 512.25390625 102.827148438 521.51953125 106.599609375 c 0,138,139
 538.775390625 114.6875 538.775390625 114.6875 559.239257812 165.639648438 c 1,140,141
 359.28515625 109.390625 359.28515625 109.390625 255.83984375 177.120117188 c 1,142,143
 207.70703125 213.780273438 207.70703125 213.780273438 193.51953125 246 c 1,144,145
 185.944335938 270.432617188 185.944335938 270.432617188 186.959960938 341.120117188 c 1,110,111
90.19921875 -8.2001953125 m 1,146,-1
 88.5595703125 -9.83984375 l 1,147,-1
 90.19921875 -8.2001953125 l 1,146,-1
106.599609375 -65.599609375 m 1,148,-1
 104.959960938 -67.240234375 l 1,149,-1
 106.599609375 -65.599609375 l 1,148,-1
EndSplineSet
EndChar

StartChar: afii57410
Encoding: 1570 1570 337
AltUni2: 00fe81.ffffffff.0
Width: 305
VWidth: 1639
GlyphClass: 2
Flags: W
LayerCount: 2
Fore
SplineSet
-145.040039062 1484.20019531 m 1,0,1
 -158.267578125 1473.23242188 -158.267578125 1473.23242188 -164.719726562 1474.36035156 c 1,2,3
 -167.604492188 1478.04785156 -167.604492188 1478.04785156 -166.359375 1489.12011719 c 0,4,5
 -165.369140625 1497.04296875 -165.369140625 1497.04296875 -166.965820312 1513.96191406 c 0,6,7
 -167.911132812 1525.40625 -167.911132812 1525.40625 -168 1530.12011719 c 0,6,7
 -157.430664062 1608.94042969 -157.430664062 1608.94042969 -113.879882812 1651.48046875 c 0,8,9
 -89.150390625 1674.75488281 -89.150390625 1674.75488281 -20.935546875 1680.38867188 c 0,10,11
 -16.876953125 1680.72363281 -16.876953125 1680.72363281 -13.83984375 1681 c 0,10,11
 8.08203125 1683.08789062 8.08203125 1683.08789062 52.2666015625 1684.93847656 c 0,12,13
 147.4609375 1689.32226562 147.4609375 1689.32226562 192.799804688 1702.3203125 c 0,12,13
 248.216796875 1718.80175781 248.216796875 1718.80175781 289.560546875 1748.24023438 c 0,14,15
 295.493164062 1752.98632812 295.493164062 1752.98632812 307.025390625 1765.58789062 c 0,16,17
 328.639648438 1787.87011719 328.639648438 1787.87011719 340.400390625 1792.51953125 c 1,16,-1
 340.400390625 1774.48046875 l 1,17,-1
 363.360351562 1792.51953125 l 1,18,-1
 363.360351562 1774.48046875 l 1,19,-1
 386.3203125 1792.51953125 l 1,20,21
 387.959960938 1790.87988281 387.959960938 1790.87988281 387.140625 1781.04003906 c 2,22,-1
 386.3203125 1771.20019531 l 1,22,23
 389.483398438 1723.75488281 389.483398438 1723.75488281 349.627929688 1649.86816406 c 0,24,25
 347.454101562 1645.83691406 347.454101562 1645.83691406 346.959960938 1644.91992188 c 1,24,25
 371.560546875 1659.6796875 371.560546875 1659.6796875 391.240234375 1679.36035156 c 0,26,27
 412.875 1700.99511719 412.875 1700.99511719 416.616210938 1702.57617188 c 0,28,29
 419.514648438 1703.56542969 419.514648438 1703.56542969 420.759765625 1703.95996094 c 1,28,29
 422.673828125 1693.79101562 422.673828125 1693.79101562 415.83984375 1671.16015625 c 1,30,31
 401.053710938 1633.83300781 401.053710938 1633.83300781 384.6796875 1608.83984375 c 0,32,33
 371.115234375 1587.27539062 371.115234375 1587.27539062 346.959960938 1562.91992188 c 0,34,35
 286.936523438 1504.05078125 286.936523438 1504.05078125 152.518554688 1497.96484375 c 0,36,37
 46.005859375 1493.14257812 46.005859375 1493.14257812 28.7998046875 1490.75976562 c 0,36,37
 -18.0703125 1482.70214844 -18.0703125 1482.70214844 -54.83984375 1451.40039062 c 0,38,39
 -78.1806640625 1430.34082031 -78.1806640625 1430.34082031 -84.359375 1431.71972656 c 1,40,41
 -87.2978515625 1434.98632812 -87.2978515625 1434.98632812 -86 1453.04003906 c 1,42,43
 -82.9306640625 1469.61035156 -82.9306640625 1469.61035156 -67.9599609375 1510.44042969 c 1,44,45
 -74.51953125 1505.51953125 -74.51953125 1505.51953125 -86.8203125 1494.86035156 c 0,46,47
 -99.7529296875 1483.83398438 -99.7529296875 1483.83398438 -105.6796875 1479.28027344 c 0,46,47
 -118.7734375 1472.41894531 -118.7734375 1472.41894531 -122.080078125 1484.20019531 c 1,48,49
 -141.235351562 1468.71289062 -141.235351562 1468.71289062 -145.040039062 1484.20019531 c 1,0,1
286.280273438 1672.79980469 m 1,50,51
 203.498046875 1646.77636719 203.498046875 1646.77636719 178.040039062 1643.28027344 c 0,52,53
 148.520507812 1640 148.520507812 1640 89.48046875 1638.36035156 c 0,54,55
 29.8935546875 1636.5703125 29.8935546875 1636.5703125 0.919921875 1633.44042969 c 1,54,55
 -76.3740234375 1618.57519531 -76.3740234375 1618.57519531 -94.2001953125 1567.83984375 c 1,56,57
 -61.888671875 1576.69238281 -61.888671875 1576.69238281 70.8974609375 1584.71289062 c 0,58,59
 212.397460938 1593.25976562 212.397460938 1593.25976562 269.139648438 1652.11816406 c 0,60,61
 278.905273438 1662.69628906 278.905273438 1662.69628906 286.280273438 1672.79980469 c 1,50,51
346.959960938 1644.91992188 m 1,58,-1
 345.3203125 1643.28027344 l 1,59,-1
 346.959960938 1644.91992188 l 1,58,-1
-143.399414062 1485.83984375 m 1,60,-1
 -145.040039062 1484.20019531 l 1,61,-1
 -143.399414062 1485.83984375 l 1,60,-1
-120.439453125 1485.83984375 m 1,62,-1
 -122.080078125 1484.20019531 l 1,63,-1
 -120.439453125 1485.83984375 l 1,62,-1
125.560546875 -18.0400390625 m 1,64,65
 120.057617188 -34.5478515625 120.057617188 -34.5478515625 109.40625 -28.87890625 c 0,66,67
 105.959960938 -25.484375 105.959960938 -25.484375 104.240234375 -22.9599609375 c 0,66,67
 100.935546875 -13.044921875 100.935546875 -13.044921875 102.747070312 48.453125 c 0,68,69
 102.83203125 55.9931640625 102.83203125 55.9931640625 102.600585938 60.6796875 c 0,68,69
 100.643554688 87.4267578125 100.643554688 87.4267578125 97.76953125 140.348632812 c 0,70,71
 93.3291015625 220.833984375 93.3291015625 220.833984375 89.48046875 260.759765625 c 0,70,71
 40.302734375 802.529296875 40.302734375 802.529296875 30.4404296875 1018.44042969 c 0,72,73
 29.734375 1038.89941406 29.734375 1038.89941406 26.505859375 1079.16699219 c 0,74,75
 22.32421875 1132.953125 22.32421875 1132.953125 22.240234375 1159.48046875 c 0,74,75
 22.69140625 1205.86328125 22.69140625 1205.86328125 23.8798828125 1210.3203125 c 0,76,77
 28.130859375 1231.57519531 28.130859375 1231.57519531 70.5927734375 1305.94628906 c 0,78,79
 72.3232421875 1309.01367188 72.3232421875 1309.01367188 73.080078125 1310.36035156 c 0,78,79
 77.1796875 1319.37988281 77.1796875 1319.37988281 86.2001953125 1336.59960938 c 0,80,81
 95.4296875 1354.43066406 95.4296875 1354.43066406 99.3203125 1362.83984375 c 0,80,81
 111.661132812 1381.68945312 111.661132812 1381.68945312 117.360351562 1385.79980469 c 1,82,-1
 119 1356.28027344 l 1,83,-1
 120.640625 1356.28027344 l 1,84,85
 129.51953125 1378.99804688 129.51953125 1378.99804688 140.3203125 1385.79980469 c 1,86,-1
 141.959960938 1356.28027344 l 1,87,-1
 143.600585938 1356.28027344 l 1,88,89
 152.479492188 1378.99804688 152.479492188 1378.99804688 163.280273438 1385.79980469 c 1,90,91
 170.561523438 1344.28222656 170.561523438 1344.28222656 163.280273438 1243.12011719 c 1,92,-1
 164.919921875 1243.12011719 l 1,93,94
 180.225585938 1285.83300781 180.225585938 1285.83300781 197.719726562 1297.24023438 c 1,95,96
 201.2890625 1260.3046875 201.2890625 1260.3046875 197.719726562 1159.48046875 c 1,97,98
 197.825195312 1080.76757812 197.825195312 1080.76757812 207.560546875 928.240234375 c 0,99,100
 212.48046875 856.080078125 212.48046875 856.080078125 221.5 711.759765625 c 0,101,102
 230.563476562 566.893554688 230.563476562 566.893554688 235.440429688 495.280273438 c 0,101,102
 237.217773438 466.836914062 237.217773438 466.836914062 242.491210938 409.463867188 c 0,103,104
 251.83984375 307.756835938 251.83984375 307.756835938 251.83984375 257.48046875 c 0,103,104
 251.452148438 91.296875 251.452148438 91.296875 232.16015625 9.83984375 c 0,105,106
 224.780273438 -19.6796875 224.780273438 -19.6796875 212.48046875 -49.2001953125 c 1,107,108
 201.654296875 -68.833984375 201.654296875 -68.833984375 199.360351562 -70.51953125 c 0,109,110
 187.526367188 -75.5234375 187.526367188 -75.5234375 182.959960938 -59.0400390625 c 0,111,112
 182.477539062 -54.541015625 182.477539062 -54.541015625 182.959960938 3.2802734375 c 1,113,-1
 181.3203125 3.2802734375 l 1,114,115
 173.823242188 -19.2119140625 173.823242188 -19.2119140625 168.200195312 -26.240234375 c 1,116,117
 154.6796875 -34.4404296875 154.6796875 -34.4404296875 150.16015625 -18.0400390625 c 1,118,-1
 148.520507812 -18.0400390625 l 1,119,120
 142.139648438 -35.0546875 142.139648438 -35.0546875 131.771484375 -27.8759765625 c 1,121,122
 128.274414062 -23.328125 128.274414062 -23.328125 127.200195312 -18.0400390625 c 1,121,-1
 125.560546875 -18.0400390625 l 1,64,65
117.360351562 1259.51953125 m 1,122,123
 108.484375 1249.74804688 108.484375 1249.74804688 92.759765625 1213.59960938 c 1,124,125
 71.2529296875 1173.82519531 71.2529296875 1173.82519531 69.7998046875 1167.6796875 c 0,126,127
 67.654296875 1157.66503906 67.654296875 1157.66503906 74.15625 1098.37011719 c 0,128,129
 74.54296875 1094.37304688 74.54296875 1094.37304688 74.7197265625 1092.24023438 c 0,128,129
 76.3603515625 1066.8203125 76.3603515625 1066.8203125 79.640625 1015.16015625 c 0,130,131
 82.955078125 962.975585938 82.955078125 962.975585938 84.560546875 938.080078125 c 0,130,131
 98.9775390625 722.360351562 98.9775390625 722.360351562 119 496.919921875 c 1,132,133
 148.418945312 193.762695312 148.418945312 193.762695312 148.520507812 90.2001953125 c 1,134,-1
 150.16015625 90.2001953125 l 1,135,136
 152.654296875 108.905273438 152.654296875 108.905273438 159.0546875 145.786132812 c 0,137,138
 169.373046875 206.241210938 169.373046875 206.241210938 171.48046875 236.16015625 c 0,137,138
 173.861328125 271.59375 173.861328125 271.59375 166.560546875 369 c 2,139,-1
 153.440429688 562.51953125 l 2,140,141
 117.360351562 1071.24804688 117.360351562 1071.24804688 117.360351562 1259.51953125 c 1,122,123
EndSplineSet
AlternateSubs2: "gsub_alternate_dfl_aalt_arab_FAR_Lookup_01_Subtable_01" uniFE82 afii57410
Substitution2: "gsub_single_rtl_fina_arab_FAR_Lookup_01_Subtable_01" uniFE82
PairPos2: "gpos_pair_dfl_kern_arab_FAR_Lookup_01_Subtable_01" gafarabic dx=0 dy=0 dh=0 dv=0 dx=0 dy=0 dh=0 dv=0
EndChar

StartChar: uniFE83
Encoding: 1571 1571 339
AltUni2: 00fe83.ffffffff.0
Width: 518
VWidth: 1639
GlyphClass: 2
Flags: W
LayerCount: 2
Fore
SplineSet
213.919921875 -18.0400390625 m 1,0,1
 208.416992188 -34.5478515625 208.416992188 -34.5478515625 197.765625 -28.87890625 c 0,2,3
 194.319335938 -25.484375 194.319335938 -25.484375 192.599609375 -22.9599609375 c 0,2,3
 189.072265625 -13.0849609375 189.072265625 -13.0849609375 191.081054688 43.55078125 c 0,4,5
 191.19921875 51.13671875 191.19921875 51.13671875 190.959960938 55.759765625 c 0,4,5
 184.0625 182.557617188 184.0625 182.557617188 179.479492188 239.440429688 c 0,6,7
 172.263671875 343.087890625 172.263671875 343.087890625 153.6328125 550.383789062 c 0,8,9
 125.712890625 861.875 125.712890625 861.875 118.799804688 1016.79980469 c 0,8,9
 118.096679688 1037.18261719 118.096679688 1037.18261719 114.883789062 1077.94824219 c 0,10,11
 110.68359375 1132.84960938 110.68359375 1132.84960938 110.599609375 1159.48046875 c 2,10,11
 110.599609375 1210.3203125 l 1,12,13
 113.747070312 1220.85742188 113.747070312 1220.85742188 128.639648438 1246.40039062 c 1,14,15
 158.706054688 1306.53320312 158.706054688 1306.53320312 163.080078125 1313.63964844 c 0,16,17
 165.524414062 1318.52929688 165.524414062 1318.52929688 170.841796875 1331.70214844 c 0,18,19
 190.504882812 1377.56054688 190.504882812 1377.56054688 205.719726562 1385.79980469 c 1,18,-1
 207.359375 1356.28027344 l 1,19,-1
 209 1356.28027344 l 1,20,21
 217.87890625 1378.99804688 217.87890625 1378.99804688 228.6796875 1385.79980469 c 1,22,-1
 230.319335938 1356.28027344 l 1,23,-1
 231.959960938 1356.28027344 l 1,24,25
 240.838867188 1378.99804688 240.838867188 1378.99804688 251.639648438 1385.79980469 c 1,26,27
 256.530273438 1359.38964844 256.530273438 1359.38964844 251.826171875 1247.89355469 c 0,28,29
 251.698242188 1244.65722656 251.698242188 1244.65722656 251.639648438 1243.12011719 c 2,28,-1
 253.279296875 1243.12011719 l 1,29,30
 268.584960938 1285.83300781 268.584960938 1285.83300781 286.080078125 1297.24023438 c 1,31,32
 289.6484375 1260.3046875 289.6484375 1260.3046875 286.080078125 1159.48046875 c 1,33,34
 286.18359375 1079.18457031 286.18359375 1079.18457031 295.919921875 926.599609375 c 0,35,36
 300.83984375 854.440429688 300.83984375 854.440429688 309.859375 710.120117188 c 0,37,38
 318.922851562 565.252929688 318.922851562 565.252929688 323.799804688 493.639648438 c 0,37,38
 325.577148438 464.600585938 325.577148438 464.600585938 330.8515625 406.034179688 c 0,39,40
 340.102539062 301.711914062 340.102539062 301.711914062 340.19921875 250.919921875 c 0,39,40
 339.7734375 86.40234375 339.7734375 86.40234375 318.879882812 6.5595703125 c 0,41,42
 312.221679688 -19.3720703125 312.221679688 -19.3720703125 300.83984375 -50.83984375 c 1,43,44
 289.98828125 -69.8251953125 289.98828125 -69.8251953125 286.080078125 -72.16015625 c 0,45,46
 275.909179688 -74.5419921875 275.909179688 -74.5419921875 271.319335938 -57.400390625 c 0,47,48
 271.078125 -52.9013671875 271.078125 -52.9013671875 271.319335938 4.919921875 c 1,49,-1
 269.6796875 4.919921875 l 1,50,51
 265.780273438 -13.6787109375 265.780273438 -13.6787109375 256.559570312 -26.240234375 c 1,52,53
 243.0390625 -34.4404296875 243.0390625 -34.4404296875 238.51953125 -18.0400390625 c 1,54,-1
 236.879882812 -18.0400390625 l 1,55,56
 230.499023438 -35.0546875 230.499023438 -35.0546875 220.130859375 -27.8759765625 c 1,57,58
 216.633789062 -23.328125 216.633789062 -23.328125 215.559570312 -18.0400390625 c 1,57,-1
 213.919921875 -18.0400390625 l 1,0,1
205.719726562 1261.16015625 m 1,58,59
 196.3828125 1248.80957031 196.3828125 1248.80957031 176.19921875 1203.75976562 c 1,60,61
 160.205078125 1174.82519531 160.205078125 1174.82519531 158.159179688 1167.6796875 c 0,62,63
 155.969726562 1157.45996094 155.969726562 1157.45996094 162.530273438 1096.62988281 c 0,64,65
 162.907226562 1092.68359375 162.907226562 1092.68359375 163.080078125 1090.59960938 c 0,64,65
 169.986328125 967.083007812 169.986328125 967.083007812 174.559570312 911.83984375 c 0,66,67
 188.103515625 698.20703125 188.103515625 698.20703125 212.279296875 442.799804688 c 0,68,69
 236.879882812 193.286132812 236.879882812 193.286132812 236.879882812 90.2001953125 c 1,70,-1
 238.51953125 90.2001953125 l 1,71,72
 240.959960938 109.116210938 240.959960938 109.116210938 247.637695312 145.924804688 c 0,73,74
 258.672851562 208.120117188 258.672851562 208.120117188 259.83984375 239.440429688 c 0,73,74
 260.852539062 275.7890625 260.852539062 275.7890625 253.279296875 391.959960938 c 2,75,-1
 238.51953125 610.080078125 l 2,76,77
 205.719726562 1091.14648438 205.719726562 1091.14648438 205.719726562 1261.16015625 c 1,58,59
74.51953125 1644.91992188 m 1,0,1
 32.568359375 1676.296875 32.568359375 1676.296875 31.8798828125 1743.3203125 c 1,2,3
 33.3115234375 1829.41601562 33.3115234375 1829.41601562 115.51953125 1900.75976562 c 0,4,5
 154.391601562 1935.13378906 154.391601562 1935.13378906 192.599609375 1940.12011719 c 1,6,7
 284.51953125 1947.82128906 284.51953125 1947.82128906 305.759765625 1915.51953125 c 1,8,9
 312.297851562 1902.48925781 312.297851562 1902.48925781 312.319335938 1874.51953125 c 0,10,11
 311.760742188 1851.65234375 311.760742188 1851.65234375 310.6796875 1848.28027344 c 1,12,13
 367.18359375 1827.08789062 367.18359375 1827.08789062 333.639648438 1725.28027344 c 1,14,-1
 363.159179688 1730.20019531 l 1,15,-1
 361.51953125 1726.91992188 l 1,16,-1
 386.119140625 1730.20019531 l 1,17,-1
 384.479492188 1726.91992188 l 1,18,-1
 409.080078125 1730.20019531 l 1,19,-1
 399.239257812 1705.59960938 l 1,20,-1
 409.080078125 1707.24023438 l 1,21,-1
 399.239257812 1682.63964844 l 1,22,-1
 409.080078125 1684.28027344 l 1,23,-1
 387.759765625 1631.79980469 l 1,24,-1
 443.51953125 1641.63964844 l 1,25,-1
 414 1574.40039062 l 1,26,-1
 400.879882812 1548.16015625 l 1,27,-1
 369.719726562 1541.59960938 l 1,28,-1
 299.19921875 1528.48046875 l 1,29,-1
 177.83984375 1500.59960938 l 1,30,-1
 84.359375 1467.79980469 l 1,31,32
 92.3955078125 1500.41210938 92.3955078125 1500.41210938 130.279296875 1538.3203125 c 1,33,-1
 49.919921875 1510.44042969 l 1,34,-1
 53.19921875 1520.28027344 l 1,35,-1
 26.9599609375 1510.44042969 l 1,36,-1
 30.2392578125 1520.28027344 l 1,37,-1
 4 1510.44042969 l 1,38,-1
 12.19921875 1536.6796875 l 1,39,-1
 4 1533.40039062 l 1,40,-1
 12.19921875 1559.63964844 l 1,41,-1
 4 1556.36035156 l 1,42,43
 17.1826171875 1611.72753906 17.1826171875 1611.72753906 63.0947265625 1637.86035156 c 0,44,45
 69.609375 1641.27636719 69.609375 1641.27636719 74.51953125 1643.28027344 c 1,44,-1
 74.51953125 1644.91992188 l 1,0,1
259.83984375 1830.24023438 m 1,45,46
 262.997070312 1858.7109375 262.997070312 1858.7109375 261.479492188 1863.04003906 c 0,47,48
 246.712890625 1907.34082031 246.712890625 1907.34082031 194.490234375 1880.47558594 c 0,49,50
 173.3359375 1868.66210938 173.3359375 1868.66210938 161.439453125 1853.20019531 c 1,49,50
 227.795898438 1852.07128906 227.795898438 1852.07128906 259.83984375 1830.24023438 c 1,45,46
184.399414062 1802.36035156 m 1,51,52
 169.556640625 1807.92578125 169.556640625 1807.92578125 163.990234375 1794.70703125 c 0,53,54
 162.716796875 1788.06542969 162.716796875 1788.06542969 164.719726562 1782.6796875 c 1,53,-1
 184.399414062 1802.36035156 l 1,51,52
108.959960938 1792.51953125 m 1,54,55
 99.587890625 1782.11914062 99.587890625 1782.11914062 94.19921875 1769.55957031 c 0,56,57
 80.5888671875 1740.51367188 80.5888671875 1740.51367188 81.080078125 1731.83984375 c 0,58,59
 84.359375 1700.6796875 84.359375 1700.6796875 157.985351562 1667.0859375 c 2,60,-1
 159.799804688 1666.24023438 l 1,60,-1
 159.799804688 1664.59960938 l 1,61,-1
 138.479492188 1656.40039062 l 1,62,-1
 138.479492188 1654.75976562 l 1,63,-1
 159.799804688 1643.28027344 l 1,64,-1
 159.799804688 1641.63964844 l 1,65,-1
 138.479492188 1633.44042969 l 1,66,-1
 138.479492188 1631.79980469 l 1,67,-1
 159.799804688 1620.3203125 l 1,68,-1
 159.799804688 1618.6796875 l 1,69,-1
 115.51953125 1595.71972656 l 1,70,-1
 115.51953125 1594.08007812 l 1,71,72
 149.604492188 1605.1875 149.604492188 1605.1875 253.279296875 1623.59960938 c 0,73,74
 259.046875 1624.6484375 259.046875 1624.6484375 273.693359375 1625.7734375 c 0,75,76
 307.661132812 1628.99414062 307.661132812 1628.99414062 318.879882812 1635.08007812 c 1,75,76
 327.525390625 1641.93945312 327.525390625 1641.93945312 336.919921875 1671.16015625 c 1,77,78
 237.67578125 1666.64941406 237.67578125 1666.64941406 209.567382812 1673.91699219 c 0,79,80
 172.364257812 1684.57421875 172.364257812 1684.57421875 143.399414062 1710.51953125 c 1,79,80
 120.397460938 1734.44628906 120.397460938 1734.44628906 115.51953125 1743.3203125 c 0,81,82
 111.42578125 1754.25292969 111.42578125 1754.25292969 108.959960938 1792.51953125 c 1,54,55
250 1763 m 1,83,84
 240.979492188 1753.98046875 240.979492188 1753.98046875 238.51953125 1753.16015625 c 0,85,86
 232.620117188 1755.38964844 232.620117188 1755.38964844 225.399414062 1763 c 1,87,88
 208.75390625 1768.37109375 208.75390625 1768.37109375 195.879882812 1749.87988281 c 1,89,90
 251.732421875 1706.73144531 251.732421875 1706.73144531 307.399414062 1720.36035156 c 1,91,92
 290.353515625 1750.66699219 290.353515625 1750.66699219 268.040039062 1758.08007812 c 1,93,94
 257.723632812 1751.25585938 257.723632812 1751.25585938 250 1763 c 1,83,84
131.919921875 1539.95996094 m 1,95,-1
 130.279296875 1538.3203125 l 1,96,-1
 131.919921875 1539.95996094 l 1,95,-1
EndSplineSet
AlternateSubs2: "gsub_alternate_dfl_aalt_arab_FAR_Lookup_01_Subtable_01" uniFE84 uniFE83
Substitution2: "gsub_single_rtl_fina_arab_FAR_Lookup_01_Subtable_01" uniFE84
EndChar

StartChar: uniFE84
Encoding: 65156 65156 340
Width: 422
VWidth: 1639
GlyphClass: 2
Flags: W
LayerCount: 2
Fore
SplineSet
454.159179688 -65.599609375 m 1,0,1
 359.185546875 -65.599609375 359.185546875 -65.599609375 337.030273438 -60.029296875 c 0,2,3
 328.955078125 -57.8349609375 328.955078125 -57.8349609375 322.959960938 -55.759765625 c 0,2,3
 317.920898438 -53.744140625 317.920898438 -53.744140625 270.63671875 -23.95703125 c 0,4,5
 262.80078125 -19.224609375 262.80078125 -19.224609375 257.359375 -16.400390625 c 0,4,5
 251.619140625 -13.9404296875 251.619140625 -13.9404296875 238.5 -9.83984375 c 0,6,7
 225.004882812 -5.4638671875 225.004882812 -5.4638671875 219.639648438 -3.2802734375 c 0,6,7
 177.006835938 19.3115234375 177.006835938 19.3115234375 147.479492188 63.9599609375 c 0,8,9
 114.040039062 116.334960938 114.040039062 116.334960938 98.279296875 223.040039062 c 0,10,11
 93.470703125 254.04296875 93.470703125 254.04296875 76.9599609375 411.639648438 c 0,12,13
 70.365234375 478.639648438 70.365234375 478.639648438 35.9599609375 961.040039062 c 0,14,15
 26.119140625 1082.94628906 26.119140625 1082.94628906 22.83984375 1143.08007812 c 1,16,17
 15.0869140625 1232.25585938 15.0869140625 1232.25585938 17.919921875 1254.59960938 c 0,18,19
 20.548828125 1264.5234375 20.548828125 1264.5234375 40.8798828125 1284.12011719 c 0,20,21
 57.4248046875 1302.30175781 57.4248046875 1302.30175781 93.359375 1344.79980469 c 0,22,23
 113.987304688 1368.68652344 113.987304688 1368.68652344 119.599609375 1371.04003906 c 0,24,25
 124.51953125 1372.6796875 124.51953125 1372.6796875 125.33984375 1369.40039062 c 0,26,27
 126.159179688 1366.12011719 126.159179688 1366.12011719 126.219726562 1360.11523438 c 2,28,-1
 126.159179688 1357.91992188 l 1,26,27
 147.3203125 1374.80761719 147.3203125 1374.80761719 149.119140625 1357.91992188 c 1,28,29
 164.845703125 1371.44921875 164.845703125 1371.44921875 168.799804688 1371.04003906 c 1,30,31
 173.658203125 1366.78613281 173.658203125 1366.78613281 173.719726562 1343.16015625 c 0,32,33
 173.818359375 1315.14453125 173.818359375 1315.14453125 177 1261.16015625 c 1,34,35
 178.126953125 1262.28710938 178.126953125 1262.28710938 181.515625 1266.61328125 c 0,36,37
 196.918945312 1286.27246094 196.918945312 1286.27246094 203.239257812 1282.48046875 c 0,36,37
 204.705078125 1280.37597656 204.705078125 1280.37597656 208.159179688 1262.79980469 c 1,38,39
 209.796875 1241.54980469 209.796875 1241.54980469 209.799804688 1202.12011719 c 0,40,41
 209.90234375 1121.76757812 209.90234375 1121.76757812 219.639648438 965.959960938 c 0,42,43
 222.451171875 928.474609375 222.451171875 928.474609375 223.790039062 853.502929688 c 0,44,45
 224.85546875 796.727539062 224.85546875 796.727539062 226.19921875 769.16015625 c 0,44,45
 228.659179688 718.3203125 228.659179688 718.3203125 233.579101562 615.8203125 c 0,46,47
 238.526367188 512.78515625 238.526367188 512.78515625 240.959960938 462.48046875 c 0,46,47
 243.276367188 397.947265625 243.276367188 397.947265625 254.079101562 316.51953125 c 1,48,49
 259.24609375 263.337890625 259.24609375 263.337890625 267.19921875 250.919921875 c 0,50,51
 308.140625 189.5078125 308.140625 189.5078125 423.038085938 187.171875 c 0,52,53
 435.040039062 186.9609375 435.040039062 186.9609375 454.159179688 186.959960938 c 1,52,-1
 454.159179688 141.040039062 l 1,53,54
 341.729492188 141.040039062 341.729492188 141.040039062 323.860351562 143.922851562 c 0,55,56
 264.793945312 154.698242188 264.793945312 154.698242188 231.119140625 190.240234375 c 1,55,56
 194.161132812 232.336914062 194.161132812 232.336914062 178.639648438 321.440429688 c 0,57,58
 166.458984375 397.633789062 166.458984375 397.633789062 160.599609375 505.120117188 c 0,59,60
 160.3203125 509.993164062 160.3203125 509.993164062 140.919921875 962.6796875 c 0,61,62
 127.828125 1247.95214844 127.828125 1247.95214844 127.799804688 1284.12011719 c 1,63,64
 121.239257812 1276.74023438 121.239257812 1276.74023438 108.119140625 1261.16015625 c 0,65,66
 94.53125 1245.10546875 94.53125 1245.10546875 88.439453125 1238.20019531 c 0,65,66
 71.5302734375 1220.0859375 71.5302734375 1220.0859375 68.759765625 1213.59960938 c 0,67,68
 67.119140625 1213.59960938 67.119140625 1213.59960938 67.939453125 1201.29980469 c 2,69,-1
 68.759765625 1189 l 1,69,70
 73.6796875 1120.12011719 l 2,71,72
 75.6298828125 1073.00097656 75.6298828125 1073.00097656 91.7197265625 872.48046875 c 1,73,74
 120.037109375 458.330078125 120.037109375 458.330078125 132.34375 359.034179688 c 0,75,76
 136.533203125 325.514648438 136.533203125 325.514648438 140.919921875 295.200195312 c 0,75,76
 160.41015625 144.840820312 160.41015625 144.840820312 213.696289062 84.4951171875 c 0,77,78
 229.931640625 66.8818359375 229.931640625 66.8818359375 247.51953125 54.1201171875 c 0,77,78
 298.385742188 19.7509765625 298.385742188 19.7509765625 415.76953125 22.345703125 c 0,79,80
 443.57421875 22.9599609375 443.57421875 22.9599609375 454.159179688 22.9599609375 c 1,79,-1
 454.159179688 -65.599609375 l 1,0,1
83.51953125 1638.36035156 m 1,0,1
 41.568359375 1669.73730469 41.568359375 1669.73730469 40.8798828125 1736.75976562 c 1,2,3
 42.3115234375 1822.85644531 42.3115234375 1822.85644531 124.51953125 1894.20019531 c 0,4,5
 163.391601562 1928.57421875 163.391601562 1928.57421875 201.599609375 1933.55957031 c 1,6,7
 293.51953125 1941.26171875 293.51953125 1941.26171875 314.759765625 1908.95996094 c 1,8,9
 321.297851562 1895.9296875 321.297851562 1895.9296875 321.319335938 1867.95996094 c 0,10,11
 320.760742188 1845.09179688 320.760742188 1845.09179688 319.6796875 1841.71972656 c 1,12,13
 376.18359375 1820.52734375 376.18359375 1820.52734375 342.639648438 1718.71972656 c 1,14,-1
 372.159179688 1723.63964844 l 1,15,-1
 370.51953125 1720.36035156 l 1,16,-1
 395.119140625 1723.63964844 l 1,17,-1
 393.479492188 1720.36035156 l 1,18,-1
 418.079101562 1723.63964844 l 1,19,-1
 408.239257812 1699.04003906 l 1,20,-1
 418.079101562 1700.6796875 l 1,21,-1
 408.239257812 1676.08007812 l 1,22,-1
 418.079101562 1677.71972656 l 1,23,-1
 396.759765625 1625.24023438 l 1,24,-1
 452.51953125 1635.08007812 l 1,25,-1
 423 1567.83984375 l 1,26,-1
 409.879882812 1541.59960938 l 1,27,-1
 378.719726562 1535.04003906 l 1,28,-1
 308.19921875 1521.91992188 l 1,29,-1
 186.83984375 1494.04003906 l 1,30,-1
 93.359375 1461.24023438 l 1,31,32
 101.395507812 1493.8515625 101.395507812 1493.8515625 139.279296875 1531.75976562 c 1,33,-1
 58.919921875 1503.87988281 l 1,34,-1
 62.19921875 1513.71972656 l 1,35,-1
 35.9599609375 1503.87988281 l 1,36,-1
 39.2392578125 1513.71972656 l 1,37,-1
 13 1503.87988281 l 1,38,-1
 21.19921875 1530.12011719 l 1,39,-1
 13 1526.83984375 l 1,40,-1
 21.19921875 1553.08007812 l 1,41,-1
 13 1549.79980469 l 1,42,43
 26.1826171875 1605.16796875 26.1826171875 1605.16796875 72.09375 1631.30078125 c 0,44,45
 78.609375 1634.71679688 78.609375 1634.71679688 83.51953125 1636.71972656 c 1,44,-1
 83.51953125 1638.36035156 l 1,0,1
268.83984375 1823.6796875 m 1,45,46
 271.997070312 1852.15136719 271.997070312 1852.15136719 270.479492188 1856.48046875 c 0,47,48
 255.712890625 1900.78125 255.712890625 1900.78125 203.489257812 1873.91601562 c 0,49,50
 182.3359375 1862.1015625 182.3359375 1862.1015625 170.439453125 1846.63964844 c 1,49,50
 236.795898438 1845.51074219 236.795898438 1845.51074219 268.83984375 1823.6796875 c 1,45,46
193.399414062 1795.79980469 m 1,51,52
 178.556640625 1801.36621094 178.556640625 1801.36621094 172.990234375 1788.14648438 c 0,53,54
 170.575195312 1782.40917969 170.575195312 1782.40917969 173.719726562 1776.12011719 c 1,53,-1
 193.399414062 1795.79980469 l 1,51,52
117.959960938 1785.95996094 m 1,54,55
 108.587890625 1775.55957031 108.587890625 1775.55957031 103.19921875 1763 c 0,56,57
 89.5888671875 1733.953125 89.5888671875 1733.953125 90.0791015625 1725.28027344 c 0,58,59
 93.359375 1694.12011719 93.359375 1694.12011719 166.984375 1660.52636719 c 2,60,-1
 168.799804688 1659.6796875 l 1,60,-1
 168.799804688 1658.04003906 l 1,61,-1
 147.479492188 1649.83984375 l 1,62,-1
 147.479492188 1648.20019531 l 1,63,-1
 168.799804688 1636.71972656 l 1,64,-1
 168.799804688 1635.08007812 l 1,65,-1
 147.479492188 1626.87988281 l 1,66,-1
 147.479492188 1625.24023438 l 1,67,-1
 168.799804688 1613.75976562 l 1,68,-1
 168.799804688 1612.12011719 l 1,69,-1
 124.51953125 1589.16015625 l 1,70,-1
 124.51953125 1587.51953125 l 1,71,72
 158.604492188 1598.62695312 158.604492188 1598.62695312 262.279296875 1617.04003906 c 0,73,74
 268.046875 1618.08886719 268.046875 1618.08886719 282.693359375 1619.21289062 c 0,75,76
 316.661132812 1622.43359375 316.661132812 1622.43359375 327.879882812 1628.51953125 c 1,75,76
 336.525390625 1635.37890625 336.525390625 1635.37890625 345.919921875 1664.59960938 c 1,77,78
 246.67578125 1660.08886719 246.67578125 1660.08886719 218.567382812 1667.35742188 c 0,79,80
 181.364257812 1678.01367188 181.364257812 1678.01367188 152.399414062 1703.95996094 c 1,79,80
 129.396484375 1727.88671875 129.396484375 1727.88671875 124.51953125 1736.75976562 c 0,81,82
 120.42578125 1747.69335938 120.42578125 1747.69335938 117.959960938 1785.95996094 c 1,54,55
259 1756.44042969 m 1,83,84
 249.979492188 1747.41992188 249.979492188 1747.41992188 247.51953125 1746.59960938 c 0,85,86
 241.620117188 1748.82910156 241.620117188 1748.82910156 234.399414062 1756.44042969 c 1,87,88
 217.75390625 1761.81152344 217.75390625 1761.81152344 204.879882812 1743.3203125 c 1,89,90
 260.732421875 1700.171875 260.732421875 1700.171875 316.399414062 1713.79980469 c 1,91,92
 299.353515625 1744.10742188 299.353515625 1744.10742188 277.040039062 1751.51953125 c 1,93,94
 266.723632812 1744.6953125 266.723632812 1744.6953125 259 1756.44042969 c 1,83,84
140.919921875 1533.40039062 m 1,95,-1
 139.279296875 1531.75976562 l 1,96,-1
 140.919921875 1533.40039062 l 1,95,-1
EndSplineSet
EndChar

